<?xml version="1.0" encoding="UTF-8"?>
<svg version="1.1" xmlns="http://www.w3.org/2000/svg" width="512" height="512">
<path d="M0 0 C2.29819883 -0.00295946 4.596393 -0.00706852 6.89458942 -0.01150417 C14.10534662 -0.02510053 21.31609281 -0.03481314 28.52686191 -0.03870606 C36.81840676 -0.04320998 45.10978868 -0.06089781 53.40128398 -0.08970666 C59.84326853 -0.11130778 66.28520706 -0.121409 72.72722745 -0.12274718 C76.56302204 -0.12379353 80.39866177 -0.12966893 84.23441792 -0.1475668 C87.82973951 -0.16402707 91.42478911 -0.16621321 95.02013493 -0.15742779 C96.96445919 -0.15629004 98.9087744 -0.17001087 100.85304737 -0.18418026 C102.59347813 -0.17582653 102.59347813 -0.17582653 104.3690691 -0.16730404 C105.87764799 -0.16950388 105.87764799 -0.16950388 107.41670322 -0.17174816 C110.68140655 0.26913124 112.52901282 1.25645123 115.17088795 3.20018864 C117.17088795 6.20018864 117.17088795 6.20018864 117.17088795 10.20018864 C124.76088795 10.20018864 132.35088795 10.20018864 140.17088795 10.20018864 C140.83088795 8.22018864 141.49088795 6.24018864 142.17088795 4.20018864 C143.77423635 2.04076564 144.67904791 1.34571434 147.25682545 0.58300114 C151.0852855 0.15180939 153.50108604 -0.08483345 157.10838795 1.45018864 C159.17088795 3.20018864 159.17088795 3.20018864 161.17088795 6.20018864 C161.17088795 7.52018864 161.17088795 8.84018864 161.17088795 10.20018864 C168.76088795 10.20018864 176.35088795 10.20018864 184.17088795 10.20018864 C184.83088795 8.22018864 185.49088795 6.24018864 186.17088795 4.20018864 C188.15051969 1.70413123 189.06335184 1.23603401 192.17088795 0.20018864 C193.81631631 0.10219662 195.46540395 0.06095556 197.11372852 0.05301762 C198.13400639 0.04586231 199.15428425 0.03870701 200.20547962 0.03133488 C201.88387676 0.02730152 201.88387676 0.02730152 203.59618092 0.02318668 C205.3650491 0.01332989 205.3650491 0.01332989 207.16965199 0.00327396 C211.08411988 -0.01648268 214.99857433 -0.02813473 218.91307545 -0.03809261 C220.26461908 -0.04214209 221.61616251 -0.04625907 222.96770573 -0.0504427 C229.32529412 -0.06950038 235.68287094 -0.08372414 242.0404824 -0.09205467 C249.35356524 -0.10179723 256.66634299 -0.12803556 263.9793185 -0.16855556 C269.64577976 -0.19886191 275.31215439 -0.21353761 280.97869503 -0.21683568 C284.35559931 -0.21917182 287.73217796 -0.22794054 291.10899448 -0.25329685 C294.89012176 -0.277795 298.67046637 -0.27670262 302.45164967 -0.26978207 C303.55033878 -0.28259212 304.6490279 -0.29540218 305.78101063 -0.30860043 C318.18852334 -0.22642831 329.75188081 3.18585462 338.88963795 11.82518864 C340.00807054 12.96472373 341.11992109 14.11075108 342.22557545 15.26268864 C344.61111456 17.63864727 347.10562613 19.8318666 349.67088795 22.01268864 C350.54745045 22.76163395 351.42401295 23.51057926 352.32713795 24.28221989 C360.48156475 29.78197753 370.22034798 28.52791061 379.68065357 28.50292301 C388.67789004 28.65279638 395.32885352 29.96073391 402.2150774 35.98998356 C406.60059415 40.58824991 408.84783102 45.3004534 410.67088795 51.32518864 C410.95367603 52.22205387 411.23646412 53.11891911 411.52782154 54.04296207 C425.88479145 101.06540405 431.12097196 152.15322518 431.48338795 201.20018864 C431.50526173 202.20541569 431.50526173 202.20541569 431.5275774 203.23095036 C431.73177873 212.70634842 431.20781821 218.61677266 425.60057545 226.37206364 C419.04404994 233.02743123 412.33642011 235.36115671 403.0782671 235.57647038 C398.56573441 235.6010436 394.0575106 235.53416265 389.54588795 235.45018864 C387.66439653 235.43009347 385.78288441 235.41184803 383.9013567 235.39550114 C379.32401627 235.35174317 374.74768376 235.28288265 370.17088795 235.20018864 C369.96048878 236.60699894 369.96048878 236.60699894 369.74583912 238.04222965 C368.24457237 246.28804085 361.63399508 255.01440173 354.85057545 259.85643864 C342.91634805 267.30164472 330.99206846 270.11671659 317.10838795 267.07518864 C307.2026396 264.32003224 297.5671234 258.48873954 292.14891529 249.5058527 C286.17088795 238.69603581 286.17088795 238.69603581 286.17088795 235.20018864 C208.29088795 235.20018864 130.41088795 235.20018864 50.17088795 235.20018864 C49.84088795 237.18018864 49.51088795 239.16018864 49.17088795 241.20018864 C45.04313439 251.12726538 37.42952046 260.10428774 27.45995045 264.35643864 C15.11539056 268.98978551 3.76198565 269.66691004 -8.82911205 265.20018864 C-20.60925647 259.72779159 -28.16970074 251.29208652 -32.82911205 239.20018864 C-33.21920563 237.21048059 -33.5695443 235.21109283 -33.82911205 233.20018864 C-35.1336433 233.08932926 -36.43817455 232.97846989 -37.78223705 232.86425114 C-42.61368425 232.32217712 -46.99003235 231.14681204 -51.57911205 229.57518864 C-52.35480541 229.31230045 -53.13049877 229.04941227 -53.92969799 228.77855778 C-76.50730115 220.84381044 -76.50730115 220.84381044 -80.82911205 212.20018864 C-80.93468735 209.85826594 -80.97309588 207.51324937 -80.9830122 205.16896915 C-80.98739445 204.43660412 -80.99177671 203.70423908 -80.99629176 202.94968116 C-81.00970254 200.48256262 -81.01586388 198.01547982 -81.02198315 195.54833317 C-81.02988274 193.78427817 -81.03815161 192.0202248 -81.04676342 190.25617313 C-81.07301474 184.44846489 -81.08830085 178.64074936 -81.10254955 172.83300114 C-81.10790923 170.83291844 -81.11328673 168.83283579 -81.11868191 166.83275318 C-81.14032117 158.50826295 -81.15905474 150.18377468 -81.1703043 141.85926342 C-81.18651972 129.93852223 -81.21962695 118.01810827 -81.27670515 106.09749043 C-81.31547907 97.71261857 -81.3349462 89.32783392 -81.34022486 80.94287479 C-81.34387004 75.93786144 -81.35580121 70.93319685 -81.3883276 65.92828083 C-81.41853695 61.21187863 -81.42467442 56.49603379 -81.41294384 51.77955532 C-81.41272413 50.05591148 -81.42094336 48.33224084 -81.43859768 46.6086874 C-81.57473233 32.54293984 -79.36479796 21.84682583 -69.23536205 11.32909489 C-65.73398777 8.23128809 -62.08283358 6.09813092 -57.82911205 4.20018864 C-56.94223705 3.78768864 -56.05536205 3.37518864 -55.14161205 2.95018864 C-38.23811852 -2.53202548 -17.58275571 0.02152212 0 0 Z " fill="#FDCD68" transform="translate(80.82911205291748,121.79981136322021)"/>
<path d="M0 0 C2.29819883 -0.00295946 4.596393 -0.00706852 6.89458942 -0.01150417 C14.10534662 -0.02510053 21.31609281 -0.03481314 28.52686191 -0.03870606 C36.81840676 -0.04320998 45.10978868 -0.06089781 53.40128398 -0.08970666 C59.84326853 -0.11130778 66.28520706 -0.121409 72.72722745 -0.12274718 C76.56302204 -0.12379353 80.39866177 -0.12966893 84.23441792 -0.1475668 C87.82973951 -0.16402707 91.42478911 -0.16621321 95.02013493 -0.15742779 C96.96445919 -0.15629004 98.9087744 -0.17001087 100.85304737 -0.18418026 C102.59347813 -0.17582653 102.59347813 -0.17582653 104.3690691 -0.16730404 C105.87764799 -0.16950388 105.87764799 -0.16950388 107.41670322 -0.17174816 C110.68140655 0.26913124 112.52901282 1.25645123 115.17088795 3.20018864 C117.67393173 6.9547543 117.62368869 8.74764798 117.17088795 13.20018864 C115.05618464 17.2030199 113.40646331 19.58849296 109.17088795 21.20018864 C106.42928696 21.45910835 106.42928696 21.45910835 103.22116566 21.47193241 C102.00309727 21.48165073 100.78502888 21.49136906 99.53004932 21.50138187 C98.18303403 21.50215209 96.83601863 21.50274109 95.48900318 21.50316715 C94.06785061 21.51083036 92.64670257 21.51937712 91.22556019 21.52874088 C88.16556202 21.54701584 85.10562491 21.55905712 82.04558086 21.56627941 C77.19886009 21.57778111 72.35227358 21.60324853 67.50562 21.6305933 C59.83007313 21.67225488 52.1545197 21.70465516 44.47891337 21.73306745 C30.75988847 21.78395313 17.04092203 21.84652017 3.3219915 21.91840786 C-1.48695084 21.94319103 -6.29587637 21.96268625 -11.10485852 21.97779 C-14.11108471 21.98807125 -17.1172846 22.00221858 -20.12349033 22.01726627 C-22.16217302 22.02625504 -24.20087498 22.03048578 -26.23957348 22.03452396 C-41.40254925 21.49009245 -41.40254925 21.49009245 -54.82911205 27.20018864 C-61.4291988 33.98349026 -60.54037378 42.71432947 -60.48853588 51.53026676 C-60.49699667 53.18661038 -60.50764425 54.84294406 -60.52030468 56.4992609 C-60.54838118 60.97812272 -60.54599184 65.45650446 -60.53801084 69.93542767 C-60.5348801 74.62267039 -60.55993673 79.30976173 -60.58196545 83.99694157 C-60.61937934 92.86486076 -60.63155187 101.7326266 -60.63458985 110.60061693 C-60.63928355 120.69983762 -60.67221691 130.79890497 -60.7074877 140.89805794 C-60.77938582 161.66541741 -60.81593318 182.43271432 -60.82911205 203.20018864 C-59.43257397 203.65639591 -59.43257397 203.65639591 -58.00782299 204.1218195 C-54.92561118 205.16745157 -52.04232664 206.42123338 -49.07911205 207.76268864 C-43.62669871 210.07996431 -38.73152999 211.05654572 -32.82911205 211.20018864 C-32.4443269 210.29139957 -32.4443269 210.29139957 -32.0517683 209.36425114 C-27.03548948 198.38586315 -19.71679372 190.47853671 -8.82911205 185.20018864 C-8.15751049 184.8611652 -7.48590893 184.52214176 -6.7939558 184.17284489 C2.6152432 180.23874819 14.71458803 180.89970874 24.17088795 184.26268864 C34.35278267 188.81474369 41.63706625 195.45966085 47.17088795 205.20018864 C48.16088795 208.17018864 49.15088795 211.14018864 50.17088795 214.20018864 C58.42088795 214.20018864 66.67088795 214.20018864 75.17088795 214.20018864 C75.1244817 211.62206364 75.07807545 209.04393864 75.03026295 206.38768864 C74.99899797 203.86899118 74.97474988 201.35031599 74.95116138 198.83153629 C74.93114273 197.09152774 74.90391909 195.35158564 74.86913013 193.61180973 C74.82017842 191.09943518 74.79782207 188.58795588 74.78026295 186.07518864 C74.75961781 185.30714909 74.73897266 184.53910954 74.71770191 183.74779606 C74.715183 177.57679501 76.29757905 172.23933757 80.61858082 167.66893864 C85.63426439 163.32712723 89.11840849 161.95102675 95.71025562 161.93949223 C96.36548073 161.93566668 97.02070583 161.93184113 97.69578624 161.92789966 C99.88971703 161.91758716 102.08338526 161.92155845 104.27733326 161.92553043 C105.85113231 161.92118286 107.42492925 161.91599956 108.99872303 161.91004276 C113.27370419 161.89664322 117.54859698 161.89607538 121.82359505 161.89860606 C125.39446561 161.89967559 128.96531829 161.89479264 132.53618503 161.89000064 C140.96407486 161.87890116 149.39192012 161.87846987 157.81981373 161.88451481 C166.50622664 161.8905496 175.19247738 161.87825721 183.87886262 161.85694474 C191.34143742 161.83931001 198.80396069 161.83333052 206.26655555 161.83658248 C210.72133685 161.83839323 215.17600257 161.83578042 219.63076496 161.82186794 C223.82345105 161.80926453 228.01588527 161.81125739 232.20856762 161.82427883 C233.74359123 161.82663908 235.2786327 161.82392977 236.81363583 161.81565571 C253.91148552 161.73017354 253.91148552 161.73017354 260.19432545 166.84862614 C260.64034107 167.41839176 261.0863567 167.98815739 261.54588795 168.57518864 C262.23811451 169.4221027 262.23811451 169.4221027 262.94432545 170.28612614 C266.17403732 175.32612236 266.44349631 179.9151622 266.36620045 185.78221989 C266.3619556 187.00348827 266.3619556 187.00348827 266.35762501 188.24942875 C266.34647379 190.83733464 266.32137878 193.42488821 266.29588795 196.01268864 C266.2858516 197.77244925 266.27672689 199.53221531 266.2685442 201.29198551 C266.2482567 205.59496321 266.20909914 209.89718382 266.17088795 214.20018864 C273.10088795 214.20018864 280.03088795 214.20018864 287.17088795 214.20018864 C287.50088795 212.22018864 287.83088795 210.24018864 288.17088795 208.20018864 C293.08138652 197.35971081 301.53543059 189.12971785 312.2997942 184.23143864 C323.46280906 180.15155503 336.4713112 180.79639787 347.2372942 185.59471989 C357.22591981 191.06119808 365.51825946 199.18962102 369.17088795 210.20018864 C369.17088795 211.52018864 369.17088795 212.84018864 369.17088795 214.20018864 C374.68891818 214.13146953 380.2061791 214.0435819 385.72362232 213.93773746 C387.60146541 213.90443661 389.47940984 213.87642088 391.35741138 213.85375309 C394.0534897 213.82030122 396.74863495 213.76799222 399.44432545 213.71190739 C400.70845768 213.7023225 400.70845768 213.7023225 401.99812794 213.69254398 C404.61027482 213.66088019 404.61027482 213.66088019 408.17088795 213.20018864 C410.44043426 209.79586917 410.53638743 208.03494662 410.79588795 204.01268864 C410.87065357 202.92600895 410.9454192 201.83932926 411.02245045 200.71971989 C411.07143482 199.88827457 411.1204192 199.05682926 411.17088795 198.20018864 C410.14608326 198.23499332 409.12127857 198.26979801 408.0654192 198.30565739 C406.70475859 198.33380899 405.34408015 198.36110767 403.98338795 198.38768864 C403.30985279 198.41282536 402.63631763 198.43796207 401.94237232 198.46386051 C397.46171809 198.52943106 394.74185445 197.92504927 391.17088795 195.20018864 C388.59899115 191.77099291 388.66874595 188.36079377 389.17088795 184.20018864 C392.6997671 178.57045925 392.6997671 178.57045925 396.08177662 177.71923161 C398.2450568 177.60991083 400.32290875 177.67459223 402.48338795 177.82518864 C403.22395435 177.85225895 403.96452076 177.87932926 404.72752857 177.90721989 C406.54324793 177.9775058 408.35745596 178.08511775 410.17088795 178.20018864 C410.02651295 176.94721989 409.88213795 175.69425114 409.73338795 174.40331364 C409.54577108 172.75228525 409.35827753 171.10124284 409.17088795 169.45018864 C409.02780201 168.21268864 409.02780201 168.21268864 408.88182545 166.95018864 C408.79159107 166.15096989 408.7013567 165.35175114 408.60838795 164.52831364 C408.48270435 163.42858219 408.48270435 163.42858219 408.3544817 162.30663395 C408.17766316 160.27792342 408.17088795 158.23659017 408.17088795 156.20018864 C407.51213673 156.20685047 406.85338551 156.21351231 406.17467213 156.22037601 C399.29618191 156.2869313 392.41778373 156.33207307 385.53905201 156.36498356 C382.97456106 156.38003643 380.41009572 156.40048325 377.84569263 156.426507 C374.15194332 156.46304331 370.45853549 156.47995057 366.76463795 156.49315739 C365.62474415 156.50864124 364.48485035 156.5241251 363.31041431 156.54007816 C352.98187722 156.54224414 345.56485801 154.12054182 337.7685442 147.00878239 C334.93587235 143.94608907 332.85033619 140.73835408 330.79588795 137.13768864 C330.38234058 136.42378971 329.96879322 135.70989079 329.54271412 134.97435856 C297.24687555 78.60969501 297.24687555 78.60969501 301.85838795 59.32518864 C302.79884414 56.81730545 303.87432989 54.54287921 305.17088795 52.20018864 C305.59498951 51.43190739 306.01909107 50.66362614 306.4560442 49.87206364 C311.74942116 41.20213145 318.91368402 35.23969581 328.17088795 31.20018864 C326.94952797 30.06671808 325.71839614 28.94377277 324.48338795 27.82518864 C323.79889576 27.19870426 323.11440357 26.57221989 322.4091692 25.92675114 C318.4579129 22.87883616 314.88272531 21.9500396 309.94043446 21.95536137 C308.90729115 21.95142368 307.87414783 21.947486 306.80969715 21.94342899 C305.68695896 21.94912403 304.56422077 21.95481907 303.40746021 21.96068668 C302.21667866 21.95867252 301.0258971 21.95665836 299.79903126 21.95458317 C296.54072134 21.95011461 293.282532 21.95405438 290.02422929 21.9601295 C286.60905014 21.96311035 283.1939377 21.95096575 279.77878284 21.93915653 C268.15256017 21.90145824 256.5264171 21.88322804 244.90013599 21.89476871 C238.47434708 21.90098993 232.04884027 21.88938217 225.62312073 21.8583234 C222.22574507 21.84274345 218.82892492 21.8366264 215.43154049 21.85290432 C211.64182064 21.86720992 207.85336029 21.85098044 204.06371021 21.82787418 C202.94299625 21.83964191 201.8222823 21.85140965 200.66760731 21.86353397 C192.18447077 21.76201804 192.18447077 21.76201804 188.4981432 18.78986454 C185.4361106 15.382558 184.30044118 12.76231328 184.17088795 8.20018864 C185.33224784 5.12600068 186.58584103 3.69827179 189.06371021 1.58872318 C193.88833826 -0.56730498 198.59696242 -0.22502625 203.8232317 -0.2038641 C205.59253796 -0.21415897 205.59253796 -0.21415897 207.39758778 -0.22466183 C210.62751431 -0.23981577 213.85707862 -0.24142515 217.08702564 -0.23571944 C219.79259333 -0.23262174 222.49810924 -0.23872749 225.20366955 -0.24475819 C231.5975715 -0.25880276 237.99133991 -0.2572468 244.38524342 -0.24585629 C250.95232232 -0.23441469 257.51899094 -0.24838355 264.0860157 -0.27525276 C269.74405137 -0.29752488 275.40195938 -0.30402027 281.06003571 -0.29817635 C284.43022262 -0.294828 287.79993983 -0.29881853 291.17012501 -0.31442738 C294.9415153 -0.32942466 298.71202385 -0.31859254 302.48338795 -0.30152035 C303.57893497 -0.31118832 304.674482 -0.32085629 305.80322742 -0.33081722 C319.23379764 -0.20449754 331.06911754 3.85711124 340.54588795 13.51268864 C341.10018482 14.09018864 341.6544817 14.66768864 342.22557545 15.26268864 C344.61111456 17.63864727 347.10562613 19.8318666 349.67088795 22.01268864 C350.54745045 22.76163395 351.42401295 23.51057926 352.32713795 24.28221989 C360.48156475 29.78197753 370.22034798 28.52791061 379.68065357 28.50292301 C388.67789004 28.65279638 395.32885352 29.96073391 402.2150774 35.98998356 C406.60059415 40.58824991 408.84783102 45.3004534 410.67088795 51.32518864 C410.95367603 52.22205387 411.23646412 53.11891911 411.52782154 54.04296207 C425.88479145 101.06540405 431.12097196 152.15322518 431.48338795 201.20018864 C431.50526173 202.20541569 431.50526173 202.20541569 431.5275774 203.23095036 C431.73177873 212.70634842 431.20781821 218.61677266 425.60057545 226.37206364 C419.04404994 233.02743123 412.33642011 235.36115671 403.0782671 235.57647038 C398.56573441 235.6010436 394.0575106 235.53416265 389.54588795 235.45018864 C387.66439653 235.43009347 385.78288441 235.41184803 383.9013567 235.39550114 C379.32401627 235.35174317 374.74768376 235.28288265 370.17088795 235.20018864 C369.96048878 236.60699894 369.96048878 236.60699894 369.74583912 238.04222965 C368.24457237 246.28804085 361.63399508 255.01440173 354.85057545 259.85643864 C342.91634805 267.30164472 330.99206846 270.11671659 317.10838795 267.07518864 C307.2026396 264.32003224 297.5671234 258.48873954 292.14891529 249.5058527 C286.17088795 238.69603581 286.17088795 238.69603581 286.17088795 235.20018864 C208.29088795 235.20018864 130.41088795 235.20018864 50.17088795 235.20018864 C49.84088795 237.18018864 49.51088795 239.16018864 49.17088795 241.20018864 C45.04313439 251.12726538 37.42952046 260.10428774 27.45995045 264.35643864 C15.11539056 268.98978551 3.76198565 269.66691004 -8.82911205 265.20018864 C-20.60925647 259.72779159 -28.16970074 251.29208652 -32.82911205 239.20018864 C-33.21920563 237.21048059 -33.5695443 235.21109283 -33.82911205 233.20018864 C-35.1336433 233.08932926 -36.43817455 232.97846989 -37.78223705 232.86425114 C-42.61368425 232.32217712 -46.99003235 231.14681204 -51.57911205 229.57518864 C-52.35480541 229.31230045 -53.13049877 229.04941227 -53.92969799 228.77855778 C-76.50730115 220.84381044 -76.50730115 220.84381044 -80.82911205 212.20018864 C-80.93468735 209.85826594 -80.97309588 207.51324937 -80.9830122 205.16896915 C-80.98739445 204.43660412 -80.99177671 203.70423908 -80.99629176 202.94968116 C-81.00970254 200.48256262 -81.01586388 198.01547982 -81.02198315 195.54833317 C-81.02988274 193.78427817 -81.03815161 192.0202248 -81.04676342 190.25617313 C-81.07301474 184.44846489 -81.08830085 178.64074936 -81.10254955 172.83300114 C-81.10790923 170.83291844 -81.11328673 168.83283579 -81.11868191 166.83275318 C-81.14032117 158.50826295 -81.15905474 150.18377468 -81.1703043 141.85926342 C-81.18651972 129.93852223 -81.21962695 118.01810827 -81.27670515 106.09749043 C-81.31547907 97.71261857 -81.3349462 89.32783392 -81.34022486 80.94287479 C-81.34387004 75.93786144 -81.35580121 70.93319685 -81.3883276 65.92828083 C-81.41853695 61.21187863 -81.42467442 56.49603379 -81.41294384 51.77955532 C-81.41272413 50.05591148 -81.42094336 48.33224084 -81.43859768 46.6086874 C-81.57473233 32.54293984 -79.36479796 21.84682583 -69.23536205 11.32909489 C-65.73398777 8.23128809 -62.08283358 6.09813092 -57.82911205 4.20018864 C-56.94223705 3.78768864 -56.05536205 3.37518864 -55.14161205 2.95018864 C-38.23811852 -2.53202548 -17.58275571 0.02152212 0 0 Z " fill="#020101" transform="translate(80.82911205291748,121.79981136322021)"/>
<path d="M0 0 C0.96271568 -0.00445784 1.92543137 -0.00891569 2.91732025 -0.01350862 C3.98246605 -0.01332426 5.04761185 -0.01313989 6.14503479 -0.01294994 C7.83373058 -0.01846498 7.83373058 -0.01846498 9.55654144 -0.02409142 C13.35500533 -0.03516514 17.15344191 -0.03897837 20.95191956 -0.04278088 C23.66502112 -0.04850863 26.37811855 -0.05567636 29.09121704 -0.0626936 C37.25364425 -0.08247236 45.41607272 -0.09252763 53.57851791 -0.10142139 C57.42254975 -0.10580343 61.26658021 -0.11117059 65.11061096 -0.11641026 C77.89070856 -0.13342667 90.67080529 -0.14791943 103.45091248 -0.155159 C106.76879375 -0.1570689 110.08667502 -0.15898923 113.40455627 -0.16094494 C114.22920246 -0.16142868 115.05384864 -0.16191242 115.90348411 -0.16241082 C129.25325468 -0.17070573 142.60293548 -0.19603166 155.95266688 -0.22852562 C169.65983071 -0.26161728 183.36694897 -0.2796098 197.07415295 -0.28280324 C204.76962025 -0.28496678 212.46495679 -0.29369206 220.16038513 -0.31926441 C226.71659047 -0.34100053 233.27263331 -0.34900772 239.82887059 -0.33929763 C243.17201561 -0.33476069 246.51455448 -0.3387961 249.85769844 -0.35605907 C253.4889965 -0.37375857 257.11944886 -0.36668004 260.75074768 -0.35352612 C261.7980477 -0.36449536 262.84534773 -0.37546461 263.92438412 -0.38676625 C273.42548012 -0.30387714 281.73006305 2.28116209 288.64625549 9.0267992 C297.83312434 19.72580782 297.2752226 30.88063901 297.01832581 44.32758045 C296.95544809 47.65420484 296.93631183 50.97893338 296.92457581 54.30609608 C296.90625395 56.42591094 296.88550822 58.54570655 296.86207581 60.66547108 C296.85357605 61.65712269 296.84507629 62.6487743 296.83631897 63.67047596 C296.81710388 64.59243763 296.79788879 65.5143993 296.77809143 66.4642992 C296.75760742 67.67575611 296.75760742 67.67575611 296.73670959 68.9116869 C296.40567224 71.53106851 295.99895723 72.97517181 294.45582581 75.13422108 C288.93662237 78.81382137 283.75302248 78.55863511 277.36152649 78.52190113 C276.2404787 78.52728667 275.11943091 78.53267221 273.96441197 78.53822094 C270.20590458 78.5525345 266.44774768 78.54538812 262.68922424 78.53827381 C259.99522791 78.54397568 257.30125678 78.55083859 254.60726929 78.55907154 C248.04741461 78.57626238 241.48765571 78.57709876 234.92778435 78.57185864 C229.59381159 78.56781525 224.25986711 78.5692625 218.92589569 78.5746069 C218.16637152 78.57535532 217.40684735 78.57610374 216.62430729 78.57687484 C215.0812388 78.57840635 213.53817032 78.5799447 211.99510184 78.58148981 C197.52534325 78.59521656 183.05563874 78.58977655 168.58588138 78.5783046 C155.35921822 78.56837801 142.13269507 78.58130259 128.90605351 78.60523879 C115.31627158 78.62964625 101.72655482 78.63923325 88.13675141 78.63258606 C80.51066407 78.62909672 72.88468432 78.63130668 65.25861359 78.64883709 C58.76470272 78.66357995 52.27097516 78.66416774 45.77706781 78.64676618 C42.46636866 78.63826962 39.15606298 78.63825221 35.84536934 78.65141773 C32.24929205 78.66462443 28.65409922 78.65308121 25.05805969 78.63542652 C23.50287522 78.64983403 23.50287522 78.64983403 21.91627288 78.6645326 C12.28322075 78.56748169 4.31870928 75.84935704 -2.78636169 69.20453358 C-7.45785059 63.70255776 -10.635529 56.69641114 -10.72117615 49.46674061 C-10.73401138 48.52210957 -10.74684662 47.57747852 -10.7600708 46.6042223 C-10.76745773 45.58545002 -10.77484467 44.56667774 -10.78245544 43.51703358 C-10.79052719 42.46772663 -10.79859894 41.41841969 -10.80691528 40.33731556 C-10.8207482 38.11647663 -10.8314739 35.8956165 -10.83934021 33.67474842 C-10.85657219 30.27932011 -10.90046849 26.88486067 -10.94456482 23.48968983 C-10.95469024 21.3321449 -10.96320681 19.17459171 -10.96995544 17.01703358 C-10.98746353 16.00230976 -11.00497162 14.98758595 -11.02301025 13.94211292 C-11.00129483 6.88366652 -11.00129483 6.88366652 -8.64256287 3.0165453 C-5.60517551 0.29190812 -3.98371126 0.00853025 0 0 Z " fill="#010101" transform="translate(57.54417419433594,165.86577892303467)"/>
<path d="M0 0 C1.04743378 -0.00524185 2.09486755 -0.0104837 3.17404175 -0.0158844 C5.38115555 -0.02229056 7.58830356 -0.02098588 9.79541016 -0.01245117 C13.17541894 -0.00391703 16.55375071 -0.03276249 19.93359375 -0.06445312 C22.08072866 -0.06606465 24.22786656 -0.06548854 26.375 -0.0625 C27.38547394 -0.07373398 28.39594788 -0.08496796 29.43704224 -0.09654236 C36.4003441 -0.02714847 36.4003441 -0.02714847 39.62670898 2.24462891 C41.67845135 5.38976859 42.86697675 8.69310369 43.9921875 12.24609375 C44.24524658 13.02654053 44.49830566 13.8069873 44.7590332 14.61108398 C50.75237994 33.77666257 53.85906686 53.91063128 56.7421875 73.74609375 C56.87383301 74.64859863 57.00547852 75.55110352 57.14111328 76.48095703 C57.26083496 77.32770996 57.38055664 78.17446289 57.50390625 79.046875 C57.61049561 79.79751221 57.71708496 80.54814941 57.8269043 81.3215332 C58.0546875 83.43359375 58.0546875 83.43359375 58.0546875 87.43359375 C51.04397965 87.56055969 44.03356918 87.64801487 37.02197266 87.70825195 C34.63774536 87.73336784 32.25359485 87.76746699 29.86962891 87.81079102 C26.43893471 87.87156822 23.00926006 87.89983368 19.578125 87.921875 C18.51540375 87.94768143 17.4526825 87.97348785 16.35775757 88.00007629 C8.0761761 88.00320205 8.0761761 88.00320205 4.56787109 85.30419922 C1.95687284 82.32186801 0.13533541 79.53712532 -1.6796875 76.015625 C-1.99958145 75.40499207 -2.3194754 74.79435913 -2.64906311 74.16522217 C-3.67658136 72.19820214 -4.68587118 70.22244114 -5.6953125 68.24609375 C-6.75510667 66.20647891 -7.81933326 64.16921552 -8.88362122 62.13194275 C-9.58670023 60.78500429 -10.28819803 59.43723924 -10.98808289 58.08863831 C-14.1722373 51.95933219 -17.51535338 45.92596163 -20.93847656 39.92700195 C-25.35997434 32.10214053 -28.12316976 25.63146788 -26.9453125 16.43359375 C-24.81792697 9.33028953 -20.53848677 5.73670457 -14.43408203 1.82397461 C-9.58053472 -0.11031174 -5.17959728 -0.01510835 0 0 Z " fill="#F6F3F1" transform="translate(428.9453125,170.56640625)"/>
<path d="M0 0 C49.83 0 99.66 0 151 0 C151 10.56 151 21.12 151 32 C150 33 150 33 147.53434658 33.12304783 C146.42911679 33.12212604 145.323887 33.12120424 144.18516541 33.12025452 C142.92166763 33.12162918 141.65816986 33.12300385 140.35638428 33.12442017 C138.94323707 33.12088055 137.5300901 33.11724574 136.11694336 33.11352539 C134.63898216 33.11324353 133.16102081 33.11340124 131.68305969 33.1139679 C127.65844172 33.1142559 123.63385328 33.1083587 119.6092422 33.10139394 C115.40783635 33.09516088 111.2064299 33.09455664 107.00502014 33.09336853 C99.04353743 33.09025507 91.08206838 33.08204149 83.1205917 33.07201904 C74.05907411 33.06085836 64.99755588 33.05534757 55.93603313 33.05032361 C37.29067942 33.03985888 18.64534446 33.02151322 0 33 C0 22.11 0 11.22 0 0 Z " fill="#F7E99B" transform="translate(176,304)"/>
<path d="M0 0 C18.15 0 36.3 0 55 0 C55 12.54 55 25.08 55 38 C36.85 38 18.7 38 0 38 C0 25.46 0 12.92 0 0 Z " fill="#F3F0EE" transform="translate(210,186)"/>
<path d="M0 0 C18.15 0 36.3 0 55 0 C55 12.54 55 25.08 55 38 C36.85 38 18.7 38 0 38 C0 25.46 0 12.92 0 0 Z " fill="#F3F0EE" transform="translate(136,186)"/>
<path d="M0 0 C6.05080827 -0.04591676 12.10101178 -0.08574096 18.15185547 -0.10986328 C20.21014454 -0.11991954 22.26841933 -0.13356629 24.32666016 -0.15087891 C27.28551763 -0.17514354 30.24418617 -0.18648688 33.203125 -0.1953125 C34.12305237 -0.20563507 35.04297974 -0.21595764 35.99078369 -0.22659302 C36.8513739 -0.22674408 37.71196411 -0.22689514 38.59863281 -0.22705078 C39.73114471 -0.23371262 39.73114471 -0.23371262 40.88653564 -0.24050903 C44.19987797 0.13654429 46.34848439 1.37429517 48.73168945 3.66308594 C50.53202112 6.98027067 50.33770876 9.63246396 50.29296875 13.390625 C50.28172974 15.32470215 50.28172974 15.32470215 50.27026367 17.29785156 C50.24295166 18.93206055 50.21563965 20.56626953 50.1875 22.25 C50.125625 27.4475 50.06375 32.645 50 38 C33.5 38 17 38 0 38 C0 25.46 0 12.92 0 0 Z " fill="#F5F2F0" transform="translate(284,186)"/>
<path d="M0 0 C16.5 0 33 0 50 0 C50 12.54 50 25.08 50 38 C43.98479981 38.11498896 37.97343273 38.21446543 31.95800781 38.2746582 C29.91327981 38.29975583 27.86864111 38.33384164 25.82421875 38.37719727 C22.87998389 38.43805815 19.93693804 38.4662573 16.9921875 38.48828125 C16.0825827 38.51408768 15.17297791 38.5398941 14.23580933 38.56648254 C9.85265476 38.56840635 6.92225717 38.41189352 3.43798828 35.59448242 C-0.33815845 31.57594534 -0.11981822 29.47528143 -0.09765625 24.0234375 C-0.09515869 22.76966309 -0.09266113 21.51588867 -0.09008789 20.22412109 C-0.08098389 18.62391113 -0.07187988 17.02370117 -0.0625 15.375 C-0.041875 10.30125 -0.02125 5.2275 0 0 Z " fill="#F4F2F0" transform="translate(67,186)"/>
<path d="M0 0 C6.35022855 2.99333292 10.87355868 7.60649621 13.81640625 13.97265625 C15.69329347 19.89438598 15.46849718 26.00812027 12.859375 31.65234375 C9.56861985 37.29035083 4.83357933 42.15129465 -1.453125 44.27734375 C-8.24895761 45.11980234 -15.5435747 45.09817369 -21.453125 41.27734375 C-27.31192414 36.03277355 -31.40513571 29.97391796 -31.953125 21.96484375 C-31.70422955 15.62342049 -28.9849357 10.01825489 -24.703125 5.3828125 C-17.46683693 -1.0269168 -9.52963577 -2.80729716 0 0 Z " fill="#5A8EAC" transform="translate(417.453125,324.72265625)"/>
<path d="M0 0 C4.36371787 3.32619054 6.81806575 7.87050649 9.234375 12.703125 C9.96184423 21.013062 8.83402099 27.2317339 4.671875 34.390625 C-0.50760358 39.3044893 -6.28278958 41.9957186 -13.453125 42.203125 C-21.00175177 41.80974586 -26.42751048 39.04123952 -31.765625 33.703125 C-36.1449215 28.11714928 -36.49241029 22.04381346 -36.27734375 15.1171875 C-35.2501797 8.26419985 -31.5416567 3.82097423 -26.140625 -0.296875 C-17.88169471 -5.19105591 -8.29664531 -4.59750409 0 0 Z " fill="#5B8EAC" transform="translate(102.765625,327.296875)"/>
<path d="M0 0 C2.25 1.6875 2.25 1.6875 4.25 4.6875 C4.74359386 9.04757907 4.52521864 11.19210646 2.375 15.0625 C0.24133615 17.6982024 -0.48074671 18.49050391 -3.73828125 18.99609375 C-8.38567088 19.25384813 -10.1120476 19.24570835 -13.75 16.0625 C-15.79857032 12.60553758 -16.83349136 10.69508524 -16.75 6.6875 C-15.13187431 3.57110977 -13.71694732 1.3965947 -10.875 -0.6875 C-6.81546777 -1.88148007 -3.83378149 -1.82975935 0 0 Z " fill="#020100" transform="translate(237.75,123.3125)"/>
</svg>
