<?xml version="1.0" encoding="UTF-8"?>
<svg version="1.1" xmlns="http://www.w3.org/2000/svg" width="512" height="512">
<path d="M0 0 C7.75081608 6.16542188 13.7956116 13.16626301 15.75 23.1875 C15.86798227 25.71232049 15.9377482 28.20900889 15.953125 30.734375 C15.95882507 31.46440735 15.96452515 32.1944397 15.97039795 32.94659424 C15.9798259 34.48977215 15.98637315 36.03296999 15.99023438 37.57617188 C15.99990997 39.91573042 16.03094045 42.25439849 16.0625 44.59375 C16.06903408 46.09895316 16.07428296 47.60416256 16.078125 49.109375 C16.0904718 49.799245 16.1028186 50.48911499 16.11553955 51.19989014 C16.08263253 58.51562939 13.79009633 64.47725572 9.125 70.125 C8.51398438 70.87652344 7.90296875 71.62804687 7.2734375 72.40234375 C6.46020996 73.35527961 5.63584022 74.30165978 4.75 75.1875 C4.51572222 77.20344582 4.33663876 79.225974 4.1875 81.25 C4.10371094 82.35472656 4.01992187 83.45945312 3.93359375 84.59765625 C3.87300781 85.45230469 3.81242188 86.30695313 3.75 87.1875 C4.45342529 87.30971924 5.15685059 87.43193848 5.8815918 87.55786133 C11.29217077 88.74552693 16.39387674 90.9113245 21.5625 92.875 C23.28823242 93.50825195 23.28823242 93.50825195 25.04882812 94.15429688 C34.45449479 97.7279112 42.87836017 101.97292544 47.75 111.1875 C50.42717382 117.16013547 50.00284499 123.17524597 49.9453125 129.5859375 C49.9424826 130.77603424 49.93965271 131.96613098 49.93673706 133.19229126 C49.92556817 136.98246437 49.90046917 140.77239866 49.875 144.5625 C49.86496597 147.13671533 49.85584085 149.71093438 49.84765625 152.28515625 C49.82563957 158.58601858 49.7921945 164.88674222 49.75 171.1875 C50.5970752 171.16655273 51.44415039 171.14560547 52.31689453 171.12402344 C55.48140393 171.05555945 58.64553391 171.00556013 61.81054688 170.96777344 C63.17623368 170.94774681 64.54183569 170.92051668 65.90722656 170.88574219 C67.87787102 170.83683568 69.84915983 170.81658653 71.8203125 170.796875 C73.00383301 170.77592773 74.18735352 170.75498047 75.40673828 170.73339844 C79.46857416 171.28510099 81.57687525 172.637719 84.75 175.1875 C88.8439282 181.32839229 87.93340677 188.49050676 87.9375 195.625 C87.94974609 196.74455078 87.96199219 197.86410156 87.97460938 199.01757812 C87.99711724 211.65949311 87.99711724 211.65949311 83.25 217 C79.92023277 219.91354633 78.43846668 220.31162095 74.125 220.25 C73.30773437 220.24097656 72.49046875 220.23195313 71.6484375 220.22265625 C70.70871094 220.20525391 70.70871094 220.20525391 69.75 220.1875 C69.95882812 221.78851563 69.95882812 221.78851563 70.171875 223.421875 C70.89877446 231.69557356 70.83077508 237.52705619 65.46630859 244.12055969 C53.69462463 259.04925095 56.31399579 278.29512318 56.69561768 296.23773193 C56.83925445 303.53354485 56.87815676 310.83057674 56.91442871 318.1275692 C56.93704347 320.65598905 56.9899427 323.18233175 57.04785156 325.7101593 C57.06771274 327.26224964 57.08695192 328.81434811 57.10546875 330.36645508 C57.12935165 331.05792633 57.15323456 331.74939758 57.17784119 332.46182251 C57.20643267 337.91355916 55.91283119 340.88752893 52.75 345.1875 C47.27008488 349.49256606 40.33799017 348.61568407 33.69555664 348.59155273 C32.37943893 348.59841599 31.06332123 348.60527924 29.70732117 348.61235046 C26.10807668 348.63025438 22.50907636 348.62911878 18.90980077 348.62340808 C15.90040925 348.62031216 12.89106435 348.62641316 9.88167948 348.63244683 C2.77988534 348.64648138 -4.32178847 348.64493975 -11.42358398 348.63354492 C-18.74002775 348.6220648 -26.0561049 348.63613976 -33.37250036 348.6629414 C-39.66399998 348.68512215 -45.95538472 348.69173045 -52.24692065 348.68586498 C-56.00024832 348.68249984 -59.75334102 348.68488076 -63.50663567 348.70211601 C-67.69337943 348.72050357 -71.87941317 348.70637376 -76.06616211 348.68920898 C-77.30326935 348.69887695 -78.54037659 348.70854492 -79.81497192 348.71850586 C-86.45250788 348.66151139 -91.01839131 348.4693162 -96.25 344.1875 C-99.34361526 339.73349985 -99.64912633 335.7198525 -99.5078125 330.44824219 C-99.49659615 329.31986938 -99.49659615 329.31986938 -99.4851532 328.16870117 C-99.46821502 326.54159997 -99.44500462 324.91455437 -99.41616821 323.28762054 C-99.37435502 320.6943734 -99.35835892 318.1021666 -99.3503418 315.50860596 C-99.32656861 308.13687338 -99.28649755 300.76624195 -99.15771484 293.39550781 C-98.04541846 264.71635979 -98.04541846 264.71635979 -111.25 240.1875 C-112.15238747 237.48033758 -112.36851302 235.94973232 -112.34765625 233.17578125 C-112.34443359 232.41845703 -112.34121094 231.66113281 -112.33789062 230.88085938 C-112.32951172 230.09517578 -112.32113281 229.30949219 -112.3125 228.5 C-112.30798828 227.70271484 -112.30347656 226.90542969 -112.29882812 226.08398438 C-112.2870585 224.11845743 -112.26912348 222.15296915 -112.25 220.1875 C-112.87946533 220.22875 -113.50893066 220.27 -114.1574707 220.3125 C-119.72433352 220.62629872 -122.90463347 220.00294379 -127.25 216.1875 C-129.73111488 212.56685894 -129.57260713 208.77195336 -129.5859375 204.53515625 C-129.5925943 203.79800888 -129.5992511 203.06086151 -129.60610962 202.30137634 C-129.61621333 200.7456206 -129.62092734 199.18982172 -129.62060547 197.6340332 C-129.62497944 195.26115183 -129.66132091 192.89013075 -129.69921875 190.51757812 C-129.70508742 189.0026105 -129.70905648 187.48763408 -129.7109375 185.97265625 C-129.72530853 185.2673024 -129.73967957 184.56194855 -129.75448608 183.83522034 C-129.72221652 180.33508212 -129.33319174 178.32133069 -127.47119141 175.32592773 C-123.23983674 171.25223731 -120.36253964 170.94089878 -114.515625 170.9921875 C-113.22011719 170.99863281 -111.92460938 171.00507813 -110.58984375 171.01171875 C-109.22655981 171.02842807 -107.86327856 171.04535794 -106.5 171.0625 C-105.12110015 171.0725366 -103.74219335 171.08166127 -102.36328125 171.08984375 C-98.99201118 171.11341907 -95.62109364 171.1463273 -92.25 171.1875 C-92.25888245 170.54571808 -92.26776489 169.90393616 -92.2769165 169.2427063 C-92.36583029 162.52615317 -92.42591626 155.80976891 -92.46972656 149.09277344 C-92.48976603 146.59042564 -92.51700522 144.08812422 -92.55175781 141.5859375 C-92.6006124 137.97644563 -92.62304645 134.36757621 -92.640625 130.7578125 C-92.66127014 129.65011505 -92.68191528 128.5424176 -92.70318604 127.40115356 C-92.70585793 118.02378388 -90.60158019 109.69106783 -84.05029297 102.69287109 C-77.3083509 97.05538604 -67.87689652 94.36780932 -59.75 91.375 C-58.6671875 90.96830078 -57.584375 90.56160156 -56.46875 90.14257812 C-48.52232143 87.1875 -48.52232143 87.1875 -46.25 87.1875 C-46.09928932 78.63935065 -46.09928932 78.63935065 -50.0625 71.4375 C-50.59875 70.9115625 -51.135 70.385625 -51.6875 69.84375 C-58.66363603 62.44904581 -58.49482296 52.99450218 -58.54516602 43.46630859 C-58.55661379 41.96132959 -58.57694978 40.45638884 -58.60668945 38.95166016 C-58.86312056 25.96392597 -57.32494551 15.11322166 -48.25 5.1875 C-35.0600904 -8.4780073 -16.05492845 -8.9537101 0 0 Z " fill="#010101" transform="translate(129.25,155.8125)"/>
<path d="M0 0 C8.64460311 6.09534397 14.64423857 14.15350879 16.75390625 24.64453125 C16.99940337 29.27782385 17.02455959 33.91212738 17.04907227 38.55102539 C17.06056095 40.06283959 17.08096355 41.57461421 17.1105957 43.08618164 C17.32331114 53.95130573 16.56765212 62.3614773 9.56640625 71.14453125 C9.05722656 71.79421875 8.54804688 72.44390625 8.0234375 73.11328125 C6.75390625 74.64453125 6.75390625 74.64453125 5.75390625 75.64453125 C5.51962847 77.66047707 5.34054501 79.68300525 5.19140625 81.70703125 C5.10761719 82.81175781 5.02382813 83.91648437 4.9375 85.0546875 C4.87691406 85.90933594 4.81632813 86.76398438 4.75390625 87.64453125 C5.35251465 87.81686279 5.95112305 87.98919434 6.56787109 88.16674805 C12.93171585 90.03277765 19.16707094 92.13667464 25.37890625 94.45703125 C26.26835937 94.77478516 27.1578125 95.09253906 28.07421875 95.41992188 C36.01014846 98.39006028 42.96681252 102.13414656 47.19140625 109.76953125 C47.66449219 110.59710938 48.13757813 111.4246875 48.625 112.27734375 C50.51048255 116.23098536 50.87782148 119.60013389 50.86743164 123.96386719 C50.86735611 125.02466492 50.86728058 126.08546265 50.86720276 127.17840576 C50.86204147 128.31707092 50.85688019 129.45573608 50.8515625 130.62890625 C50.84944008 132.38500214 50.84944008 132.38500214 50.84727478 134.17657471 C50.84167715 137.91591954 50.82912505 141.65520451 50.81640625 145.39453125 C50.81139095 147.92968664 50.80682809 150.46484296 50.80273438 153 C50.79170849 159.21486418 50.77497269 165.42969344 50.75390625 171.64453125 C51.60098145 171.62358398 52.44805664 171.60263672 53.32080078 171.58105469 C56.48531018 171.5125907 59.64944016 171.46259138 62.81445312 171.42480469 C64.18013993 171.40477806 65.54574194 171.37754793 66.91113281 171.34277344 C68.88177727 171.29386693 70.85306608 171.27361778 72.82421875 171.25390625 C74.00773926 171.23295898 75.19125977 171.21201172 76.41064453 171.19042969 C80.47248041 171.74213224 82.5807815 173.09475025 85.75390625 175.64453125 C88.17719317 179.27946163 88.0600641 181.99578914 88.0546875 186.19921875 C88.05897263 186.93778107 88.06325775 187.67634338 88.06767273 188.43728638 C88.0734121 189.99903337 88.07391917 191.56080709 88.06958008 193.12255859 C88.06642675 195.50404901 88.08985908 197.88428876 88.11523438 200.265625 C88.11750819 201.78515469 88.11821048 203.3046877 88.1171875 204.82421875 C88.12639725 205.53270966 88.13560699 206.24120056 88.14509583 206.97116089 C88.10414471 211.38030872 87.42375826 214.12170302 84.75390625 217.64453125 C80.4241952 221.33752009 76.15153775 220.96203899 70.75390625 220.64453125 C70.84091797 222.31128906 70.84091797 222.31128906 70.9296875 224.01171875 C71.3151138 234.48541327 70.45629764 241.42999329 63.9621582 250.01245117 C58.52572983 257.52647715 57.81415206 263.45884977 58.00390625 272.58203125 C58.02176433 274.96608464 58.0275093 277.35026808 58.01953125 279.734375 C58.04708496 281.29466431 58.04708496 281.29466431 58.07519531 282.88647461 C57.70456422 286.06810036 56.98758421 287.3811536 54.75390625 289.64453125 C53.76390625 289.97453125 52.77390625 290.30453125 51.75390625 290.64453125 C51.42390625 296.91453125 51.09390625 303.18453125 50.75390625 309.64453125 C52.07390625 309.97453125 53.39390625 310.30453125 54.75390625 310.64453125 C58.54935948 314.44536276 58.17169031 318.079877 58.21289062 323.18554688 C58.20580078 324.26513672 58.19871094 325.34472656 58.19140625 326.45703125 C58.21138672 327.52501953 58.23136719 328.59300781 58.25195312 329.69335938 C58.24793406 336.19218819 57.87962535 340.50282808 53.75390625 345.64453125 C47.95648198 349.76747215 41.51584465 349.07334726 34.69946289 349.04858398 C33.38334518 349.05544724 32.06722748 349.06231049 30.71122742 349.06938171 C27.11198293 349.08728563 23.51298261 349.08615003 19.91370702 349.08043933 C16.9043155 349.07734341 13.8949706 349.08344441 10.88558573 349.08947808 C3.78379159 349.10351263 -3.31788222 349.101971 -10.41967773 349.09057617 C-17.7361215 349.07909605 -25.05219865 349.09317101 -32.36859411 349.11997265 C-38.66009373 349.1421534 -44.95147847 349.1487617 -51.2430144 349.14289623 C-54.99634207 349.13953109 -58.74943477 349.14191201 -62.50272942 349.15914726 C-66.68947318 349.17753482 -70.87550692 349.16340501 -75.06225586 349.14624023 C-76.2993631 349.1559082 -77.53647034 349.16557617 -78.81106567 349.17553711 C-85.44860163 349.11854264 -90.01448506 348.92634745 -95.24609375 344.64453125 C-98.335512 340.19568069 -98.64170158 336.20165016 -98.48803711 330.93701172 C-98.47895325 330.18797577 -98.46986938 329.43893982 -98.46051025 328.66720581 C-98.4402346 327.04664521 -98.41374923 325.42615277 -98.3816967 323.80578232 C-98.33519416 321.22039147 -98.31545459 318.63609568 -98.30409241 316.05032349 C-98.27124007 308.70049879 -98.22550312 301.3519612 -98.07836914 294.00341797 C-96.89510955 266.57515533 -96.89510955 266.57515533 -108.58520508 242.58349609 C-112.92959404 237.05937046 -112.2553895 230.56444686 -111.66796875 223.87890625 C-111.52875 222.8115625 -111.38953125 221.74421875 -111.24609375 220.64453125 C-111.85590088 220.66555908 -112.46570801 220.68658691 -113.09399414 220.70825195 C-114.30043579 220.73278442 -114.30043579 220.73278442 -115.53125 220.7578125 C-116.72439819 220.78935425 -116.72439819 220.78935425 -117.94165039 220.8215332 C-121.51483492 220.54708053 -123.57633621 218.92359256 -126.24609375 216.64453125 C-130.39840382 210.41606615 -129.4641015 203.00777792 -129.49609375 195.76953125 C-129.51671875 194.61066406 -129.53734375 193.45179688 -129.55859375 192.2578125 C-129.61030814 180.94528922 -129.61030814 180.94528922 -126.24609375 175.64453125 C-121.83500567 172.09559214 -118.94373012 171.1543076 -113.31640625 171.25390625 C-111.3828125 171.27324219 -111.3828125 171.27324219 -109.41015625 171.29296875 C-108.06379107 171.32638219 -106.7174369 171.36024188 -105.37109375 171.39453125 C-104.00132806 171.41461769 -102.63153409 171.4328647 -101.26171875 171.44921875 C-97.92245389 171.49625065 -94.58463813 171.56197261 -91.24609375 171.64453125 C-91.2549762 170.98800064 -91.26385864 170.33147003 -91.27301025 169.65504456 C-91.3618293 162.79266101 -91.42197126 155.93044203 -91.46582031 149.06762695 C-91.48587678 146.50994224 -91.5131288 143.95230304 -91.54785156 141.39477539 C-91.59663047 137.7083815 -91.6191232 134.02259641 -91.63671875 130.3359375 C-91.66768646 128.63383873 -91.66768646 128.63383873 -91.69927979 126.89735413 C-91.70189429 117.54750365 -89.46512387 110.15236922 -83.04638672 103.18530273 C-76.38221408 97.48180483 -66.84982745 94.81631063 -58.74609375 91.83203125 C-57.66328125 91.42533203 -56.58046875 91.01863281 -55.46484375 90.59960938 C-47.51841518 87.64453125 -47.51841518 87.64453125 -45.24609375 87.64453125 C-45.10767352 79.07617044 -45.10767352 79.07617044 -49.05859375 71.83203125 C-49.59484375 71.30351562 -50.13109375 70.775 -50.68359375 70.23046875 C-56.36894463 64.4598376 -57.40145697 57.93219418 -57.484375 50.16796875 C-57.49244675 49.44267975 -57.50051849 48.71739075 -57.50883484 47.97012329 C-57.52264023 46.43534711 -57.53337818 44.90054069 -57.54125977 43.36572266 C-57.55273708 41.81224427 -57.57312125 40.25880399 -57.6027832 38.70556641 C-57.86692754 24.85495876 -55.72188299 14.66499026 -46.18359375 4.08203125 C-33.94232485 -7.86777887 -14.20327783 -8.5713694 0 0 Z " fill="#010000" transform="translate(424.24609375,155.35546875)"/>
<path d="M0 0 C1.07721313 -0.00832352 2.15442627 -0.01664703 3.26428223 -0.02522278 C6.8197798 -0.04928615 10.37509373 -0.05809086 13.93066406 -0.06469727 C16.40920058 -0.07366685 18.88773655 -0.08278876 21.36627197 -0.09205627 C26.56125198 -0.10853923 31.75616759 -0.11624506 36.95117188 -0.11914062 C43.59333291 -0.12452144 50.23486972 -0.16219308 56.87688828 -0.20788479 C61.99686875 -0.23769365 67.11670331 -0.24486504 72.236763 -0.24586678 C74.68468259 -0.25006194 77.13260289 -0.26246775 79.58043671 -0.28338432 C83.01240737 -0.31037441 86.44297582 -0.30544913 89.875 -0.29296875 C91.37785553 -0.31522018 91.37785553 -0.31522018 92.91107178 -0.33792114 C100.67582919 -0.25790486 107.18723525 1.79258271 113.10967636 6.98342228 C119.65579634 13.73940421 120.53958232 21.93383386 120.45996094 30.98413086 C120.43482422 32.10110352 120.4096875 33.21807617 120.38378906 34.36889648 C120.37025391 35.52067383 120.35671875 36.67245117 120.34277344 37.85913086 C120.30771632 40.6753862 120.25857762 43.49063413 120.19628906 46.30639648 C121.00598145 46.29406982 121.81567383 46.28174316 122.64990234 46.26904297 C123.71966309 46.25945557 124.78942383 46.24986816 125.89160156 46.23999023 C126.94879395 46.22766357 128.00598633 46.21533691 129.09521484 46.20263672 C134.42897314 46.38110053 139.03249518 47.33433118 143.04785156 50.99389648 C146.93935988 55.42025666 148.32078479 58.05236663 148.30639648 64.00830078 C148.30697556 65.20944016 148.30755463 66.41057953 148.30815125 67.64811707 C148.30604141 68.96234146 148.30393158 70.27656586 148.30175781 71.63061523 C148.3126839 74.44509171 148.33019682 77.25952581 148.34667969 80.07397461 C148.37061122 84.48499389 148.38716169 88.89556678 148.37133789 93.30664062 C148.31462983 112.06662206 149.79833158 129.42532871 153.91235352 147.75488281 C156.78375848 161.14966287 156.78375848 161.14966287 154.258255 166.17170715 C151.76348376 169.4356424 149.19774111 171.46888326 145.19628906 172.30639648 C137.09603331 172.3605788 132.68800244 168.45938185 126.57128906 163.49389648 C124.74687012 162.04849415 122.92137822 160.60444491 121.09472656 159.16186523 C120.29728027 158.51886475 119.49983398 157.87586426 118.67822266 157.21337891 C117.85918457 156.58407471 117.04014648 155.95477051 116.19628906 155.30639648 C115.32746094 154.61734222 114.45863281 153.92828796 113.56347656 153.21835327 C109.54092288 150.93426638 106.3358762 150.75050928 101.83935547 150.80810547 C101.02227615 150.80258667 100.20519684 150.79706787 99.36335754 150.79138184 C97.59718854 150.78208866 95.83095252 150.78193444 94.06477737 150.78997612 C91.26414972 150.80264266 88.46450241 150.7912823 85.66390991 150.77394104 C80.72516071 150.74726268 75.78665282 150.74164428 70.84783936 150.74304199 C62.95080311 150.74527158 55.05406625 150.73102233 47.15714645 150.68745613 C44.40738773 150.67765784 41.6581043 150.68631507 38.90835571 150.69615173 C37.20957128 150.69000345 35.51078938 150.68309036 33.81201172 150.67529297 C33.05538742 150.68301224 32.29876312 150.69073151 31.51921082 150.69868469 C24.92462013 150.63657854 19.4679969 149.23240965 14.32128906 144.86889648 C11.0265268 140.89580082 9.94077964 138.28020648 10.00097656 133.10327148 C10.00742188 132.12358398 10.01386719 131.14389648 10.02050781 130.13452148 C10.03726563 129.11874023 10.05402344 128.10295898 10.07128906 127.05639648 C10.0803125 126.02514648 10.08933594 124.99389648 10.09863281 123.93139648 C10.12216895 121.38949362 10.15504883 118.84806368 10.19628906 116.30639648 C4.31906371 119.43308037 -0.73409018 123.22095304 -5.92871094 127.36889648 C-19.24423438 137.96228089 -19.24423438 137.96228089 -27.35839844 137.73217773 C-31.39269219 137.02972084 -33.07639277 135.3134396 -35.80371094 132.30639648 C-38.54113793 124.09411551 -36.03070468 115.54235762 -34.29681396 107.34658813 C-32.0414126 96.66052522 -30.13437103 86.29457172 -30.20214844 75.32592773 C-29.80371094 72.30639648 -29.80371094 72.30639648 -27.96777344 69.88061523 C-25.80371094 68.30639648 -25.80371094 68.30639648 -22.80371094 68.30639648 C-22.82650494 65.20060154 -22.90378912 62.09849165 -22.99121094 58.99389648 C-22.99701172 58.11282227 -23.0028125 57.23174805 -23.00878906 56.32397461 C-23.09226431 53.88464252 -23.21564109 51.67639226 -23.80371094 49.30639648 C-26.13680308 47.17021384 -26.13680308 47.17021384 -28.80371094 46.30639648 C-31.48730922 43.62279821 -30.13734851 35.96930813 -30.17871094 32.36889648 C-30.21609375 31.16942383 -30.25347656 29.96995117 -30.29199219 28.73413086 C-30.36908485 20.88352835 -29.46766092 14.78432068 -24.80371094 8.30639648 C-17.32999364 1.13889023 -10.04854463 0.00661286 0 0 Z " fill="#010101" transform="translate(196.8037109375,7.693603515625)"/>
<path d="M0 0 C49.5 0 99 0 150 0 C150 17.24488404 150 17.24488404 145.0625 23.8125 C144.35963867 24.83053711 144.35963867 24.83053711 143.64257812 25.86914062 C142.44957502 27.59427462 141.22704796 29.29891299 140 31 C137.75053997 35.49892007 138.77278073 41.65202437 138.75976562 46.65795898 C138.7500521 48.92533949 138.71902607 51.19181639 138.6875 53.45898438 C138.68097058 54.89843211 138.67571986 56.33788634 138.671875 57.77734375 C138.65785645 59.74562134 138.65785645 59.74562134 138.64355469 61.75366211 C138.72964338 64.92176405 138.72964338 64.92176405 140.27050781 66.82641602 C142.305193 68.26273294 142.305193 68.26273294 146 70 C146 76.27 146 82.54 146 89 C143.525 89.99 143.525 89.99 141 91 C135.76656051 96.23343949 138.36959835 105.60803309 138 113 C96.42 113 54.84 113 12 113 C12.1875 74.125 12.1875 74.125 12.33276367 61.96533203 C13.24212124 39.82895629 13.24212124 39.82895629 3.85258484 20.62332153 C-2.29287825 13.73988363 0 11.25975648 0 0 Z " fill="#675D67" transform="translate(329,376)"/>
<path d="M0 0 C49.5 0 99 0 150 0 C150 16.35278574 150 16.35278574 144.57421875 22.3671875 C134.27931789 36.40083355 137.61747635 57.80004574 137.8125 74.125 C137.874375 86.95375 137.93625 99.7825 138 113 C96.42 113 54.84 113 12 113 C12.125 74.0625 12.125 74.0625 12.24267578 61.87524414 C12.22945564 58.19514115 12.22945564 58.19514115 12.20309448 54.51512146 C12.19777656 52.9058253 12.21159052 51.29638193 12.24191284 49.68736267 C12.47827817 35.95577863 8.9673771 27.16292368 1 16 C0.67 15.67 0.34 15.34 0 15 C0 10.05 0 5.1 0 0 Z " fill="#675D67" transform="translate(33,376)"/>
<path d="M0 0 C1.31634682 -0.01073296 1.31634682 -0.01073296 2.6592865 -0.02168274 C3.62449722 -0.02437164 4.58970795 -0.02706055 5.58416748 -0.02983093 C6.59894669 -0.03640213 7.61372589 -0.04297333 8.65925598 -0.04974365 C12.0284329 -0.06950674 15.39756518 -0.08114618 18.76678467 -0.09111023 C19.91588066 -0.09518576 21.06497665 -0.09926128 22.24889374 -0.10346031 C28.3311902 -0.12433423 34.41346401 -0.13863004 40.49578857 -0.147995 C46.78188398 -0.1590601 53.06762547 -0.19345778 59.35359573 -0.23316669 C64.18345808 -0.25929963 69.0132357 -0.26768392 73.84316254 -0.27127647 C76.16041198 -0.27615127 78.47765742 -0.28779052 80.79483795 -0.30631447 C84.03870245 -0.3306337 87.28164618 -0.32975366 90.52557373 -0.32279968 C91.96124443 -0.34201477 91.96124443 -0.34201477 93.42591858 -0.36161804 C99.18626981 -0.31661708 102.41215176 0.3348385 106.81365967 4.14717102 C108.28331174 7.08647517 107.96537039 9.71443648 107.99066162 12.99604797 C107.99723282 13.70031921 108.00380402 14.40459045 108.01057434 15.13020325 C108.03031518 17.4652873 108.04197181 19.80030701 108.05194092 22.13545227 C108.05601645 22.93275442 108.06009197 23.73005657 108.064291 24.55151939 C108.08515543 28.77179582 108.09945532 32.9920397 108.10882568 37.21235657 C108.11988901 41.5704962 108.1542865 45.92812508 108.19399738 50.28608418 C108.2201495 53.63785752 108.22851626 56.98950895 108.23210716 60.34137535 C108.23697706 61.94773494 108.2486026 63.55408894 108.26714516 65.16034889 C108.29150728 67.41068031 108.2905777 69.65968741 108.28363037 71.91011047 C108.28949661 73.18981216 108.29536285 74.46951385 108.30140686 75.78799438 C107.72755332 79.74019637 106.64535237 81.3783848 103.81365967 84.14717102 C99.94010013 85.43835753 96.26811679 85.29981025 92.23065186 85.30488586 C91.3538829 85.30996658 90.47711395 85.3150473 89.57377625 85.32028198 C87.66839346 85.33098632 85.76299809 85.33960625 83.85759735 85.34640121 C80.83932433 85.35819137 77.82119432 85.37764548 74.80297852 85.39952087 C66.22081274 85.46112687 57.63866102 85.51514646 49.05633545 85.54853821 C43.80726993 85.5695113 38.55846425 85.60483788 33.30954742 85.64929581 C31.31136387 85.66343711 29.31313433 85.67217401 27.31490326 85.67535019 C24.51440856 85.68027197 21.71460026 85.7034634 18.91424561 85.73066711 C18.09320847 85.72766098 17.27217133 85.72465485 16.42625427 85.72155762 C9.20917133 85.82539884 4.0424832 87.97117703 -1.80743408 92.28388977 C-2.99176025 93.14917297 -2.99176025 93.14917297 -4.20001221 94.03193665 C-4.99987549 94.62683899 -5.79973877 95.22174133 -6.62384033 95.83467102 C-7.45077393 96.44117493 -8.27770752 97.04767883 -9.12969971 97.67256165 C-11.15318756 99.15801227 -13.17181558 100.64960019 -15.18634033 102.14717102 C-16.13543753 99.12247809 -16.18344671 97.18188395 -15.40899658 94.11982727 C-15.22466064 93.33728577 -15.04032471 92.55474426 -14.85040283 91.74848938 C-14.55262939 90.49177429 -14.55262939 90.49177429 -14.24884033 89.20967102 C-12.59928627 81.64150015 -11.7451059 74.33294538 -11.68634033 66.58467102 C-11.66837402 65.68691956 -11.65040771 64.78916809 -11.63189697 63.86421204 C-11.56148751 59.038704 -11.56148751 59.038704 -14.03009033 55.11982727 C-16.29275504 54.05512717 -16.29275504 54.05512717 -19.18634033 53.14717102 C-19.18634033 46.54717102 -19.18634033 39.94717102 -19.18634033 33.14717102 C-17.53634033 32.48717102 -15.88634033 31.82717102 -14.18634033 31.14717102 C-11.98339012 29.36057394 -11.98339012 29.36057394 -11.94683838 26.99580383 C-11.94724121 26.12278625 -11.94764404 25.24976868 -11.94805908 24.35029602 C-11.9319458 23.39123352 -11.91583252 22.43217102 -11.89923096 21.44404602 C-11.88243461 19.42848427 -11.87704469 17.41279207 -11.88360596 15.39717102 C-11.71215646 7.12335035 -11.71215646 7.12335035 -8.76837158 3.50654602 C-5.56268852 0.57729856 -4.19972894 0.02347087 0 0 Z " fill="#E6EBF0" transform="translate(193.18634033203125,22.852828979492188)"/>
<path d="M0 0 C1.36365283 0.95824253 2.70794169 1.94721175 4 3 C3.09965831 11.06070619 2.07324299 19.00163466 0.375 26.9375 C-1.69104597 36.34413331 -1.69104597 36.34413331 0.0625 45.625 C5.56970769 52.37577071 12.29098279 59.5727457 21 61.75 C28.9978299 59.75054252 36.70736785 52.9299158 41.9375 46.6875 C44.79898998 39.44961358 42.46453487 30.88372687 41.0625 23.5 C39.79294004 16.67218988 38.67854475 9.91401383 38 3 C42.07499115 -0.72818339 42.07499115 -0.72818339 45 -2 C47.03808594 -1.68823242 47.03808594 -1.68823242 49.171875 -0.85546875 C49.95812256 -0.55970947 50.74437012 -0.2639502 51.55444336 0.04077148 C52.7649939 0.5155896 52.7649939 0.5155896 54 1 C55.55779403 1.55174232 57.11638207 2.1012483 58.67578125 2.6484375 C60.22220456 3.22166939 61.76777993 3.79719401 63.3125 4.375 C64.09689453 4.6534375 64.88128906 4.931875 65.68945312 5.21875 C66.44806641 5.50492187 67.20667969 5.79109375 67.98828125 6.0859375 C68.66415283 6.3339209 69.34002441 6.5819043 70.03637695 6.83740234 C72 8 72 8 76 13 C76 30.49 76 47.98 76 66 C39.7 66 3.4 66 -34 66 C-34 13 -34 13 -30 8 C-26.04487628 5.75207189 -21.79600401 4.21700043 -17.5625 2.5625 C-16.43005859 2.09134766 -15.29761719 1.62019531 -14.13085938 1.13476562 C-13.03708984 0.69970703 -11.94332031 0.26464844 -10.81640625 -0.18359375 C-9.82068604 -0.58118896 -8.82496582 -0.97878418 -7.79907227 -1.38842773 C-4.42229657 -2.12622303 -3.01063136 -1.60375814 0 0 Z " fill="#E6EBF0" transform="translate(87,261)"/>
<path d="M0 0 C6.93677891 4.80844901 12.26977766 11.544598 14.75 19.6796875 C15.20349256 22.79487816 15.27477316 25.84725073 15.25 28.9921875 C15.24427979 29.83305908 15.23855957 30.67393066 15.23266602 31.5402832 C15.03947934 38.26018724 13.80718618 43.20455615 9.75 48.6796875 C9.02296875 49.74896484 9.02296875 49.74896484 8.28125 50.83984375 C3.17717487 57.53268737 -4.94713849 62.16573003 -13.25 63.6796875 C-24.21230113 64.95235571 -32.18858986 62.74749328 -41.25 56.6796875 C-47.20206303 51.57936773 -51.79544142 44.46020365 -53.25 36.6796875 C-53.9844126 24.54775626 -53.22666415 15.35272131 -45.26953125 5.75390625 C-32.78364331 -7.07009084 -15.40428482 -9.03931991 0 0 Z " fill="#010202" transform="translate(127.25,398.3203125)"/>
<path d="M0 0 C61.38 0 122.76 0 186 0 C186 6.27 186 12.54 186 19 C124.62 19 63.24 19 0 19 C0 12.73 0 6.46 0 0 Z " fill="#F6CD02" transform="translate(311,342)"/>
<path d="M0 0 C61.38 0 122.76 0 186 0 C186 6.27 186 12.54 186 19 C124.62 19 63.24 19 0 19 C0 12.73 0 6.46 0 0 Z " fill="#F6CD02" transform="translate(15,342)"/>
<path d="M0 0 C6.92218515 3.244158 9.56328544 9.4566291 13.125 15.9375 C13.7775543 17.10397406 14.43137797 18.26973883 15.08642578 19.43481445 C16.08491655 21.21243687 17.08173443 22.99086587 18.07260132 24.77275085 C20.19858668 28.59473704 22.38109352 32.37746968 24.609375 36.140625 C25.16222168 37.08043213 25.71506836 38.02023926 26.28466797 38.98852539 C27.31793915 40.74210428 28.35825223 42.49155962 29.40673828 44.23608398 C32.12507571 48.90416151 33.82113424 52.55835318 34 58 C32.53760971 61.21725864 30.71828138 63.73476552 28 66 C24.90913235 67.03028922 22.7469132 67.13880203 19.50634766 67.16113281 C18.38152985 67.17074036 17.25671204 67.1803479 16.09780884 67.19024658 C14.88217255 67.19449646 13.66653625 67.19874634 12.4140625 67.203125 C11.16499115 67.20882507 9.9159198 67.21452515 8.6289978 67.22039795 C5.98439897 67.22985098 3.3399137 67.23674638 0.6953125 67.24023438 C-2.68635086 67.245717 -6.06761115 67.26974456 -9.44914818 67.29820633 C-12.68221396 67.32135692 -15.91530043 67.32328384 -19.1484375 67.328125 C-20.36002533 67.3404718 -21.57161316 67.3528186 -22.81991577 67.36553955 C-23.9510379 67.36253845 -25.08216003 67.35953735 -26.24755859 67.35644531 C-27.2400058 67.36009094 -28.232453 67.36373657 -29.25497437 67.36749268 C-32.51170707 66.93149477 -34.36306071 65.93463385 -37 64 C-39.6791693 59.84266833 -40.39019405 56.89357284 -40 52 C-38.8293457 49.28125 -38.8293457 49.28125 -37.17578125 46.5 C-36.56532959 45.4579541 -35.95487793 44.4159082 -35.32592773 43.34228516 C-34.66149658 42.23933105 -33.99706543 41.13637695 -33.3125 40 C-32.62926314 38.84875316 -31.94706445 37.6968896 -31.26586914 36.54443359 C-29.87011692 34.18600667 -28.46749743 31.83183657 -27.06152344 29.47949219 C-25.10327996 26.19089664 -23.20632242 22.86967577 -21.3203125 19.5390625 C-20.46312622 18.04052734 -20.46312622 18.04052734 -19.58862305 16.51171875 C-18.51320239 14.63152153 -17.44648925 12.74630842 -16.38989258 10.85546875 C-12.54728422 4.22597605 -8.52884536 -1.42147423 0 0 Z " fill="#020101" transform="translate(407,394)"/>
<path d="M0 0 C2.14576637 -0.02685938 4.29162645 -0.04633088 6.4375 -0.0625 C7.63246094 -0.07410156 8.82742188 -0.08570312 10.05859375 -0.09765625 C13 0 13 0 14 1 C14.10258916 2.85225601 14.13571954 4.70839184 14.1418457 6.56347656 C14.15239738 8.35365204 14.15239738 8.35365204 14.16316223 10.17999268 C14.16732651 11.48700134 14.17149078 12.79401001 14.17578125 14.140625 C14.18621801 15.50137092 14.19764266 16.86210958 14.21000671 18.22283936 C14.26225252 23.99991977 14.31012609 29.77688936 14.32592773 35.55419922 C14.37442194 51.02270099 14.63715873 66.00771694 18.14916992 81.16699219 C19 85 19 85 19 89 C16.13706512 87.64842379 13.62534614 86.11081982 11.06640625 84.25 C10.33486328 83.7240625 9.60332031 83.198125 8.84960938 82.65625 C7.32743111 81.55393816 5.80659098 80.44977609 4.28710938 79.34375 C3.55427734 78.8178125 2.82144531 78.291875 2.06640625 77.75 C1.40584229 77.27046875 0.74527832 76.7909375 0.06469727 76.296875 C-5.00640013 73.1116238 -9.55643173 72.70144398 -15.44628906 72.69702148 C-16.70318542 72.68436249 -16.70318542 72.68436249 -17.98547363 72.67144775 C-20.74553003 72.64572794 -23.50547971 72.63354585 -26.265625 72.62109375 C-28.18423305 72.60491773 -30.10283288 72.58773763 -32.02142334 72.56959534 C-37.06469941 72.52395374 -42.10798641 72.48911809 -47.15136719 72.45739746 C-55.23838927 72.40546772 -63.32529119 72.34054888 -71.41216278 72.26918221 C-74.24239522 72.24628171 -77.07261213 72.23005794 -79.90289307 72.21446228 C-81.62569351 72.20106272 -83.3484923 72.18744854 -85.07128906 72.17358398 C-85.86400208 72.17097061 -86.65671509 72.16835724 -87.47344971 72.16566467 C-92.88635917 72.11364083 -92.88635917 72.11364083 -94 71 C-94.08631874 69.65732587 -94.10706473 68.31025678 -94.09765625 66.96484375 C-94.09443359 66.15595703 -94.09121094 65.34707031 -94.08789062 64.51367188 C-94.07951172 63.66353516 -94.07113281 62.81339844 -94.0625 61.9375 C-94.05798828 61.08349609 -94.05347656 60.22949219 -94.04882812 59.34960938 C-94.03700373 57.23304337 -94.01906769 55.11651315 -94 53 C-92.64269272 52.99453156 -92.64269272 52.99453156 -91.25796509 52.98895264 C-82.69606784 52.95095675 -74.13454703 52.89397309 -65.57291603 52.81609726 C-61.17213152 52.7767261 -56.771544 52.74448717 -52.37060547 52.72900391 C-48.11688917 52.71376857 -43.86371481 52.67920271 -39.61024094 52.63169098 C-37.99414172 52.61694764 -36.3779651 52.60896306 -34.76179886 52.60811615 C-24.89050419 52.59774871 -15.65479185 52.47671022 -7.5625 46.0703125 C-7.046875 45.42835937 -6.53125 44.78640625 -6 44.125 C-5.46375 43.48820312 -4.9275 42.85140625 -4.375 42.1953125 C-1.16786959 37.07483724 -0.68177252 31.88984197 -0.5859375 25.9765625 C-0.56657135 25.23038666 -0.5472052 24.48421082 -0.5272522 23.71542358 C-0.46787935 21.35206223 -0.4212422 18.98865103 -0.375 16.625 C-0.33678116 15.01430268 -0.2977272 13.40362494 -0.2578125 11.79296875 C-0.16221324 7.86213984 -0.078028 3.93121537 0 0 Z " fill="#D0DBE2" transform="translate(316,70)"/>
<path d="M0 0 C5.61 0 11.22 0 17 0 C18.30516479 13.57371382 14.84736435 20.12100429 7 31 C4.75053997 35.49892007 5.77278073 41.65202437 5.75976562 46.65795898 C5.7500521 48.92533949 5.71902607 51.19181639 5.6875 53.45898438 C5.68097058 54.89843211 5.67571986 56.33788634 5.671875 57.77734375 C5.6625293 59.08952881 5.65318359 60.40171387 5.64355469 61.75366211 C5.72964338 64.92176405 5.72964338 64.92176405 7.27050781 66.82641602 C9.305193 68.26273294 9.305193 68.26273294 13 70 C13 76.27 13 82.54 13 89 C10.525 89.99 10.525 89.99 8 91 C2.76656051 96.23343949 5.36959835 105.60803309 5 113 C-36.58 113 -78.16 113 -121 113 C-121 87.59 -121 62.18 -121 36 C-120.67 36 -120.34 36 -120 36 C-120 61.08 -120 86.16 -120 112 C-84.69 112 -49.38 112 -13 112 C-13.39424716 87.7528821 -13.39424716 87.7528821 -13.90087891 63.50805664 C-14.33923246 31.67250106 -14.33923246 31.67250106 -3 19 C-0.51752547 15.2762882 -0.55677028 12.13234385 -0.375 7.8125 C-0.25125 5.234375 -0.1275 2.65625 0 0 Z " fill="#524B53" transform="translate(462,376)"/>
<path d="M0 0 C4.83408227 4.18548423 8.53865425 9.70906701 9.43579102 16.10864258 C9.50977094 19.67744458 9.55695423 23.24287516 9.5625 26.8125 C9.59923828 28.04548828 9.63597656 29.27847656 9.67382812 30.54882812 C9.71295509 38.69158484 8.54116985 43.9097736 3 50 C-2.12276298 55.11270013 -6.13037711 56.1775244 -13.3125 56.3125 C-14.60800781 56.34988281 -15.90351563 56.38726562 -17.23828125 56.42578125 C-22.98708393 55.77508604 -26.62975963 52.87611474 -30.25 48.5 C-30.72953125 47.9328125 -31.2090625 47.365625 -31.703125 46.78125 C-36.12239652 40.71140719 -35.36759245 34.52421596 -35.375 27.25 C-35.39949219 25.99960938 -35.42398437 24.74921875 -35.44921875 23.4609375 C-35.47612237 14.97732899 -34.68234671 9.20212129 -29.03515625 2.7578125 C-19.5711691 -5.07574518 -10.92362424 -6.23945706 0 0 Z " fill="#D48753" transform="translate(417,169)"/>
<path d="M0 0 C4.96864628 3.45688778 8.83297818 8.18643455 10.75 13.9375 C11.0920684 18.473607 11.12055936 23.01515314 11.1875 27.5625 C11.23326172 28.80902344 11.27902344 30.05554688 11.32617188 31.33984375 C11.42611292 39.56977115 10.36499475 44.78265127 4.75 50.9375 C-0.19707236 55.98160374 -4.12284394 57.08059901 -11.0625 57.1875 C-17.15065522 57.09883755 -21.60637965 56.48902702 -26.15625 52.09765625 C-33.07850283 44.48034114 -33.5904891 39.35314003 -33.5625 29.1875 C-33.57861328 28.0325 -33.59472656 26.8775 -33.61132812 25.6875 C-33.61650575 16.61629655 -32.4750403 9.34149401 -26.10546875 2.484375 C-18.42201188 -3.92120167 -8.69895337 -4.86215264 0 0 Z " fill="#FBA48D" transform="translate(119.25,168.0625)"/>
<path d="M0 0 C5.61 0 11.22 0 17 0 C18.37992832 12.79569892 18.37992832 12.79569892 15.9284668 16.71166992 C14.98751639 17.83402057 14.03989567 18.95080026 13.08699036 20.0630188 C1.17677082 34.65264932 4.60284038 56.57490379 4.8125 74.125 C4.874375 86.95375 4.93625 99.7825 5 113 C-36.58 113 -78.16 113 -121 113 C-121 87.26 -121 61.52 -121 35 C-120.67 35 -120.34 35 -120 35 C-120 60.41 -120 85.82 -120 112 C-84.69 112 -49.38 112 -13 112 C-13.47265831 87.88748835 -13.47265831 87.88748835 -14.08105469 63.77832031 C-14.58196484 33.48780391 -14.58196484 33.48780391 -3.72070312 19.8984375 C1.03334621 13.83140913 0.27498831 7.42468424 0 0 Z " fill="#514A52" transform="translate(166,376)"/>
<path d="M0 0 C3.90225633 0.66115577 7.38862156 1.78230646 11.0625 3.25 C12.08472656 3.64703125 13.10695313 4.0440625 14.16015625 4.453125 C18.37998009 6.75168104 20.48961235 9.46883706 22 14 C22.08738898 15.6415845 22.11766621 17.28651622 22.11352539 18.93041992 C22.11344986 19.93123093 22.11337433 20.93204193 22.11329651 21.96318054 C22.10813522 23.04138565 22.10297394 24.11959076 22.09765625 25.23046875 C22.0962413 26.33602615 22.09482635 27.44158356 22.09336853 28.5806427 C22.08776514 32.11628917 22.07521204 35.65187262 22.0625 39.1875 C22.05748544 41.58268138 22.05292246 43.97786375 22.04882812 46.37304688 C22.03864494 52.24874181 22.01907007 58.12430025 22 64 C9.46 64 -3.08 64 -16 64 C-14.73422903 56.4053742 -13.46180981 49.51012802 -11.25 42.25 C-8.58967286 33.25027564 -6.23746837 24.19769198 -4.00488281 15.08300781 C-2.76424331 10.02290988 -1.47543188 4.99698157 0 0 Z " fill="#655C65" transform="translate(438,263)"/>
<path d="M0 0 C0.22550537 0.92558716 0.22550537 0.92558716 0.45556641 1.86987305 C3.79971516 15.54600068 7.39806205 29.11156663 11.31835938 42.6328125 C12.365283 46.26854725 13.3818475 49.91173659 14.375 53.5625 C14.69210937 54.71878906 15.00921875 55.87507813 15.3359375 57.06640625 C16 60 16 60 16 64 C3.46 64 -9.08 64 -22 64 C-22.0919139 56.84603482 -22.17153143 49.69412462 -22.21972656 42.54003906 C-22.23982071 40.10735119 -22.26710088 37.67471149 -22.30175781 35.2421875 C-22.3503706 31.74206645 -22.37299139 28.24258498 -22.390625 24.7421875 C-22.41127014 23.65759247 -22.43191528 22.57299744 -22.45318604 21.45553589 C-22.45500302 15.31756957 -22.16405668 11.64087899 -18 7 C-15.6328125 5.390625 -15.6328125 5.390625 -13.125 4.25 C-12.25101562 3.84910156 -11.37703125 3.44820313 -10.4765625 3.03515625 C-3.21509434 0 -3.21509434 0 0 0 Z " fill="#665C66" transform="translate(370,263)"/>
<path d="M0 0 C4.7175717 3.63955217 7.40387299 7.73393197 8.40625 13.6328125 C8.67453143 19.8830448 8.14863005 24.76344099 4.359375 29.8515625 C-0.28392259 34.77370041 -4.45064443 36.26136398 -10.94921875 36.6875 C-16.54128679 36.59395239 -20.61304757 34.71876895 -24.88671875 31.125 C-29.64513996 25.44133023 -30.80364967 20.82312294 -30.62109375 13.484375 C-29.65502339 7.40748079 -26.32759644 3.10674015 -21.51171875 -0.5625 C-14.43057152 -3.54403567 -6.78153211 -3.91399048 0 0 Z " fill="#29B9C5" transform="translate(119.13671875,410.5625)"/>
<path d="M0 0 C1.375 0.91666667 2.75 1.83333333 4.125 2.75 C4.95 3.29398437 5.775 3.83796875 6.625 4.3984375 C8.50069752 5.66329931 10.32382198 7.0061047 12.125 8.375 C15.90663798 10.51244755 17.69569619 10.71738397 22 10 C25.51937549 8.26549062 28.74844445 6.18906038 32 4 C32.65097656 3.57460938 33.30195313 3.14921875 33.97265625 2.7109375 C35.32499708 1.82216504 36.66444419 0.91380134 38 0 C33.28980254 21.595811 27.37670279 42.8448765 21 64 C19.68 64 18.36 64 17 64 C11.76143068 46.44958572 6.78091348 28.82249967 2.0625 11.125 C1.85109375 10.3407666 1.6396875 9.5565332 1.421875 8.74853516 C0.63095664 5.74829126 0 3.11722919 0 0 Z " fill="#E3E8ED" transform="translate(385,263)"/>
<path d="M0 0 C0.66 0 1.32 0 2 0 C4.24341683 3.91359225 6.48539939 7.82800126 8.72607422 11.74316406 C9.48805297 13.07411718 10.25041873 14.40484881 11.01318359 15.73535156 C12.11137818 17.65110692 13.20816485 19.5676623 14.3046875 21.484375 C14.6443454 22.07619568 14.9840033 22.66801636 15.33395386 23.277771 C16.97742367 26.15364932 18.51736247 29.03472494 20 32 C7.46 32 -5.08 32 -18 32 C-14.26717239 25.15648271 -10.53167997 18.31636142 -6.75 11.5 C-6.1003125 10.324375 -6.1003125 10.324375 -5.4375 9.125 C-5.01984375 8.3721875 -4.6021875 7.619375 -4.171875 6.84375 C-3.8015918 6.17537109 -3.43130859 5.50699219 -3.04980469 4.81835938 C-2.09941432 3.17219484 -1.05438272 1.58157409 0 0 Z " fill="#F6616B" transform="translate(403,414)"/>
<path d="M0 0 C2.31 0 4.62 0 7 0 C7.70279403 3.5596585 8.38451425 7.12304026 9.0625 10.6875 C9.26166016 11.69490234 9.46082031 12.70230469 9.66601562 13.74023438 C9.84970703 14.71669922 10.03339844 15.69316406 10.22265625 16.69921875 C10.48187866 18.04246216 10.48187866 18.04246216 10.74633789 19.4128418 C11.18692078 23.90644799 10.53900011 26.31127763 7.75 29.875 C5 32 5 32 2.5 32.125 C-1.01125339 30.54493597 -2.75719538 29.1663124 -5 26 C-5 22.67721849 -4.67695074 20.21106239 -4 17 C-3.7628125 15.73027344 -3.525625 14.46054687 -3.28125 13.15234375 C-1.27156334 2.54312668 -1.27156334 2.54312668 0 0 Z " fill="#635A63" transform="translate(105,274)"/>
<path d="M0 0 C5.61 0 11.22 0 17 0 C17 5.94 17 11.88 17 18 C11.39 18 5.78 18 0 18 C0 12.06 0 6.12 0 0 Z " fill="#FBA75B" transform="translate(480,342)"/>
<path d="M0 0 C5.61 0 11.22 0 17 0 C17 5.94 17 11.88 17 18 C11.39 18 5.78 18 0 18 C0 12.06 0 6.12 0 0 Z " fill="#FBA75B" transform="translate(184,342)"/>
<path d="M0 0 C5.94 0 11.88 0 18 0 C18.66 3.63 19.32 7.26 20 11 C18.45469287 12.23024451 16.88796799 13.4336242 15.3125 14.625 C14.44238281 15.29789063 13.57226562 15.97078125 12.67578125 16.6640625 C10 18 10 18 7.40625 17.375 C4.06054092 15.46316624 1.09084348 13.30298142 -2 11 C-1.34 7.37 -0.68 3.74 0 0 Z " fill="#C07642" transform="translate(395,240)"/>
<path d="M0 0 C5.94 0 11.88 0 18 0 C18.66 3.63 19.32 7.26 20 11 C18.45469287 12.23024451 16.88796799 13.4336242 15.3125 14.625 C14.44238281 15.29789063 13.57226562 15.97078125 12.67578125 16.6640625 C10 18 10 18 7.40625 17.375 C4.06054092 15.46316624 1.09084348 13.30298142 -2 11 C-1.34 7.37 -0.68 3.74 0 0 Z " fill="#F18979" transform="translate(99,240)"/>
</svg>
