<?xml version="1.0" standalone="no"?>
<!DOCTYPE svg PUBLIC "-//W3C//DTD SVG 20010904//EN"
 "http://www.w3.org/TR/2001/REC-SVG-20010904/DTD/svg10.dtd">
<svg version="1.0" xmlns="http://www.w3.org/2000/svg"
 width="137.000000pt" height="90.000000pt" viewBox="0 0 137.000000 90.000000"
 preserveAspectRatio="xMidYMid meet">

<g transform="translate(0.000000,90.000000) scale(0.100000,-0.100000)"
fill="#000000" stroke="none">
<path d="M150 480 c-18 -18 -20 -33 -20 -144 0 -152 3 -156 96 -156 61 0 69
-3 117 -40 l52 -39 3 39 3 40 48 0 c26 0 52 5 59 12 8 8 12 56 12 150 0 126
-2 138 -19 148 -11 6 -87 10 -175 10 -143 0 -158 -2 -176 -20z m338 -23 c9
-10 12 -50 10 -128 l-3 -114 -62 -3 c-60 -3 -63 -4 -63 -29 l0 -25 -34 25
c-27 21 -47 27 -102 29 l-69 3 -3 119 c-2 71 1 122 7 125 6 4 77 8 159 10 121
2 150 0 160 -12z"/>
<path d="M263 384 c-8 -21 13 -42 28 -27 13 13 5 43 -11 43 -6 0 -13 -7 -17
-16z"/>
<path d="M363 384 c-8 -21 13 -42 28 -27 13 13 5 43 -11 43 -6 0 -13 -7 -17
-16z"/>
<path d="M250 294 c0 -21 65 -47 100 -39 31 7 67 41 56 52 -4 4 -16 2 -26 -5
-24 -15 -86 -16 -95 -2 -10 16 -35 12 -35 -6z"/>
</g>
</svg>
