<?xml version="1.0" encoding="UTF-8"?>
<svg version="1.1" xmlns="http://www.w3.org/2000/svg" width="2236" height="1886">
<path d="M0 0 C2.09085491 2.18055134 3.60405486 4.07883477 5.25 6.5625 C5.72542236 7.24505859 6.20084473 7.92761719 6.69067383 8.63085938 C8.15005553 10.73931315 9.57867078 12.86575327 11 15 C11.40202637 15.59796387 11.80405273 16.19592773 12.21826172 16.81201172 C13.78251282 19.13950606 15.33931052 21.47159721 16.88232422 23.81323242 C23.38927232 33.67685955 30.22128261 43.32227355 37 53 C37.55510254 53.7926123 38.11020508 54.58522461 38.68212891 55.40185547 C45.81887736 65.57961565 53.06955644 75.67259452 60.36328125 85.73828125 C61.98509064 87.97939733 63.60265132 90.22351315 65.21875 92.46875 C76.98340443 108.80914363 88.94196082 124.98498528 101.171875 140.98046875 C104.59984031 145.4670704 107.99502202 149.97718351 111.375 154.5 C115.72883468 160.32252824 120.12944888 166.10601076 124.57421875 171.859375 C126.20545136 173.97130901 127.8337685 176.08509845 129.45703125 178.203125 C135.12253837 185.59320846 140.85366823 192.92922553 146.61767578 200.24267578 C147.97656619 201.97020902 149.33083709 203.70125465 150.68359375 205.43359375 C157.13269682 213.68539424 163.70390573 221.83170429 170.32519531 229.94580078 C172.58196396 232.71379661 174.83272044 235.48665198 177.08349609 238.25952148 C182.00937802 244.32775195 186.94373323 250.38885454 191.8984375 256.43359375 C193.32316165 258.17345205 194.74494709 259.91572016 196.1640625 261.66015625 C200.68843427 267.21570109 205.2776031 272.70946701 209.91796875 278.16796875 C212.7782182 281.5381234 215.59241234 284.9400841 218.375 288.375 C223.02027055 294.08015403 227.84156796 299.62378615 232.671875 305.171875 C235.81941722 308.78734452 238.94519655 312.42094841 242.0625 316.0625 C242.55194092 316.63371582 243.04138184 317.20493164 243.5456543 317.79345703 C246.05705211 320.72569709 248.56403582 323.66161476 251.06640625 326.6015625 C256.53315376 333.01568239 262.06989988 339.33808745 267.765625 345.55078125 C270.29649006 348.32499872 272.76639391 351.14707121 275.23046875 353.98046875 C278.77578088 358.02666383 282.39522905 362.00683622 286 366 C287.50028679 367.66640851 289.00028872 369.33307353 290.5 371 C291.24507812 371.82757812 291.99015625 372.65515625 292.7578125 373.5078125 C294.23292618 375.14739879 295.70691652 376.78799655 297.1796875 378.4296875 C301.72956019 383.49769516 306.31328086 388.5332259 310.92236328 393.54736328 C313.72113361 396.5949996 316.49461583 399.66314105 319.25 402.75 C325.06119225 409.22296503 331.04100639 415.53795369 337.00195312 421.87255859 C339.00063968 424.00068111 340.99340892 426.13418587 342.984375 428.26953125 C351.77058844 437.69529077 351.77058844 437.69529077 360.875 446.8125 C362.63103895 448.62018716 364.24559125 450.45637119 365.875 452.375 C371.55909014 458.91958139 377.84111759 464.90782028 384 471 C397.93821663 484.78726121 397.93821663 484.78726121 403.12548828 490.89404297 C407.27967367 495.56114419 411.77219695 499.91880135 416.19702148 504.32739258 C417.933936 506.058947 419.66543889 507.79578359 421.39648438 509.53320312 C427.99494052 516.16909424 427.99494052 516.16909424 434.94140625 522.43359375 C442.00093509 528.45433028 448.35336339 535.30248781 454.87304688 541.89355469 C463.85112136 550.99464029 463.85112136 550.99464029 473.3359375 559.55859375 C476.03497898 561.89649587 478.50898981 564.44464012 481 567 C484.91253596 570.96663765 488.89561196 574.74585151 493.140625 578.359375 C495.81013696 580.71482673 498.2780701 583.25228689 500.75 585.8125 C502.69436124 587.7028512 504.67912117 589.48168855 506.7265625 591.2578125 C511.05387133 595.01642364 515.21933723 598.92859468 519.375 602.875 C529.67842074 613.06132353 529.67842074 613.06132353 541 622 C541.44279297 621.58226318 541.88558594 621.16452637 542.34179688 620.73413086 C544.39314917 618.80044849 546.44656317 616.86896851 548.5 614.9375 C549.54414062 613.95233398 549.54414062 613.95233398 550.609375 612.94726562 C554.03268832 609.72998505 557.4794362 606.55628002 561.02734375 603.4765625 C565.1423789 599.90329824 569.10854218 596.18729557 573.0625 592.4375 C574.55048574 591.03093732 576.0387732 589.62469377 577.52734375 588.21875 C578.27097168 587.51621094 579.01459961 586.81367187 579.78076172 586.08984375 C583.80583894 582.299452 587.85714664 578.5370204 591.91430664 574.78100586 C594.81295653 572.08660805 597.65280697 569.3552048 600.4296875 566.53515625 C602.8265936 564.1166054 605.29156223 561.84289316 607.875 559.625 C612.48508465 555.64558204 616.73235656 551.34047012 621 547 C622.51827606 545.45581479 624.03908735 543.91411794 625.5625 542.375 C626.55443359 541.36566406 626.55443359 541.36566406 627.56640625 540.3359375 C629.46506289 538.51347094 631.38089554 536.81549088 633.38256836 535.11303711 C640.00951677 529.35052748 646.11541258 523.02810642 652.31640625 516.81640625 C653.70053281 515.4329546 655.08480768 514.04965132 656.46922302 512.66648865 C659.35960842 509.77757138 662.2481934 506.88686924 665.13549805 503.99487305 C668.81924045 500.30543392 672.50745488 496.62050324 676.1970377 492.93690586 C679.05316293 490.08441018 681.90688238 487.22951723 684.75990105 484.37391472 C686.11821232 483.01494079 687.47725453 481.65669701 688.83706856 480.29922676 C698.00826362 471.16743362 698.00826362 471.16743362 706.66758728 461.55479431 C708.46959943 459.45202375 710.40056878 457.5028893 712.375 455.5625 C713.13296875 454.81226563 713.8909375 454.06203125 714.671875 453.2890625 C716.22395833 451.76302083 717.77604167 450.23697917 719.328125 448.7109375 C723.54770485 444.53441459 727.5757978 440.27988966 731.4453125 435.77734375 C734.24813588 432.57311099 737.32715214 429.65514134 740.375 426.6875 C743.07866804 423.91945891 745.60122703 421.04161164 748.13476562 418.11914062 C751.25077839 414.57895858 754.50366055 411.17029991 757.75 407.75 C764.23262991 400.89108937 770.64066823 393.97320391 777 387 C777.9565022 385.959149 778.91354628 384.91879573 779.87109375 383.87890625 C784.3713508 378.98970059 788.83819861 374.07991959 793.19140625 369.05859375 C795.4301125 366.5104335 797.71410212 364.00589407 800 361.5 C805.00801551 356.0032142 809.92210989 350.43999706 814.74609375 344.78125 C815.7680638 343.58319225 816.79020431 342.3852799 817.8125 341.1875 C818.32965576 340.58147949 818.84681152 339.97545898 819.37963867 339.35107422 C822.5847653 335.60967738 825.85193729 331.93901522 829.1875 328.3125 C833.23420969 323.90378433 837.02753715 319.33934325 840.78515625 314.68359375 C842.95632827 312.05291443 845.20241357 309.52057576 847.5 307 C851.34191939 302.77986056 854.96115221 298.41972816 858.55078125 293.984375 C861.31811135 290.61238107 864.15161766 287.3034785 867 284 C871.25094281 279.06348554 875.43126398 274.08033026 879.5390625 269.0234375 C881.99865278 266.00165516 884.4745537 262.99396768 886.9543457 259.98876953 C896.69684234 248.18120801 906.41437987 236.35775927 915.83447266 224.29052734 C919.3540191 219.7926922 922.94898514 215.36004214 926.5625 210.9375 C931.26164189 205.17956065 935.8523244 199.35927059 940.359375 193.44921875 C942.85434134 190.17912654 945.38648762 186.93887031 947.92016602 183.69873047 C954.17637728 175.69416786 960.31559705 167.61111292 966.38891602 159.46704102 C970.5644069 153.87970518 974.81852721 148.36179642 979.125 142.875 C984.84766057 135.57044627 990.31870771 128.11142447 995.71875 120.56640625 C999.10073569 115.84402419 1002.54607321 111.1699035 1006 106.5 C1016.3521587 92.48377849 1026.51107778 78.33594998 1036.53369141 64.08251953 C1037.97111063 62.04103003 1039.4124995 60.00241328 1040.85546875 57.96484375 C1054.43774664 38.78091357 1067.79683119 19.44659409 1081 0 C1091.39520622 0.61340812 1101.56886302 2.25358836 1111.83203125 3.92749023 C1113.70900034 4.23018186 1115.58603155 4.53248851 1117.46311951 4.83444214 C1122.52727993 5.6503662 1127.59047782 6.47211823 1132.65345764 7.29533267 C1136.88589816 7.98299265 1141.11878857 8.66786071 1145.35167503 9.35276943 C1155.33165694 10.96767959 1165.31084579 12.58742494 1175.28955078 14.21020508 C1185.58373122 15.88420097 1195.87922171 17.54995459 1206.17538357 19.21171612 C1215.02649405 20.64054939 1223.87677148 22.07446129 1232.72639561 23.51247174 C1238.00761007 24.37058395 1243.28912102 25.22675265 1248.57144165 26.07803154 C1253.53006508 26.87737038 1258.48761904 27.68303639 1263.44441414 28.49363327 C1265.26456047 28.79019315 1267.08507536 29.08450091 1268.90597343 29.37640953 C1271.38789456 29.77465114 1273.8683646 30.18094941 1276.34863281 30.58934021 C1277.4336343 30.7605076 1277.4336343 30.7605076 1278.540555 30.93513292 C1282.00741928 31.5148627 1284.96727188 32.18283422 1288 34 C1285.56259472 35.21870264 1283.59367243 35.35515608 1280.87802124 35.64501953 C1279.79299316 35.76274719 1278.70796509 35.88047485 1277.59005737 36.00177002 C1276.39422028 36.12751404 1275.19838318 36.25325806 1273.96630859 36.3828125 C1272.08319977 36.58544708 1272.08319977 36.58544708 1270.16204834 36.79217529 C1266.71168838 37.16338539 1263.26083584 37.52982166 1259.80988264 37.89546967 C1256.19648664 38.27918701 1252.58357391 38.66740021 1248.97061157 39.05517578 C1242.11691742 39.79010799 1235.26281989 40.5212037 1228.40855944 41.25083351 C1218.37106295 42.31948117 1208.33416298 43.39370501 1198.29728127 44.46810913 C1196.81274046 44.62701543 1195.32819952 44.78592047 1193.84365845 44.94482422 C1192.75564499 45.06129586 1192.75564499 45.06129586 1191.64565146 45.18012047 C1187.34779486 45.6400735 1183.04981799 46.09888175 1178.75172877 46.55665588 C1176.71652028 46.77347567 1174.68134406 46.99059578 1172.6461792 47.20782471 C1170.17188492 47.47186333 1167.69753394 47.73537142 1165.22311401 47.99822998 C1163.08222215 48.2269544 1160.94163596 48.45856929 1158.8014555 48.69385719 C1157.03548931 48.88684182 1155.26861543 49.07184626 1153.50064564 49.24551964 C1149.4004223 49.57895846 1149.4004223 49.57895846 1146.04467773 51.76806641 C1145.59552002 52.53812012 1145.1463623 53.30817383 1144.68359375 54.1015625 C1144.15507813 54.97240479 1143.6265625 55.84324707 1143.08203125 56.74047852 C1142.53933594 57.69237061 1141.99664063 58.6442627 1141.4375 59.625 C1140.21923551 61.64821288 1138.99912379 63.6703144 1137.77734375 65.69140625 C1136.84510986 67.25979248 1136.84510986 67.25979248 1135.89404297 68.85986328 C1132.88824673 73.84317744 1129.69712401 78.70056203 1126.5 83.5625 C1125.56305298 84.99541382 1125.56305298 84.99541382 1124.60717773 86.45727539 C1109.34136119 109.7911796 1093.69573372 132.86550501 1077.64355469 155.66552734 C1076.06527628 157.90728286 1074.48949698 160.15077662 1072.9140625 162.39453125 C1063.3264189 176.03265334 1053.62641953 189.58641393 1043.58544922 202.89526367 C1040.31840823 207.2283861 1037.09315094 211.58982469 1033.88745117 215.96850586 C1026.94935193 225.44195706 1019.81687612 234.74373214 1012.57373047 243.98535156 C1010.3021911 246.89331664 1008.05628442 249.82060227 1005.8125 252.75 C1001.05572886 258.94468399 996.23431201 265.08661165 991.39990234 271.22070312 C989.98864611 273.01443097 988.5816102 274.81139121 987.17578125 276.609375 C982.33058067 282.80257087 977.44252406 288.95155678 972.4453125 295.0234375 C969.44907399 298.670616 966.47440721 302.33501377 963.5 306 C961.83646393 308.04785213 960.17266405 310.09548964 958.50878906 312.14306641 C957.19040211 313.76566368 955.87250355 315.38865777 954.5546875 317.01171875 C950.12549151 322.4489934 945.62616354 327.82079579 941.08544922 333.16479492 C938.18709058 336.58097069 935.32826521 340.02527418 932.5 343.5 C924.52068512 353.29343975 916.27717617 362.86670171 908.046875 372.44921875 C905.9903355 374.84388299 903.93862686 377.24256169 901.890625 379.64453125 C897.42228669 384.88064468 892.94582096 390.09567332 888.3125 395.1875 C885.35867819 398.43670399 882.55550252 401.75874685 879.8125 405.1875 C874.90996514 411.25320218 869.57741963 416.88164977 864.23046875 422.5546875 C861.2871576 425.68043182 858.43169781 428.86873161 855.62890625 432.12109375 C852.14838191 436.13579929 848.55963476 440.05553986 845 444 C844.278125 444.804375 843.55625 445.60875 842.8125 446.4375 C837.38355388 452.4868971 831.90199901 458.48671886 826.40283203 464.47216797 C825.02643728 465.97120702 823.65158261 467.47164076 822.27734375 468.97265625 C811.52961453 480.71170908 800.72456033 492.3958789 789.8515625 504.01904297 C787.93026172 506.07461187 786.01190907 508.13290568 784.09375 510.19140625 C772.17882339 522.96047073 772.17882339 522.96047073 766.125 528.8125 C764.26215925 530.73013019 762.52430907 532.69346243 760.78125 534.71875 C756.2254971 539.96417978 751.27025448 544.77930285 746.31640625 549.64453125 C745.60355469 550.34964844 744.89070313 551.05476563 744.15625 551.78125 C743.20975586 552.7103418 743.20975586 552.7103418 742.24414062 553.65820312 C740.34444954 555.64056136 738.55111785 557.66145989 736.75976562 559.74023438 C732.92494955 564.15064314 728.84218312 568.26758656 724.6875 572.375 C723.91494873 573.14376465 723.14239746 573.9125293 722.34643555 574.70458984 C719.07623964 577.9585983 715.8000651 581.20656266 712.52441406 584.45507812 C710.11834715 586.84295352 707.71536962 589.23390793 705.3125 591.625 C704.58313232 592.34606934 703.85376465 593.06713867 703.10229492 593.81005859 C699.84049735 597.05641169 696.67149877 600.32579553 693.67553711 603.82006836 C689.01430161 609.22562841 683.92843616 614.21571591 678.87890625 619.25390625 C677.80933836 620.32414967 676.73991879 621.39454134 675.67063904 622.46507263 C673.44081776 624.69635913 671.2092216 626.92585057 668.97631836 629.15405273 C666.13435568 631.99031888 663.29690758 634.83105231 660.46078587 637.67315769 C658.25681774 639.88076333 656.05044381 642.08595221 653.84336662 644.29044914 C652.79699551 645.33615979 651.75134826 646.38259535 650.70648384 647.42981148 C645.60594142 652.53931618 640.46732007 657.53632584 634.98472595 662.23765564 C630.91765011 665.84902988 627.13832983 669.76192086 623.3125 673.625 C622.41055908 674.53072754 621.50861816 675.43645508 620.5793457 676.36962891 C617.71711436 679.24399569 614.85804198 682.1214694 612 685 C608.23225667 688.79475338 604.46084455 692.58581381 600.6875 696.375 C599.83518799 697.23561035 598.98287598 698.0962207 598.10473633 698.98291016 C593.79588393 703.30923836 589.41553263 707.4608795 584.78466797 711.44018555 C582.22584387 713.67661881 579.85626922 716.04942075 577.46875 718.46875 C576.98853394 718.95275269 576.50831787 719.43675537 576.0135498 719.9354248 C574.50650593 721.45447309 573.00281314 722.97676688 571.5 724.5 C565.72703772 730.35140434 559.97998396 736.1583714 553.72460938 741.50244141 C551.19222435 743.70142919 548.85519018 746.04959885 546.5 748.4375 C545.21609375 749.73494141 545.21609375 749.73494141 543.90625 751.05859375 C542.96265625 752.01958984 542.96265625 752.01958984 542 753 C537.39233893 751.57947492 534.59485455 748.97546823 531.32421875 745.58203125 C530.79536575 745.04656174 530.26651276 744.51109222 529.72163391 743.95939636 C528.03629951 742.2507539 526.36144623 740.53229454 524.6875 738.8125 C522.48694408 736.56518507 520.28202546 734.32222228 518.07421875 732.08203125 C517.26946609 731.26425705 517.26946609 731.26425705 516.44845581 730.42996216 C513.14196151 727.09055595 509.72903064 723.96480438 506.14770508 720.9206543 C500.25882902 715.6543376 494.82369096 709.86908243 489.27246094 704.25195312 C487.57962012 702.54082693 485.88362463 700.8328703 484.1875 699.125 C483.68516846 698.61437012 483.18283691 698.10374023 482.6652832 697.57763672 C480.03998539 694.9347884 477.35631563 692.42781931 474.51734924 690.0153656 C468.94881648 685.15898098 463.77070224 679.91068491 458.55444336 674.68383789 C457.42198445 673.55273654 456.28931347 672.42184748 455.15644836 671.29115295 C452.10049847 668.23973515 449.04768806 665.18519489 445.99559474 662.12992024 C442.78930261 658.92108259 439.58055564 655.71470116 436.37220764 652.50791931 C430.98649235 647.12401933 425.60287974 641.73802355 420.22045898 636.35083008 C414.01253454 630.13746425 407.80101605 623.92770887 401.58761877 617.71981627 C396.23692389 612.37367071 390.8881944 607.02556468 385.54107958 601.67583841 C382.3545226 598.48772866 379.16730874 595.3002835 375.97831535 592.11461067 C372.97926277 589.11846329 369.98269856 586.11984854 366.98797417 583.11937523 C365.89362349 582.0237111 364.79843735 580.92888065 363.7023201 579.83498383 C358.42824733 574.57060441 353.22125861 569.29062682 348.38842869 563.6121664 C346.36232134 561.2595629 344.17931698 559.08470221 341.96875 556.90625 C341.07542969 556.02066406 340.18210937 555.13507812 339.26171875 554.22265625 C338.35035156 553.32417969 337.43898438 552.42570312 336.5 551.5 C331.00760181 546.08528779 325.61389768 540.67785692 320.59570312 534.81835938 C318.03734067 531.90301612 315.27290266 529.20931165 312.5 526.5 C308.37785696 522.42935449 304.42276184 518.30998672 300.671875 513.890625 C297.99100126 510.85898273 295.07530129 508.0675006 292.1953125 505.2265625 C289.55993257 502.55366826 287.12233511 499.74631697 284.6796875 496.8984375 C282.50773991 494.44363162 280.18288676 492.1699983 277.84423828 489.87548828 C276.06083785 488.06186872 274.39287262 486.19349331 272.734375 484.265625 C269.1694858 480.16562559 265.48200999 476.19761981 261.75 472.25 C253.66223471 463.65674938 245.60476633 455.04396115 237.875 446.125 C235.45449892 443.38176544 232.9779759 440.69117094 230.5 438 C226.87593051 434.06371049 223.30281893 430.09218822 219.80078125 426.046875 C217.61224335 423.55925274 215.36760809 421.12646548 213.125 418.6875 C209.83567762 415.08608829 206.67982364 411.42692725 203.625 407.625 C200.23614031 403.421856 196.68760734 399.43796823 193 395.5 C188.50041006 390.69453707 184.26896753 385.7483902 180.14453125 380.61328125 C178.00125044 378.00152377 175.7761967 375.49634698 173.5 373 C169.67829137 368.80270966 166.08525811 364.46289769 162.515625 360.05078125 C159.57074449 356.47942771 156.54264851 352.98802106 153.5 349.5 C149.05423499 344.39701833 144.68736329 339.24708907 140.42578125 333.98828125 C137.38782781 330.24587483 134.31821752 326.53009996 131.25 322.8125 C125.54487513 315.89186872 119.87407424 308.94426063 114.2265625 301.9765625 C112.03991585 299.27885541 109.84673266 296.58666031 107.6484375 293.8984375 C101.80804166 286.74976573 96.06032813 279.54994464 90.4609375 272.2109375 C87.84113546 268.78049567 85.17261989 265.38935736 82.5 262 C77.79062601 256.01985554 73.12507652 250.007417 68.50048828 243.96142578 C67.41107052 242.53734796 66.32078739 241.11393201 65.22998047 239.69091797 C56.27134832 228.00030143 47.42949227 216.2336447 38.7265625 204.3515625 C36.96979346 201.95885896 35.20491305 199.57234993 33.4375 197.1875 C26.31267379 187.56820509 19.31786005 177.87081087 12.45019531 168.06640625 C10.54534253 165.35215138 8.62854368 162.64644618 6.71166992 159.94067383 C4.674038 157.06103399 2.64438493 154.17580437 0.61474609 151.29052734 C-0.46034572 149.76550295 -1.53814153 148.24238114 -2.61865234 146.72119141 C-12.67010905 132.56590285 -22.26540968 118.12341679 -31.8125 103.625 C-32.43188446 102.68441742 -33.05126892 101.74383484 -33.68942261 100.77474976 C-40.69924584 90.12291438 -47.6730716 79.44866614 -54.5859375 68.73364258 C-57.48673898 64.23998647 -60.40549121 59.75771292 -63.35539246 55.29611206 C-66 51.22444106 -66 51.22444106 -66 49 C-66.97271851 48.96112167 -67.94543701 48.92224335 -68.94763184 48.88218689 C-83.41037248 48.22810075 -97.76599744 46.67255127 -112.15625 45.12890625 C-114.15921247 44.91555664 -116.16222592 44.70269 -118.16523981 44.48982376 C-124.42557443 43.82433334 -130.68535318 43.15378512 -136.94482422 42.48022461 C-143.39379782 41.78639121 -149.84378901 41.1026461 -156.29431581 40.42341858 C-161.86052345 39.83688 -167.425983 39.24358089 -172.99090147 38.64493507 C-176.3035249 38.28868779 -179.61645698 37.93597349 -182.93000793 37.58844185 C-186.60468137 37.20213809 -190.27799568 36.80479616 -193.95117188 36.40454102 C-195.59512688 36.23534401 -195.59512688 36.23534401 -197.27229309 36.06272888 C-198.76456673 35.89669662 -198.76456673 35.89669662 -200.2869873 35.72731018 C-201.15406059 35.63458611 -202.02113388 35.54186205 -202.91448212 35.44632816 C-205 35 -205 35 -207 33 C-162.51990394 25.51650482 -118.01777048 18.16674194 -73.50143641 10.90212405 C-72.46052748 10.73225782 -72.46052748 10.73225782 -71.39859009 10.55895996 C-70.70556142 10.44586845 -70.01253276 10.33277694 -69.29850322 10.21625841 C-64.39254739 9.41544456 -59.48700723 8.61211652 -54.58163452 7.80773926 C-47.89480031 6.71130563 -41.20714474 5.62002378 -34.51891136 4.53215218 C-32.02500293 4.12574378 -29.53135688 3.71772163 -27.03798866 3.30801201 C-23.60415828 2.74410324 -20.16941486 2.18612526 -16.734375 1.62963867 C-15.72818965 1.46302105 -14.7220043 1.29640343 -13.68532848 1.12473679 C-3.97038172 -0.43613085 -3.97038172 -0.43613085 0 0 Z " fill="#E21D23" transform="translate(581,1055)"/>
<path d="M0 0 C1.6314093 0.00090637 1.6314093 0.00090637 3.29577637 0.00183105 C22.55283966 0.03065373 41.68517187 0.57047188 60.875 2.1875 C61.60581787 2.2483075 62.33663574 2.30911499 63.08959961 2.37176514 C148.12971331 9.53040277 231.91793539 31.21268463 312.04248047 68.84912109 C314.9202905 70.20889998 317.80540475 71.55223867 320.69140625 72.89453125 C334.04800323 79.1462214 347.04898322 85.91126138 359.875 93.1875 C360.98117676 93.81398438 362.08735352 94.44046875 363.22705078 95.0859375 C381.3095942 105.36147424 398.7375229 116.40512325 415.875 128.1875 C416.69387695 128.74775879 417.51275391 129.30801758 418.35644531 129.88525391 C444.58231891 147.88060649 469.66026471 167.86400683 492.9609375 189.51953125 C495.11556867 191.49220295 497.28935138 193.40737599 499.50415039 195.30957031 C504.09784463 199.3247381 508.41552442 203.58385886 512.72265625 207.90234375 C513.94594887 209.12420128 513.94594887 209.12420128 515.19395447 210.3707428 C516.90698008 212.08309193 518.61875965 213.79668842 520.3293457 215.51147461 C522.93003552 218.11752015 525.53601956 220.71818522 528.14257812 223.31835938 C529.81542486 224.99186699 531.48796134 226.66568482 533.16015625 228.33984375 C533.93013443 229.1077977 534.70011261 229.87575165 535.49342346 230.66697693 C540.15517096 235.34873234 544.57024593 240.17728939 548.875 245.1875 C550.32945517 246.79518373 551.78720895 248.39989715 553.25 250 C557.98115345 255.24887226 562.43376785 260.69312076 566.875 266.1875 C567.88582767 267.41870087 568.89760049 268.64912618 569.91015625 269.87890625 C576.96277538 278.46377818 583.78325436 287.18610212 590.36572266 296.13671875 C591.36988162 297.50115345 592.3773612 298.86315069 593.38818359 300.22265625 C612.33008567 325.71230169 629.17929726 352.82223037 644.43359375 380.6640625 C644.81370605 381.3329248 645.19381836 382.00178711 645.58544922 382.69091797 C646.875 385.1875 646.875 385.1875 648.34033203 388.81298828 C651.08053164 395.26603682 653.63403508 400.32262531 660.28477478 403.21768188 C664.09946943 404.60265122 667.96931252 405.71663382 671.875 406.8125 C673.61968785 407.34916764 675.36247989 407.89202981 677.10351562 408.44042969 C681.04608229 409.67550063 684.99650885 410.88007639 688.953125 412.06933594 C700.62551433 415.60718726 712.19768263 419.46570146 723.78321838 423.27622414 C728.17154506 424.71855484 732.56391363 426.14755601 736.96051788 427.56445122 C739.72641645 428.45664665 742.49040168 429.35467027 745.2540741 430.25373459 C746.5569569 430.67609105 747.86067434 431.09588202 749.16523743 431.51301956 C750.95808187 432.08674762 752.74769563 432.67054256 754.53710938 433.25488281 C755.54817749 433.58127747 756.55924561 433.90767212 757.60095215 434.24395752 C759.875 435.1875 759.875 435.1875 760.875 437.1875 C737.46554145 437.71052129 714.05605204 438.23214157 690.64652538 438.75210571 C679.77646104 438.99358023 668.90640716 439.23550875 658.03637695 439.47851562 C648.55925097 439.69038202 639.08210627 439.90138684 629.60493833 440.11136818 C624.58944219 440.22252407 619.57395632 440.33410386 614.55849266 440.44671631 C609.83163345 440.55283506 605.1047499 440.65779623 600.37784576 440.76189423 C598.64895759 440.80016823 596.92007848 440.83885434 595.19120979 440.87799835 C586.41853803 441.07638818 577.65063309 441.25120651 568.875 441.1875 C568.55786041 440.59241135 568.24072083 439.99732269 567.91397095 439.38420105 C548.07285337 402.19748786 525.28531218 367.04806344 498.875 334.1875 C498.12992188 333.259375 497.38484375 332.33125 496.6171875 331.375 C485.24448616 317.35274459 473.48298365 303.53550516 460.56103516 290.90771484 C458.83548011 289.14717895 457.24462638 287.31570272 455.6484375 285.4375 C452.09583618 281.35637394 448.29240995 277.65972134 444.3125 274 C443.62067627 273.35853027 442.92885254 272.71706055 442.21606445 272.05615234 C440.79447441 270.73829601 439.37154699 269.4218808 437.94726562 268.10693359 C435.99193541 266.29581128 434.04842358 264.47305612 432.109375 262.64453125 C426.11805843 257.00646088 420.0605496 251.5620324 413.6328125 246.41796875 C411.14761825 244.4079887 408.7168371 242.34592906 406.29638672 240.25878906 C399.10337278 234.07214217 391.62257396 228.33952909 383.97412109 222.72900391 C381.90011271 221.20594169 379.83481191 219.67158553 377.76953125 218.13671875 C307.40491044 166.21703445 226.73803014 130.62666931 51.875 97.1875 C50.80958984 97.09758789 49.74417969 97.00767578 48.64648438 96.91503906 C38.23348317 96.09456533 27.81445861 95.80279532 17.375 95.5625 C16.42825409 95.54070679 15.48150818 95.51891357 14.506073 95.49645996 C-67.76626741 93.68821966 -149.62436771 107.853168 -267.125 154.1875 C-268.25276855 154.70957031 -269.38053711 155.23164063 -270.54248047 155.76953125 C-285.53236484 162.73782473 -300.09776715 170.22861892 -314.36621094 178.57568359 C-317.10356812 180.17497847 -319.85154498 181.75462749 -322.6015625 183.33203125 C-345.57636775 196.60385488 -367.56730176 211.56486238 -388.47314453 227.89892578 C-390.1641284 229.21802316 -391.86104379 230.52921068 -393.55859375 231.83984375 C-405.23236139 240.88807433 -416.39318519 250.46556837 -427.2109375 260.51953125 C-429.39776546 262.52168071 -431.60502767 264.47047842 -433.84985352 266.40527344 C-437.86730563 269.91636706 -441.67587541 273.59316564 -445.44140625 277.37109375 C-446.10156235 278.03029312 -446.76171844 278.68949249 -447.44187927 279.3686676 C-448.82535506 280.75146835 -450.20759083 282.13551076 -451.58862305 283.52075195 C-453.68231669 285.61980343 -455.78129874 287.7134594 -457.88085938 289.80664062 C-459.23469571 291.16113786 -460.58822175 292.51594531 -461.94140625 293.87109375 C-462.86669884 294.79334999 -462.86669884 294.79334999 -463.8106842 295.73423767 C-468.1112527 300.05761661 -472.15341863 304.56143809 -476.125 309.1875 C-477.06348648 310.269805 -478.00223113 311.35188627 -478.94140625 312.43359375 C-491.98801006 327.56360506 -504.46126828 342.95999617 -516.125 359.1875 C-516.65367676 359.92000977 -517.18235352 360.65251953 -517.72705078 361.40722656 C-534.8537263 385.18383971 -549.64068696 410.23661095 -563.80322266 435.86938477 C-564.83851212 437.68506143 -565.96562271 439.44843406 -567.125 441.1875 C-569.5665753 441.48230735 -571.75527634 441.5790097 -574.19900513 441.54826355 C-574.9357534 441.55082682 -575.67250168 441.5533901 -576.43157566 441.55603105 C-578.91309889 441.56099289 -581.39402063 441.54443709 -583.87548828 441.52807617 C-585.6491596 441.52723042 -587.42283198 441.52770403 -589.19650269 441.52940369 C-594.02276792 441.53026708 -598.84881105 441.51258587 -603.67502451 441.49168181 C-608.71456188 441.47297212 -613.75410391 441.47116909 -618.79367065 441.46760559 C-628.34179813 441.4582683 -637.88982298 441.43363179 -647.43790519 441.40355712 C-658.30592866 441.37006542 -669.17395693 441.35354028 -680.04201913 441.33847082 C-702.40306972 441.30708367 -724.76402912 441.25429053 -747.125 441.1875 C-744.14678269 437.94841643 -740.87518501 436.73970372 -736.8046875 435.28125 C-735.67835403 434.86667542 -735.67835403 434.86667542 -734.52926636 434.44372559 C-732.88743309 433.83952928 -731.24444357 433.23846804 -729.60046387 432.64013672 C-726.96193461 431.67355538 -724.33234714 430.68558591 -721.70410156 429.69140625 C-712.62404567 426.26734256 -703.52744282 422.95580039 -694.31729126 419.8963623 C-689.89696412 418.41395407 -685.50152386 416.86476585 -681.10748291 415.30639648 C-678.97952516 414.569822 -676.84111308 413.86268139 -674.69281006 413.18774414 C-663.55860152 409.67551315 -655.48905615 406.44704461 -649.64216614 395.89083862 C-647.694234 391.91781601 -645.9161563 387.89781181 -644.23370361 383.80578613 C-642.83410336 380.50052593 -641.17900123 377.51538527 -639.34765625 374.4296875 C-638.82187988 373.52927734 -638.29610352 372.62886719 -637.75439453 371.70117188 C-637.23731934 370.83041016 -636.72024414 369.95964844 -636.1875 369.0625 C-635.60597168 368.07572266 -635.02444336 367.08894531 -634.42529297 366.07226562 C-620.58481907 342.6839249 -606.15825576 319.59484169 -589.55175781 298.05419922 C-588.0848236 296.13493519 -586.64475019 294.19801851 -585.2109375 292.25390625 C-577.84776049 282.28121151 -570.10405601 272.67325167 -562.125 263.1875 C-561.59874023 262.56069336 -561.07248047 261.93388672 -560.53027344 261.28808594 C-553.80988081 253.30468619 -546.86579731 245.57004309 -539.74047852 237.9465332 C-538.57624899 236.67884789 -537.42749735 235.39688571 -536.28881836 234.10620117 C-529.82437901 226.79123744 -522.98005041 219.89015869 -516.06811523 213.00024414 C-514.05922136 210.99673014 -512.05575611 208.98789848 -510.05273438 206.97851562 C-503.91065259 200.83324339 -497.7533817 194.81167237 -491.125 189.1875 C-489.17025669 187.41384839 -487.24400857 185.61163945 -485.3125 183.8125 C-480.74202095 179.59475913 -476.0556113 175.5779736 -471.20703125 171.6796875 C-468.89335882 169.80880916 -466.60313421 167.92018121 -464.32421875 166.0078125 C-454.6439626 157.90501164 -444.69827429 150.27907568 -434.46728516 142.88574219 C-432.21254249 141.2509715 -429.97007363 139.60073826 -427.73046875 137.9453125 C-399.17630124 116.92854637 -368.60101393 98.46960401 -337.125 82.1875 C-336.54190063 81.88499329 -335.95880127 81.58248657 -335.35803223 81.27081299 C-265.56751097 45.0898753 -190.34240338 20.98590366 0 0 Z " fill="#E21D23" transform="translate(1119.125,60.8125)"/>
<path d="M0 0 C1.82265381 0.01643555 1.82265381 0.01643555 3.68212891 0.03320312 C87.53699387 0.79934171 171.30795441 3.55220225 586.67578125 47.06640625 C587.85845078 47.24821442 589.0411203 47.43002258 590.2596283 47.61734009 C591.34482254 47.78559296 592.43001678 47.95384583 593.5480957 48.12719727 C594.4862764 48.27246353 595.42445709 48.4177298 596.3910675 48.56739807 C598.93717656 48.98958289 601.46924469 49.49384894 604 50 C604 75.74 604 101.48 604 128 C588.27016796 125.75288114 588.27016796 125.75288114 583.00732422 124.84594727 C581.80912048 124.6409259 580.61091675 124.43590454 579.37640381 124.22467041 C577.48465424 123.89882965 577.48465424 123.89882965 575.5546875 123.56640625 C572.71524987 123.0816563 569.87546298 122.59896851 567.03564453 122.11645508 C566.29714264 121.99088163 565.55864075 121.86530819 564.79776001 121.73592949 C488.16873348 108.71880108 411.18937134 98.30780914 99 74 C97.92464996 73.9599799 97.92464996 73.9599799 96.82757568 73.91915131 C7.58562019 70.61656864 -81.84649478 70.86762003 -592.0625 115.75 C-593.3582023 115.95282907 -593.3582023 115.95282907 -594.68008041 116.15975571 C-614.70092711 119.29606205 -634.68988544 122.56813502 -654.63014221 126.18475342 C-655.30937555 126.30711617 -655.98860889 126.42947891 -656.68842506 126.55554962 C-658.51142252 126.88432156 -660.33385109 127.21624349 -662.15623474 127.54840088 C-665 128 -665 128 -668 128 C-668 102.26 -668 76.52 -668 50 C-581.92176605 36.99367344 -495.58942105 26.30249412 -150 2 C-149.01686829 1.96368469 -148.03373657 1.92736938 -147.02081299 1.88995361 C-135.68248881 1.47327593 -124.34425564 1.18974242 -113 1 C-111.75667908 0.97915344 -110.51335815 0.95830688 -109.23236084 0.93682861 C-33.77687067 -0.31601625 -33.77687067 -0.31601625 0 0 Z " fill="#E21D23" transform="translate(1131,916)"/>
<path d="M0 0 C155.49165461 0 155.49165461 0 170.5625 4.1875 C171.7383667 4.50787231 171.7383667 4.50787231 172.93798828 4.8347168 C201.95622284 13.10177797 228.18796518 32.57765842 243 59 C243.48726562 59.83660156 243.97453125 60.67320312 244.4765625 61.53515625 C257.22144428 84.95289915 258.49696941 115.68641266 251.42724609 141 C244.11444458 165.53476854 226.62762632 184.38605437 204.39453125 196.55859375 C200.29566249 198.76988042 196.14777137 200.88232293 192 203 C196.94516266 215.47098633 202.00206368 227.8873819 207.20822144 240.25161743 C209.17209619 244.91710218 211.12920672 249.58542164 213.0859375 254.25390625 C213.69395454 255.70451698 213.69395454 255.70451698 214.31425476 257.18443298 C220.71603832 272.4713214 227.02082266 287.79842376 233.33496094 303.12165833 C235.88145501 309.29798865 238.43874033 315.46975263 241.00309753 321.63868713 C242.76695622 325.88216311 244.52807861 330.12677246 246.28909302 334.37142944 C247.13025347 336.39674996 247.97273763 338.42152128 248.81661987 340.44570923 C249.98669679 343.25273902 251.15203484 346.06169346 252.31640625 348.87109375 C252.66132111 349.69501617 253.00623596 350.5189386 253.36160278 351.36782837 C255.21846888 355.86243526 256.76377369 360.29543941 258 365 C241.36882799 363.41534753 224.81408629 361.22792821 208.25146484 359.05883789 C204.25192372 358.53513634 200.25175889 358.01637155 196.25141144 357.4988699 C193.14911454 357.09692251 190.04718499 356.69219661 186.94535828 356.28663826 C185.46868276 356.09395059 183.99188697 355.90218226 182.51496887 355.71136284 C180.46727453 355.44642761 178.42011335 355.17769674 176.37304688 354.90795898 C175.21123901 354.75632797 174.04943115 354.60469696 172.85241699 354.44847107 C170 354 170 354 167 353 C165.82763672 351.04272461 165.82763672 351.04272461 164.6796875 348.40234375 C164.23641113 347.39558594 163.79313477 346.38882812 163.33642578 345.3515625 C162.85415527 344.22492188 162.37188477 343.09828125 161.875 341.9375 C161.35276855 340.73996094 160.83053711 339.54242187 160.29248047 338.30859375 C158.50997745 334.21353743 156.75298503 330.10776348 155 326 C154.69344482 325.2820929 154.38688965 324.56418579 154.07104492 323.82452393 C151.03651468 316.71433826 148.01328401 309.59937352 144.99926758 302.48046875 C138.91205831 288.10753566 132.74867228 273.76809153 126.5625 259.4375 C126.10804504 258.38433594 125.65359009 257.33117187 125.18536377 256.24609375 C123.85457616 253.1625306 122.52309044 250.07926979 121.19140625 246.99609375 C120.76541138 246.00906464 120.3394165 245.02203552 119.9005127 244.00509644 C117.65453184 238.80664473 115.39483722 233.61462294 113.11669922 228.43017578 C112.65110092 227.36799332 112.18550262 226.30581085 111.70579529 225.21144104 C110.81296373 223.17616727 109.91714296 221.14220149 109.01795959 219.10972595 C108.62136642 218.20476883 108.22477325 217.29981171 107.81616211 216.36743164 C107.46444443 215.56986954 107.11272675 214.77230743 106.75035095 213.95057678 C106 212 106 212 106 210 C105.15236084 209.96241577 105.15236084 209.96241577 104.28759766 209.92407227 C101.73316258 209.80820044 99.1791045 209.68543463 96.625 209.5625 C95.73554687 209.52318359 94.84609375 209.48386719 93.9296875 209.44335938 C93.07890625 209.40146484 92.228125 209.35957031 91.3515625 209.31640625 C90.17327881 209.26141968 90.17327881 209.26141968 88.97119141 209.20532227 C87 209 87 209 85 208 C85 253.21 85 298.42 85 345 C56.61768939 345 28.31774364 341.91336106 0 340 C0 227.8 0 115.6 0 0 Z M85 72 C85 93.45 85 114.9 85 137 C105.29085656 137.89319162 105.29085656 137.89319162 125.5871582 138.29516602 C127.09408797 138.30690403 128.60096976 138.32768062 130.10766602 138.35668945 C143.05980957 138.60272932 153.41128776 137.41751068 163.12109375 128.08984375 C169.99255497 120.4469503 170.62077782 112.3045053 170.40234375 102.4140625 C169.91147748 94.28419901 166.11913072 87.6536269 160.3125 82.0625 C152.2494977 75.72063857 143.4342622 73.0010063 133.3203125 72.68359375 C132.67166229 72.66281265 132.02301208 72.64203156 131.35470581 72.62062073 C129.97465164 72.57746766 128.59453048 72.53641244 127.21435547 72.49731445 C125.19351351 72.43946142 123.17291774 72.37319837 121.15234375 72.30664062 C109.08710012 71.94295146 97.08756003 72 85 72 Z " fill="#FDFDFD" transform="translate(1269,546)"/>
<path d="M0 0 C179.60184005 0 179.60184005 0 213.4375 33.0625 C232.15690065 51.88049589 244.54833807 75.96517147 250.8125 101.625 C251.00755127 102.42268799 251.20260254 103.22037598 251.40356445 104.04223633 C254.58033633 118.01470761 255.3812912 131.91884343 255.3125 146.1875 C255.30926727 147.40081497 255.30926727 147.40081497 255.30596924 148.63864136 C255.15810852 183.3153989 247.36057936 214.40105589 223.1875 240.25 C206.24986427 256.40380148 184.90893517 264.14228402 161.75 264.25 C160.15671875 264.2809375 160.15671875 264.2809375 158.53125 264.3125 C134.57126637 264.42605442 108.67175905 256.63740526 86 252 C85.67 306.12 85.34 360.24 85 416 C79.48649805 415.31081226 74.74836298 414.54672113 69.45410156 413.15820312 C68.39397102 412.88241676 68.39397102 412.88241676 67.31242371 412.60105896 C65.00387394 411.99924928 62.69727135 411.39031035 60.390625 410.78125 C58.77508114 410.35863974 57.15941745 409.9364873 55.54364014 409.51477051 C51.30918044 408.40830657 47.07633219 407.29579874 42.84381104 406.1819458 C38.53352717 405.04871753 34.22179759 403.92101905 29.91015625 402.79296875 C25.06564775 401.52520066 20.22130009 400.25683966 15.37799072 398.98449707 C14.6423439 398.79126358 13.90669708 398.59803009 13.14875793 398.39894104 C11.16529814 397.87778775 9.18191973 397.35632479 7.19854736 396.83483887 C4.80257795 396.20947736 2.40230212 395.60057553 0 395 C0 264.65 0 134.3 0 0 Z M85 87 C85 112.74 85 138.48 85 165 C93.04375 166.155 101.0875 167.31 109.375 168.5 C113.15396729 169.04817383 113.15396729 169.04817383 117.00927734 169.60742188 C119.03475258 169.89508203 121.06030134 170.18222523 123.0859375 170.46875 C124.11436768 170.61989258 125.14279785 170.77103516 126.20239258 170.92675781 C136.93438451 172.43102748 147.34720419 173.72069643 156.609375 167.1484375 C163.51817168 161.3638533 168.10827703 154.88658192 170 146 C170.24629247 142.46159819 170.23116265 138.9211319 170.25 135.375 C170.270625 134.42753906 170.29125 133.48007812 170.3125 132.50390625 C170.38057561 120.06308914 166.23097887 109.5230985 157.875 100.25 C147.98920525 91.17908638 136.77170571 89.85502756 124 89 C121.58193504 88.81636665 119.16397297 88.63137549 116.74609375 88.4453125 C111.72749912 88.07166485 106.70867375 87.70455028 101.6875 87.3671875 C100.63949219 87.29612793 99.59148437 87.22506836 98.51171875 87.15185547 C94.01173339 86.95726489 89.50419069 87 85 87 Z " fill="#FDFDFD" transform="translate(1688,546)"/>
<path d="M0 0 C70.29 0 140.58 0 213 0 C213 26.73 213 53.46 213 81 C208.80673903 82.04831524 204.78829525 82.36994709 200.49731445 82.63256836 C199.63955917 82.68802322 198.78180389 82.74347809 197.89805603 82.8006134 C195.05333633 82.98373543 192.20831759 83.16171485 189.36328125 83.33984375 C187.36620197 83.46776703 185.36914725 83.5960744 183.37211609 83.7247467 C178.09322301 84.06409812 172.81407976 84.39937401 167.53485107 84.73345947 C159.17667778 85.26270227 150.81876905 85.79608248 142.46105576 86.3325386 C140.4397834 86.46226468 138.41849486 86.59173861 136.39719009 86.72095871 C123.9822821 87.51609513 111.57505499 88.3469944 99.18244934 89.44480896 C98.32584213 89.51917679 97.46923492 89.59354462 96.58666992 89.67016602 C95.88233322 89.73446304 95.17799652 89.79876007 94.45231628 89.86500549 C90.97318762 90.05652372 87.484396 90 84 90 C84 116.73 84 143.46 84 171 C93.9 169.35 103.8 167.7 114 166 C123.87086965 164.59993212 133.74055462 163.23246634 143.625 161.9375 C144.9136496 161.76702148 146.20229919 161.59654297 147.52999878 161.42089844 C203.63797277 154 203.63797277 154 213 154 C213 180.73 213 207.46 213 235 C202.88362788 237.24808269 202.88362788 237.24808269 199.16259766 237.91040039 C198.31943497 238.06173431 197.47627228 238.21306824 196.6075592 238.36898804 C195.27427834 238.6059288 195.27427834 238.6059288 193.9140625 238.84765625 C191.9323047 239.20429164 189.95061826 239.56132375 187.96899414 239.91870117 C186.93517609 240.10483978 185.90135803 240.29097839 184.83621216 240.48275757 C154.14911711 246.02291195 123.57102802 252.11511295 93.22875977 259.32495117 C92.28572998 259.54900635 91.3427002 259.77306152 90.37109375 260.00390625 C89.1634436 260.29503296 89.1634436 260.29503296 87.93139648 260.59204102 C86 261 86 261 84 261 C84 317.76 84 374.52 84 433 C77.73 436.3 71.46 439.6 65 443 C46.19185612 453.62444769 28.23601375 465.58323396 10.97509766 478.57128906 C9.89881104 479.38098145 9.89881104 479.38098145 8.80078125 480.20703125 C8.18372314 480.6760083 7.56666504 481.14498535 6.9309082 481.62817383 C4.7041608 483.21018087 2.34225104 484.59464938 0 486 C0 325.62 0 165.24 0 0 Z " fill="#FDFDFD" transform="translate(313,545)"/>
<path d="M0 0 C4.57047463 2.5686776 8.61606285 5.673188 12.75 8.875 C14.27598827 10.04954855 15.80203146 11.22402574 17.328125 12.3984375 C18.10478516 12.9975293 18.88144531 13.59662109 19.68164062 14.21386719 C23.27996286 16.98612134 26.89022036 19.74269275 30.5 22.5 C31.91673143 23.58324863 33.33339792 24.66658221 34.75 25.75 C35.45125 26.28625 36.1525 26.8225 36.875 27.375 C39 29 41.125 30.625 43.25 32.25 C43.95157227 32.7864917 44.65314453 33.3229834 45.37597656 33.87573242 C46.78940651 34.95660017 48.20281804 36.03749201 49.61621094 37.1184082 C53.20724701 39.86466505 56.7986248 42.61047303 60.390625 45.35546875 C67.8165762 51.03101716 75.23477953 56.71620464 82.640625 62.41796875 C88.68637123 67.0684032 94.75016216 71.69533244 100.81054688 76.32666016 C104.37428992 79.05033264 107.93710631 81.77521663 111.5 84.5 C112.91666204 85.58333938 114.33332872 86.66667271 115.75 87.75 C124.25 94.25 124.25 94.25 126.37817383 95.87768555 C127.78392802 96.95250279 129.19001121 98.02688989 130.59643555 99.10083008 C134.30798335 101.93587861 138.01222394 104.77987762 141.70703125 107.63671875 C142.47789062 108.23097656 143.24875 108.82523437 144.04296875 109.4375 C145.52034824 110.57668418 146.9957189 111.7184799 148.46875 112.86328125 C149.13519531 113.37632812 149.80164062 113.889375 150.48828125 114.41796875 C151.36286987 115.09508911 151.36286987 115.09508911 152.25512695 115.78588867 C154.09634039 117.06703522 155.97302368 118.04529499 158 119 C169.8021986 106.45252551 181.49910753 93.82514039 193 81 C200.26973916 84.85541418 207.28089162 88.9671929 214.1875 93.4375 C216.12054215 94.67794333 218.05415621 95.91749581 219.98828125 97.15625 C220.97779785 97.79046875 221.96731445 98.4246875 222.98681641 99.078125 C227.92920556 102.23048988 232.90101323 105.33531262 237.875 108.4375 C238.87313721 109.06011719 239.87127441 109.68273437 240.8996582 110.32421875 C242.92517904 111.58742229 244.95081385 112.85044308 246.9765625 114.11328125 C249.9655865 115.97852491 252.95199221 117.8478843 255.9375 119.71875 C266.36859186 126.25331269 276.82274384 132.74747004 287.3125 139.1875 C295.53944747 144.23898596 303.73817508 149.32948433 311.89111328 154.49951172 C321.20752178 160.4068489 330.57024631 166.23988289 339.92822266 172.08105469 C342.93673794 173.96048007 345.94330979 175.84297196 348.94921875 177.7265625 C359.37665674 184.25811022 369.82674581 190.74992698 380.3125 197.1875 C388.53944747 202.23898596 396.73817508 207.32948433 404.89111328 212.49951172 C411.14092122 216.46238248 417.41064799 220.39261448 423.6875 224.3125 C425.20174561 225.25814819 425.20174561 225.25814819 426.74658203 226.22290039 C428.80412772 227.5076015 430.86174532 228.79218745 432.91943359 230.07666016 C436.95194205 232.59434137 440.98324661 235.11394581 445.0144043 237.63378906 C446.99883252 238.87419869 448.98336964 240.11443413 450.96801758 241.35449219 C456.14449904 244.58899721 461.31945452 247.8259094 466.4921875 251.06640625 C467.56082031 251.73542969 468.62945313 252.40445313 469.73046875 253.09375 C471.75698417 254.36252487 473.78305997 255.63200232 475.80859375 256.90234375 C476.73542969 257.48242188 477.66226563 258.0625 478.6171875 258.66015625 C479.50631836 259.21719238 480.39544922 259.77422852 481.31152344 260.34814453 C484.898958 262.55233834 488.54434972 264.65357337 492.20361328 266.73608398 C492.7964209 267.15317627 493.38922852 267.57026855 494 268 C494 268.66 494 269.32 494 270 C443.03230328 270.69801082 392.06544245 271.23259461 341.09435252 271.60328433 C331.43796125 271.6735997 321.78158918 271.74642357 312.12521636 271.81922253 C292.12559118 271.96990818 272.12594628 272.1178421 252.12629334 272.26479156 C236.64331047 272.37856339 221.16033292 272.49303605 205.67735863 272.60796928 C201.17139935 272.64141041 196.66544005 272.67484864 192.15948075 272.70828623 C191.03832754 272.71660624 189.91717433 272.72492625 188.76204678 272.73349839 C157.35357948 272.96655364 125.94510571 273.19871895 94.53661823 273.42903996 C93.35966025 273.4376711 92.18270228 273.44630225 90.97007891 273.45519494 C85.00891344 273.49890878 79.04774793 273.54261553 73.0865824 273.58632035 C71.90332485 273.59499565 70.7200673 273.60367094 69.50095347 273.61260913 C67.10813192 273.63015253 64.71531037 273.6476954 62.32248881 273.66523774 C25.17094308 273.93762805 -11.9805772 274.21328269 -49.13208008 274.49145508 C-91.17185569 274.8062257 -133.21165073 275.11822131 -175.25147468 275.4264726 C-179.76655033 275.4595883 -184.2816259 275.49271401 -188.79670143 275.52584648 C-190.46346952 275.53807509 -190.46346952 275.53807509 -192.1639097 275.55055073 C-207.59308864 275.66380312 -223.02225429 275.7787266 -238.45141086 275.89498436 C-264.29919786 276.08972358 -290.14700804 276.28096987 -315.99487305 276.46508789 C-316.96389025 276.47199733 -317.93290746 276.47890677 -318.93128882 276.48602558 C-382.62174107 276.93944841 -446.30776992 277.19241589 -510 277 C-506.99166696 273.90454641 -504.11278029 271.67214605 -500.3984375 269.453125 C-499.28170654 268.78128174 -498.16497559 268.10943848 -497.0144043 267.41723633 C-496.42202972 267.06448639 -495.82965515 266.71173645 -495.21932983 266.34829712 C-492.69875814 264.84729845 -490.18583295 263.3337029 -487.67234802 261.82087708 C-486.37160393 261.03814931 -485.07046261 260.2560813 -483.76893616 259.47465515 C-477.37834396 255.63579074 -471.03042945 251.72964007 -464.6875 247.8125 C-456.53699215 242.78558428 -448.37238153 237.78325243 -440.1875 232.8125 C-432.06942016 227.88170832 -423.98234061 222.90363489 -415.9128418 217.89379883 C-408.49722305 213.2951544 -401.04424765 208.75944261 -393.5859375 204.23046875 C-387.2042857 200.35159414 -380.84468792 196.43901121 -374.5 192.5 C-366.34001244 187.43462463 -358.14643746 182.42699735 -349.9375 177.44140625 C-342.6087019 172.98722373 -335.30081571 168.49988064 -328 164 C-319.74462311 158.91177259 -311.47607939 153.84646058 -303.1875 148.8125 C-295.0694314 143.88168953 -286.98234082 138.90363502 -278.9128418 133.89379883 C-271.49722305 129.2951544 -264.04424765 124.75944261 -256.5859375 120.23046875 C-249.34817269 115.83123434 -242.14194367 111.38318104 -234.94702148 106.91430664 C-227.20827734 102.11380618 -219.42909719 97.38084917 -211.63671875 92.66796875 C-210.72664063 92.11625 -209.8165625 91.56453125 -208.87890625 90.99609375 C-208.02570801 90.48159668 -207.17250977 89.96709961 -206.29345703 89.43701172 C-204.33653441 88.21086242 -202.50341065 86.91153021 -200.65234375 85.53515625 C-198 84 -198 84 -195.72998047 84.03051758 C-191.83742429 85.41285889 -189.46593767 88.06009957 -186.66796875 90.9765625 C-186.07252762 91.5800351 -185.47708649 92.18350769 -184.86360168 92.80526733 C-182.96187636 94.73593983 -181.07425149 96.67970163 -179.1875 98.625 C-176.70604803 101.16301565 -174.21928536 103.69576986 -171.73046875 106.2265625 C-171.13740936 106.83066956 -170.54434998 107.43477661 -169.93331909 108.05718994 C-163.11353881 115.36595374 -163.11353881 115.36595374 -155 121 C-146.54160389 114.52272325 -138.13383426 107.98505294 -129.76611328 101.39111328 C-126.84628952 99.09125763 -123.92298107 96.79584055 -121 94.5 C-119.83331639 93.5833549 -118.66664973 92.66668823 -117.5 91.75 C-115.16666667 89.91666667 -112.83333333 88.08333333 -110.5 86.25 C-109.92282227 85.7964917 -109.34564453 85.3429834 -108.75097656 84.87573242 C-107.58109984 83.95656687 -106.41117777 83.03745905 -105.24121094 82.1184082 C-102.37328843 79.86543906 -99.5060901 77.61156277 -96.640625 75.35546875 C-89.34109862 69.61047113 -82.016951 63.89796383 -74.68164062 58.19873047 C-68.33216972 53.26341069 -62.00408164 48.30149252 -55.68554688 43.32666016 C-52.79191173 41.04913794 -49.89580677 38.77475993 -47 36.5 C-45.83332204 35.5833477 -44.66665536 34.66668105 -43.5 33.75 C-41.16666667 31.91666667 -38.83333333 30.08333333 -36.5 28.25 C-35.92233887 27.79608887 -35.34467773 27.34217773 -34.74951172 26.87451172 C-33.58460823 25.95930007 -32.41956947 25.04426056 -31.25439453 24.12939453 C-28.30960955 21.81686979 -25.36734815 19.50125766 -22.4296875 17.1796875 C-15.03374627 11.34083978 -7.56845932 5.61396708 0 0 Z M-8.64453125 48.39453125 C-19.96533003 60.03255032 -25.42869892 74.84916909 -25.36572266 90.85839844 C-24.71880366 120.11812923 -6.02003965 144.84877396 12.3984375 165.96875 C14.37055922 168.26659753 16.2041118 170.56876472 18 173 C17.40849655 172.79448013 16.8169931 172.58896027 16.20756531 172.37721252 C2.7273806 167.69428614 -10.75657323 163.02244019 -24.24681091 158.36854553 C-29.81148367 156.44851423 -35.37407272 154.52301017 -40.93127441 152.58146667 C-65.67937458 143.19560903 -65.67937458 143.19560903 -91.3125 145.1875 C-95.10016677 147.74197294 -98.00760164 150.63351161 -99.8125 154.9375 C-100.29581876 160.25400632 -99.93521291 164.61089113 -98.484375 169.74609375 C-98.07010254 171.22420532 -98.07010254 171.22420532 -97.64746094 172.73217773 C-97.43379883 173.48055908 -97.22013672 174.22894043 -97 175 C-97.77786865 174.72849121 -98.5557373 174.45698242 -99.35717773 174.17724609 C-112.94509633 169.46410824 -126.49848523 164.84569747 -140.5 161.5 C-141.45704834 161.26974121 -142.41409668 161.03948242 -143.40014648 160.80224609 C-156.02182785 157.90948136 -168.42952857 156.60892466 -181.375 156.625 C-182.05121399 156.62487915 -182.72742798 156.6247583 -183.4241333 156.62463379 C-193.81089039 156.65101558 -203.20934642 157.3490337 -213 161 C-214.26650391 161.45052734 -214.26650391 161.45052734 -215.55859375 161.91015625 C-228.70377525 167.17278524 -238.43608986 175.66229651 -245.1875 188.0546875 C-246.19270232 190.11001153 -246.19270232 190.11001153 -246 193 C-246.62261719 192.855625 -247.24523437 192.71125 -247.88671875 192.5625 C-309.64278958 180.15960711 -379.18125697 220.18077375 -430.1875 250.0625 C-431.12682373 250.61091553 -432.06614746 251.15933105 -433.03393555 251.72436523 C-433.9031665 252.23942627 -434.77239746 252.7544873 -435.66796875 253.28515625 C-436.43391357 253.73769775 -437.1998584 254.19023926 -437.98901367 254.65649414 C-439.92559166 255.95028905 -441.38461738 257.33558215 -443 259 C-388.30224686 259.01736724 -333.60449348 259.03324769 -278.90673828 259.04234314 C-278.07871095 259.0424812 -277.25068363 259.04261925 -276.39756456 259.04276149 C-258.34166163 259.04576416 -240.28575866 259.0485329 -222.22985566 259.05106533 C-213.35733866 259.05231115 -204.48482167 259.05360791 -195.61230469 259.05493164 C-194.73003774 259.0550624 -193.84777079 259.05519316 -192.93876848 259.05532788 C-166.75859192 259.05922993 -140.5784173 259.06582117 -114.39824194 259.07458849 C-73.73528407 259.08816024 -33.07232736 259.0969424 7.59063292 259.09761363 C9.28030252 259.09764204 10.96997213 259.09767586 12.65964174 259.09771509 C95.68296736 259.09961646 178.70549367 259.02295154 443 258 C440.59731871 255.52207699 438.20590472 253.74342518 435.265625 251.91796875 C434.31139648 251.32322754 433.35716797 250.72848633 432.37402344 250.11572266 C431.3430957 249.47940918 430.31216797 248.8430957 429.25 248.1875 C428.17524414 247.52024902 427.10048828 246.85299805 425.99316406 246.16552734 C416.04955431 240.00351574 406.06136966 233.91531762 396.05615234 227.85400391 C392.85361277 225.91119471 389.65499937 223.96204277 386.45703125 222.01171875 C368.71981001 211.20262364 350.890785 200.55289646 333 190 C331.8960791 189.34870117 330.7921582 188.69740234 329.65478516 188.02636719 C259.41591913 139.45639484 259.41591913 139.45639484 181 121 C176.77549477 122.7976618 175.00096084 124.89803027 173 129 C169.53836755 140.90995221 174.4930712 153.95802445 179 165 C175.19947645 162.81937173 171.7700026 160.37666869 168.3125 157.6875 C167.75780029 157.25727539 167.20310059 156.82705078 166.6315918 156.38378906 C164.75234363 154.92514553 162.87621828 153.46253821 161 152 C159.59393448 150.90731465 158.18767778 149.81487528 156.78125 148.72265625 C152.96237387 145.75579692 149.14613711 142.78556169 145.33056641 139.81445312 C141.55482734 136.87486662 137.77734465 133.93752285 134 131 C132.49999123 129.83334461 130.99999124 128.66667793 129.5 127.5 C128.7575 126.9225 128.015 126.345 127.25 125.75 C48.5 64.5 48.5 64.5 46.24731445 62.74780273 C44.75640665 61.58827977 43.26535984 60.42893552 41.77416992 59.26977539 C37.8838646 56.24530671 33.99646089 53.21720739 30.11328125 50.18359375 C29.30955078 49.55646484 28.50582031 48.92933594 27.67773438 48.28320312 C26.15078697 47.09165457 24.62468316 45.8990238 23.09960938 44.70507812 C8.45857048 33.2875057 4.68613398 36.32407662 -8.64453125 48.39453125 Z " fill="#FDFDFD" transform="translate(1118,224)"/>
<path d="M0 0 C83.16 0 166.32 0 252 0 C252 23.1 252 46.2 252 70 C224.3695682 71.45423325 196.66867463 71 169 71 C169 160.43 169 249.86 169 342 C151.675 343.485 151.675 343.485 134 345 C125.32429899 345.80560081 116.64951773 346.61666271 107.97705078 347.45581055 C105.27142343 347.71688817 102.56543709 347.97394231 99.859375 348.23046875 C99.06472839 348.3085527 98.27008179 348.38663666 97.45135498 348.46708679 C96.70396057 348.53748672 95.95656616 348.60788666 95.18652344 348.68041992 C94.22235504 348.77343636 94.22235504 348.77343636 93.2387085 348.86833191 C90.16413933 349.04916057 87.07988223 349 84 349 C84 257.92 84 166.84 84 73 C60.24 73.66 36.48 74.32 12 75 C8.04 75 4.08 75 0 75 C0 50.25 0 25.5 0 0 Z " fill="#FDFDFD" transform="translate(689,546)"/>
<path d="M0 0 C82.83 0 165.66 0 251 0 C251 23.1 251 46.2 251 70 C223.61 70 196.22 70 168 70 C168 157.45 168 244.9 168 335 C139.66470595 335 111.32056294 334.91356655 83 334 C83 246.88 83 159.76 83 70 C55.61 70 28.22 70 0 70 C0 46.9 0 23.8 0 0 Z " fill="#FDFDFD" transform="translate(979,546)"/>
<path d="M0 0 C28.05 0 56.1 0 85 0 C85 127.05 85 254.1 85 385 C79.26976689 384.36330743 73.84465359 383.68049741 68.21704102 382.6171875 C67.49717514 382.48209778 66.77730927 382.34700806 66.03562927 382.20782471 C63.69107365 381.76690818 61.34747497 381.32112987 59.00390625 380.875 C57.36250196 380.56473186 55.72105738 380.25467675 54.07957458 379.94482422 C50.65753173 379.29807759 47.23595352 378.64894138 43.81469727 377.99804688 C39.42501351 377.16308548 35.03426151 376.33390232 30.64315891 375.50643921 C27.26194233 374.86867681 23.88127697 374.22803205 20.50077629 373.58648682 C18.88097354 373.27941862 17.26100528 372.97322213 15.64087105 372.66790771 C13.38574799 372.24245546 11.13138932 371.81316628 8.87719727 371.3828125 C6.95267479 371.01760498 6.95267479 371.01760498 4.98927307 370.64501953 C2 370 2 370 0 369 C0 247.23 0 125.46 0 0 Z " fill="#FDFDFD" transform="translate(1563,546)"/>
<path d="M0 0 C2.8457626 0.31688623 3.80915946 0.76619773 5.6484375 3.01953125 C6.21820313 3.94121094 6.78796875 4.86289063 7.375 5.8125 C11.01943489 11.51242321 14.79917028 17.08823529 18.6875 22.625 C19.28925049 23.48311279 19.89100098 24.34122559 20.51098633 25.2253418 C26.06503743 33.1265486 31.71201749 40.95864209 37.38671875 48.7734375 C39.02363161 51.03261505 40.65346091 53.29674131 42.28125 55.5625 C48.96867934 64.86588558 55.75823923 74.08259235 62.66259766 83.22607422 C64.5958628 85.79035033 66.51571287 88.36461559 68.4375 90.9375 C73.72388693 97.98601591 79.08235767 104.97925644 84.44384766 111.97070312 C85.85272899 113.80795158 87.26043494 115.64609421 88.66796875 117.484375 C94.25605997 124.77433388 99.91455363 132.00665847 105.60009766 139.22070312 C107.01135389 141.01443097 108.4183898 142.81139121 109.82421875 144.609375 C114.66941933 150.80257087 119.55747594 156.95155678 124.5546875 163.0234375 C127.55092601 166.670616 130.52559279 170.33501377 133.5 174 C135.16353607 176.04785213 136.82733595 178.09548964 138.49121094 180.14306641 C139.80959789 181.76566368 141.12749645 183.38865777 142.4453125 185.01171875 C146.87515557 190.44978775 151.37475069 195.82272923 155.91674805 201.16699219 C158.79591336 204.55991751 161.63222581 207.98290376 164.4375 211.4375 C168.39340776 216.29923279 172.46080099 221.05588552 176.55395508 225.80175781 C179.63714961 229.38465096 182.65519302 233.00934683 185.625 236.6875 C189.42792763 241.37594687 193.45113712 245.81769663 197.5390625 250.2578125 C199.91039895 252.90015883 202.15252997 255.60694167 204.375 258.375 C208.75944247 263.80891009 213.45500063 268.89826018 218.21484375 274 C220.97346339 276.95876022 223.64611326 279.98395085 226.29296875 283.04296875 C228.33633431 285.3855915 230.41680859 287.69273422 232.5 290 C235.18983431 292.98062721 237.86310364 295.97245233 240.5 299 C246.85386471 306.2865421 253.37452814 313.42183855 259.9152832 320.5402832 C262.77544568 323.65561264 265.61484644 326.78817406 268.4375 329.9375 C273.39174944 335.45593444 278.42695853 340.89791761 283.46484375 346.33984375 C284.947544 347.94327278 286.42745836 349.54921626 287.90625 351.15625 C294.60351547 358.43195675 301.35030078 365.6598759 308.12109375 372.8671875 C310.74369347 375.65905144 313.36040319 378.45626574 315.97265625 381.2578125 C324.76490129 390.68927487 324.76490129 390.68927487 333.875 399.8125 C335.74767997 401.74025879 337.49655588 403.71489404 339.25 405.75 C342.97433185 410.03814328 346.94695608 414.0246006 351 418 C354.82205459 421.74883515 358.60128679 425.47438338 362.0625 429.5625 C367.96559905 436.41598461 374.57630007 442.64090624 381 449 C383.66967432 451.64282415 386.33584008 454.28911824 389 456.9375 C389.8971875 457.82223999 389.8971875 457.82223999 390.8125 458.72485352 C393.69020548 461.58609891 396.45110473 464.48979812 399.08216858 467.58018494 C403.53896857 472.69469717 408.32238381 477.46227894 413.12280273 482.25219727 C414.12582666 483.25657926 415.12863839 484.2611732 416.1312561 485.26596069 C418.83351487 487.97274551 421.53888767 490.67639705 424.24500155 493.37932706 C427.08948701 496.22126381 429.93151254 499.06565894 432.77394104 501.90965271 C437.54582179 506.68334786 442.31979578 511.45494201 447.0949707 516.2253418 C452.59942634 521.72435623 458.10027053 527.22696359 463.59925312 532.73145062 C468.3381838 537.47493324 473.07907789 542.2164469 477.82159001 546.95634884 C480.64640541 549.7796129 483.47055917 552.60352991 486.29293633 555.42923164 C488.94763953 558.0868439 491.60481606 560.74195915 494.26384354 563.3952446 C495.69284395 564.82231279 497.11941298 566.25181439 498.54588318 567.68141174 C502.99319684 572.11426998 507.50026795 576.39567225 512.26300144 580.48773098 C514.64277649 582.5596153 516.8724105 584.76007309 519.09570312 586.99804688 C520.01025269 587.91589966 520.92480225 588.83375244 521.86706543 589.77941895 C522.34175766 590.25823013 522.81644989 590.73704132 523.30552673 591.23036194 C524.81812332 592.75593977 526.33401202 594.27818086 527.85070801 595.79968262 C531.61395801 599.57616982 535.37168668 603.35813511 539.12957764 607.13995361 C542.31735668 610.34759868 545.50727042 613.55309295 548.69993591 616.75587463 C550.17970556 618.24203689 551.65638565 619.73121996 553.13293457 621.22058105 C557.65704764 625.76103458 562.22712576 630.14613047 567.09265137 634.31750488 C570.60442636 637.41528374 573.86591634 640.76436531 577.15625 644.09375 C577.9028186 644.84410522 578.64938721 645.59446045 579.4185791 646.36755371 C582.57701112 649.54216504 585.72939279 652.72275916 588.88232422 655.90283203 C591.20069745 658.23940361 593.5221552 660.57287999 595.84375 662.90625 C596.54294556 663.6137439 597.24214111 664.32123779 597.96252441 665.0501709 C601.8468178 668.95349242 605.84012432 672.64082772 610.00939941 676.23648071 C613.48263241 679.31349849 616.73240227 682.60996438 620 685.90234375 C620.7211499 686.6249086 621.4422998 687.34747345 622.18530273 688.0919342 C624.45925415 690.37142604 626.72967954 692.6543924 629 694.9375 C630.55315235 696.49567506 632.10653567 698.05361993 633.66015625 699.61132812 C637.44277586 703.40489759 641.2225169 707.20131615 645 711 C647.97816718 709.57567584 649.97931682 708.22096735 652.25 705.8125 C654.59140877 703.3377932 657.04208451 701.08669762 659.62597656 698.87182617 C663.99268238 695.06227408 668.08434019 691.02648691 672.15625 686.90625 C672.9028186 686.15589478 673.64938721 685.40553955 674.4185791 684.63244629 C676.78152025 682.2574008 679.1411737 679.87913183 681.5 677.5 C684.61160646 674.36160783 687.72663755 671.22667255 690.84375 668.09375 C691.54294556 667.3862561 692.24214111 666.67876221 692.96252441 665.9498291 C696.20772252 662.68873362 699.48667421 659.53095096 702.97265625 656.52734375 C707.39354022 652.71439538 711.49029302 648.61804074 715.59375 644.46875 C716.38471069 643.67400269 717.17567139 642.87925537 717.99060059 642.0604248 C720.49619523 639.54271568 722.99850858 637.02178554 725.5 634.5 C728.7991168 631.17411811 732.10164374 627.85167664 735.40625 624.53125 C736.14919312 623.78000854 736.89213623 623.02876709 737.65759277 622.25476074 C740.9280795 618.9691508 744.21302472 615.76944302 747.74023438 612.75976562 C753.08541067 608.15232905 758.00362419 603.10732605 762.97229004 598.10287476 C764.78735566 596.27487821 766.60567301 594.45017044 768.42480469 592.6262207 C772.28604185 588.75363578 776.14331996 584.87712266 780 581 C784.47423005 576.50205396 788.95013069 572.00579653 793.43029785 567.51376343 C795.20920255 565.72844455 796.98503396 563.94010861 798.76074219 562.15161133 C807.7102642 553.16188449 807.7102642 553.16188449 811.92944336 549.56616211 C818.25329986 544.16709742 824.00862655 538.13467024 829.87890625 532.25390625 C831.21819236 530.91529513 832.55762676 529.57683237 833.89720154 528.23851013 C836.69342996 525.4437495 839.48785859 522.64720514 842.28100586 519.84936523 C845.84368017 516.28099423 849.41082597 512.71713236 852.97934055 509.154603 C855.74282 506.39475402 858.50389242 503.63250678 861.26426506 500.8695507 C862.57791907 499.55523429 863.89230333 498.24164731 865.2074604 496.92883492 C874.02652399 488.12632653 874.02652399 488.12632653 882.35679626 478.86558533 C885.77821807 474.98112829 889.51021975 471.38992352 893.1875 467.75 C894.04883545 466.89245117 894.9101709 466.03490234 895.79760742 465.15136719 C899.45013983 461.51505061 903.10863635 457.88475629 906.76660156 454.25390625 C909.45065156 451.58802403 912.13163241 448.9190819 914.8125 446.25 C915.62936279 445.44143555 916.44622559 444.63287109 917.2878418 443.79980469 C921.52490946 439.58073347 925.57958423 435.27952097 929.47851562 430.74633789 C931.4240965 428.51322814 933.48282906 426.42040892 935.59375 424.34375 C936.39683594 423.54839844 937.19992187 422.75304688 938.02734375 421.93359375 C939.67578125 420.31119792 941.32421875 418.68880208 942.97265625 417.06640625 C947.29572561 412.78497159 951.43755572 408.43866913 955.40039062 403.82226562 C957.8058203 401.08201424 960.39040012 398.54390607 963 396 C966.92319426 392.13016603 970.6542679 388.19181189 974.2265625 383.9921875 C977.19206046 380.66090124 980.41029107 377.58257176 983.58203125 374.44921875 C986.30649918 371.6895396 988.83547376 368.80819343 991.35546875 365.86328125 C993.5134674 363.4182329 995.82918986 361.15815148 998.15600586 358.87524414 C999.93932098 357.06170734 1001.60720454 355.19340362 1003.265625 353.265625 C1006.83051292 349.16562705 1010.51796261 345.19759218 1014.25 341.25 C1023.63131109 331.28366283 1032.85995609 321.18836436 1042 311 C1043.49971128 309.33307353 1044.99971321 307.66640851 1046.5 306 C1047.2425 305.175 1047.985 304.35 1048.75 303.5 C1051 301 1053.25 298.5 1055.5 296 C1056.2425 295.17371094 1056.985 294.34742188 1057.75 293.49609375 C1059.24482689 291.83777017 1060.7448058 290.18407559 1062.25 288.53515625 C1066.0641515 284.34356268 1069.76014329 280.10394348 1073.3125 275.6875 C1077.20191158 270.8749471 1081.3274325 266.3540148 1085.5534668 261.84106445 C1089.49790439 257.60505142 1093.16480701 253.19365192 1096.7890625 248.6796875 C1099.1093495 245.86746685 1101.53071134 243.18202737 1104 240.5 C1108.03633055 236.10971431 1111.84030529 231.5882438 1115.5859375 226.94921875 C1118.3386198 223.586314 1121.16185219 220.29073541 1124 217 C1128.31837456 211.98843586 1132.54907341 206.91780812 1136.71875 201.78125 C1139.29843198 198.63615827 1141.92646255 195.53532832 1144.5625 192.4375 C1148.38155006 187.9432696 1152.12155667 183.39992236 1155.78515625 178.77734375 C1158.04777732 175.94008876 1160.33626061 173.12542162 1162.62988281 170.31323242 C1168.72579602 162.83839747 1174.73398374 155.30211312 1180.67041016 147.70019531 C1182.43079126 145.44913141 1184.19898245 143.20426379 1185.96704102 140.95922852 C1202.72858907 119.6658883 1219.2636387 98.20962592 1235.27783203 76.34716797 C1237.02290613 73.96878089 1238.77407617 71.59500866 1240.52734375 69.22265625 C1251.26584336 54.69217955 1261.88434191 40.09334889 1272.1875 25.25 C1272.86425781 24.27571045 1273.54101562 23.3014209 1274.23828125 22.29760742 C1277.94714526 16.95878245 1277.94714526 16.95878245 1281.64990234 11.61572266 C1283.05180126 9.59336285 1284.46182937 7.57699159 1285.875 5.5625 C1286.27356201 4.98338867 1286.67212402 4.40427734 1287.08276367 3.80761719 C1288.0049249 2.50144447 1288.99540448 1.24388759 1290 0 C1290.66 0 1291.32 0 1292 0 C1291.38550349 4.90637055 1289.29362439 8.76172545 1287 13.0625 C1286.34402832 14.29492432 1286.34402832 14.29492432 1285.67480469 15.55224609 C1268.81328707 46.72033272 1248.57197168 76.19282094 1228 105 C1227.21568604 106.10408203 1227.21568604 106.10408203 1226.41552734 107.23046875 C1218.10625566 118.91801137 1209.46472845 130.3358437 1200.74316406 141.71777344 C1198.51790553 144.63117914 1196.31840637 147.56254058 1194.125 150.5 C1183.34102227 164.91948538 1172.22871411 179.08500974 1160.84106445 193.03173828 C1157.29921986 197.37694742 1153.81876561 201.76430913 1150.375 206.1875 C1145.92964235 211.88880411 1141.31079415 217.4202948 1136.6171875 222.91796875 C1134.20503476 225.74683013 1131.84580002 228.61575122 1129.5 231.5 C1124.87578939 237.1774116 1120.1482319 242.76300005 1115.40722656 248.34277344 C1113.10104556 251.05865766 1110.80082408 253.77957773 1108.5 256.5 C1107.58204582 257.58464775 1106.66407707 258.66928316 1105.74609375 259.75390625 C1103.92455368 261.90651786 1102.10434671 264.06024619 1100.28515625 266.21484375 C1074.00673386 297.327816 1074.00673386 297.327816 1062.25 310.25 C1059.31815907 313.47873622 1056.53742089 316.78259885 1053.8125 320.1875 C1048.90996514 326.25320218 1043.57741963 331.88164977 1038.23046875 337.5546875 C1035.28967421 340.67775922 1032.43600823 343.86272092 1029.63671875 347.11328125 C1027.62126228 349.43658787 1025.56151538 351.71748465 1023.5 354 C1020.84886006 356.93678465 1018.21709829 359.88602542 1015.625 362.875 C1012.16945208 366.84486203 1008.6061603 370.71342243 1005.04077148 374.58422852 C1002.54917687 377.29400279 1000.0886169 380.02234137 997.6875 382.8125 C993.62858592 387.50039834 989.35512404 391.9887823 985.11401367 396.51098633 C982.19167583 399.63263641 979.28802528 402.75678692 976.5 406 C972.55568818 410.58501221 968.38731635 414.96172497 964.25170898 419.37329102 C960.98426737 422.8625184 957.74416621 426.36944548 954.5625 429.9375 C950.03223729 435.00667871 945.3758021 439.95349089 940.71899414 444.90600586 C936.79121861 449.08462598 932.88259555 453.27938559 929 457.5 C922.71261806 464.32959848 916.36350374 471.10058234 910.00585938 477.86474609 C907.91369949 480.09186761 905.82395124 482.32123567 903.734375 484.55078125 C902.32299096 486.05475722 900.91153451 487.55866524 899.5 489.0625 C898.85385742 489.7524707 898.20771484 490.44244141 897.54199219 491.15332031 C893.95526555 494.97037015 890.3159553 498.71743983 886.57885742 502.38769531 C884.90892037 504.0930091 883.3566998 505.86808881 881.8125 507.6875 C878.70384587 511.30139814 875.38884019 514.65285579 872 518 C868.7778816 521.18286018 865.60947378 524.34690319 862.6875 527.8125 C858.61341583 532.6108658 854.08351998 536.96674177 849.5925293 541.37036133 C846.46615618 544.45437056 843.45670186 547.57493505 840.59375 550.90625 C835.91776264 556.32913298 830.7743588 561.27219085 825.671875 566.2890625 C822.22100787 569.7047167 818.84012016 573.11790398 815.6875 576.8125 C810.29841873 583.08320517 804.2775622 588.77717809 798.39746094 594.58203125 C796.82531785 596.13585998 795.25636916 597.69286677 793.6875 599.25 C792.76324219 600.16265625 791.83898438 601.0753125 790.88671875 602.015625 C788.71446121 604.2115799 786.68046215 606.49632886 784.6640625 608.8359375 C780.8653174 613.2181889 776.81021619 617.29918978 772.6875 621.375 C771.91494873 622.14376465 771.14239746 622.9125293 770.34643555 623.70458984 C767.07623964 626.9585983 763.8000651 630.20656266 760.52441406 633.45507812 C758.11834715 635.84295352 755.71536962 638.23390793 753.3125 640.625 C752.58313232 641.34606934 751.85376465 642.06713867 751.10229492 642.81005859 C747.91241769 645.98483189 744.80956067 649.17199685 741.89648438 652.60351562 C736.73451446 658.58810151 731.03811529 664.0713238 725.43611145 669.63905334 C723.30568874 671.75658088 721.17852078 673.8773315 719.05212402 675.99890137 C713.77305066 681.2646852 708.48852263 686.52498392 703.2041626 691.78546143 C698.72826698 696.24155061 694.25447671 700.69973385 689.78340149 705.16065979 C687.69892822 707.23870342 685.61144079 709.31368535 683.52380371 711.3885498 C677.46409289 717.42494003 671.53292258 723.47042359 666 730 C662.99640474 733.24663943 659.91162026 736.40717146 656.8125 739.5625 C656.01908203 740.39330078 655.22566406 741.22410156 654.40820312 742.08007812 C653.64056641 742.85931641 652.87292969 743.63855469 652.08203125 744.44140625 C651.39343018 745.14982666 650.7048291 745.85824707 649.99536133 746.58813477 C648 748 648 748 646.17785645 747.86853027 C643.15435092 746.66275471 641.4540689 744.82046944 639.15893555 742.51538086 C638.69167053 742.05016022 638.22440552 741.58493958 637.74298096 741.10562134 C636.20020427 739.56585167 634.66844317 738.01560221 633.13671875 736.46484375 C632.06119792 735.38626232 630.98508272 734.30827329 629.90840149 733.23085022 C627.65023323 730.96807779 625.39706193 728.70048639 623.14770508 726.42895508 C620.28326314 723.53640064 617.41037679 720.65243159 614.534091 717.7716589 C611.77348252 715.0058539 609.01755405 712.23540321 606.26171875 709.46484375 C605.74385992 708.9451042 605.22600109 708.42536465 604.69244957 707.88987541 C595.45420015 698.60830963 595.45420015 698.60830963 591.56176758 694.05297852 C587.1415736 688.90300165 582.28671309 684.17578757 577.4732666 679.39810181 C575.712475 677.65025078 573.95498136 675.89914028 572.19824219 674.1472168 C568.46831875 670.42863649 564.73446563 666.71401796 561 663 C556.66726227 658.69098571 552.33621847 654.38029623 548.00939941 650.06533813 C546.29055956 648.3529083 544.56870188 646.64355488 542.84667969 644.93432617 C537.91788478 640.02834452 533.09442114 635.09135934 528.57495117 629.79980469 C525.79534701 626.62336043 522.78456461 623.68186691 519.78125 620.71875 C519.11967896 620.06096558 518.45810791 619.40318115 517.77648926 618.72546387 C515.68677265 616.64782726 513.59382685 614.57349373 511.5 612.5 C508.736583 609.7634185 505.97666278 607.02337737 503.21875 604.28125 C502.59875122 603.66954956 501.97875244 603.05784912 501.33996582 602.4276123 C497.59714559 598.70548319 494.0812719 594.84985434 490.63098145 590.85583496 C488.43791484 588.36042357 486.11491009 586.01976563 483.75 583.6875 C483.28819336 583.22947998 482.82638672 582.77145996 482.35058594 582.29956055 C480.90287278 580.86383825 479.45191143 579.43147568 478 578 C472.38192414 572.46099894 466.83516546 566.92538093 461.703125 560.92578125 C458.47849771 557.27958572 454.97130106 553.90920265 451.5 550.5 C446.70072774 545.78658234 442.08486349 541.01956419 437.69726562 535.91992188 C434.94095937 532.80202883 431.9724772 529.9099074 429 527 C424.74424556 522.79323266 420.63598044 518.55950092 416.76953125 513.98828125 C414.00138165 510.87793214 411.01106059 507.99073015 408.04833984 505.06787109 C404.79950089 501.84585434 401.7753355 498.50632868 398.80859375 495.02734375 C395.82716225 491.68530714 392.59906354 488.5918241 389.4140625 485.4453125 C386.71248706 482.70876521 384.20921265 479.85020634 381.7109375 476.9296875 C379.25548723 474.16029838 376.60903661 471.59964876 373.97265625 469.00390625 C371.42662171 466.41753849 369.07978443 463.6846472 366.71484375 460.93359375 C364.52843176 458.46827727 362.19363107 456.18055333 359.8425293 453.8737793 C358.06975976 452.07094291 356.41311736 450.21418978 354.765625 448.296875 C351.0362796 444.00773357 347.16230241 439.87192407 343.25 435.75 C337.66662461 429.8428762 332.12677482 423.90322165 326.6484375 417.8984375 C323.73679356 414.71194811 320.80677805 411.54294394 317.875 408.375 C313.66121633 403.81832739 309.49265909 399.22453214 305.3515625 394.6015625 C302.55067546 391.50290673 299.71418951 388.43852054 296.875 385.375 C293.15186804 381.35623473 289.48908755 377.30110128 285.90625 373.15625 C283.31714909 370.22759487 280.65800659 367.36606337 278 364.5 C274.17203225 360.37129272 270.39141307 356.21513675 266.70703125 351.95703125 C264.66366569 349.6144085 262.58319141 347.30726578 260.5 345 C255.67878725 339.65210014 250.92105973 334.25697785 246.25 328.77734375 C241.50920677 323.21877521 236.75913783 317.69062026 231.8125 312.3125 C228.60354956 308.81740111 225.53934163 305.2571616 222.5625 301.5625 C219.34054925 297.56773566 215.99322017 293.75468333 212.5 290 C208.28725558 285.46743801 204.31970715 280.79075263 200.4375 275.97265625 C197.56279929 272.46681131 194.60267999 269.04338358 191.625 265.625 C183.37165762 256.14338162 175.25076457 246.56757649 167.31640625 236.81640625 C164.72212446 233.66214458 162.08379383 230.54809564 159.4375 227.4375 C155.61850597 222.94321996 151.87844537 218.39992493 148.21484375 213.77734375 C145.95222268 210.94008876 143.66373939 208.12542162 141.37011719 205.31323242 C135.27420398 197.83839747 129.26601626 190.30211312 123.32958984 182.70019531 C121.56906782 180.44895121 119.8007559 178.20388826 118.0324707 175.95874023 C116.18679118 173.61386621 114.34503774 171.26592646 112.50390625 168.91748047 C111.46302976 167.59036295 110.42130672 166.26390911 109.37890625 164.93798828 C101.53172183 154.95004484 93.87676773 144.8435337 86.375 134.59375 C83.73430106 130.98841218 81.05967138 127.41086379 78.36474609 123.84594727 C72.29284947 115.8127743 66.4329901 107.64856688 60.671875 99.39013672 C58.87274289 96.81807139 57.06164029 94.25467475 55.25 91.69140625 C37.09290616 65.91375704 20.23172058 39.21102382 5.0625 11.5625 C4.5478418 10.62639893 4.03318359 9.69029785 3.50292969 8.72583008 C3.03918945 7.86884521 2.57544922 7.01186035 2.09765625 6.12890625 C1.69039307 5.37681885 1.28312988 4.62473145 0.86352539 3.84985352 C0 2 0 2 0 0 Z " fill="#FBFBFB" transform="translate(469,1138)"/>
<path d="M0 0 C0.66773438 0.54398438 1.33546875 1.08796875 2.0234375 1.6484375 C2.64992188 2.15117188 3.27640625 2.65390625 3.921875 3.171875 C10.34924598 8.92563505 14.65665123 17.14741585 16.0234375 25.6484375 C16.11475847 27.72010515 16.15425036 29.79435106 16.15765858 31.86802769 C16.16211642 33.12808835 16.16657426 34.38814901 16.17116719 35.68639332 C16.17107791 37.08223443 16.17088807 38.47807554 16.17060852 39.87391663 C16.17390902 41.3587335 16.17763498 42.84354947 16.18175 44.32836431 C16.19175693 48.40986971 16.19548469 52.49136041 16.19813931 56.57287633 C16.20204623 60.97456509 16.21162429 65.37624224 16.22035217 69.77792358 C16.24010543 80.408542 16.25018127 91.03916134 16.25907996 101.66979352 C16.26346465 106.67761828 16.26883099 111.68544199 16.27406883 116.69326591 C16.29107983 133.34317969 16.30557371 149.99309282 16.31281757 166.64301395 C16.31472742 170.96277429 16.31664776 175.28253461 16.31860352 179.60229492 C16.31908726 180.67593162 16.319571 181.74956832 16.3200694 182.85573947 C16.32836861 200.24553719 16.35370429 217.6352661 16.38618419 235.02503378 C16.4192681 252.88396738 16.43726753 270.74286602 16.44046181 288.60183042 C16.44262565 298.62685536 16.45135592 308.65177994 16.47692299 318.67677498 C16.49864814 327.21497726 16.50667145 335.7530548 16.49695621 344.29128159 C16.4924168 348.6451984 16.49427673 352.99885794 16.51371765 357.35273933 C16.53138796 361.34467642 16.53032057 365.33616929 16.51482036 369.32811134 C16.51245013 370.76626013 16.5167373 372.20444 16.52864901 373.64254142 C16.63123351 386.85419342 14.44088181 397.93202671 5.0234375 407.6484375 C-2.94913094 415.37569614 -11.91114987 418.77023707 -22.9765625 419.1484375 C-35.26488581 418.72843968 -44.00842943 414.39832927 -52.72265625 405.95703125 C-59.13459537 399.06539594 -62.09557845 390.82868779 -62.11078358 381.51786709 C-62.11524142 380.25221399 -62.11969926 378.98656089 -62.12429219 377.68255466 C-62.1242029 376.27522178 -62.12401305 374.86788889 -62.12373352 373.46055603 C-62.12703304 371.96763992 -62.1307588 370.47472471 -62.134875 368.98181063 C-62.14489317 364.87331213 -62.1486115 360.76482824 -62.15126431 356.65631926 C-62.15516793 352.2273653 -62.16474626 347.7984229 -62.17347717 343.36947632 C-62.19324044 332.67022099 -62.20330784 321.97096472 -62.21220496 311.2716957 C-62.21658828 306.23285777 -62.221955 301.19402089 -62.22719383 296.15518379 C-62.24420634 279.40408388 -62.25870026 262.65298463 -62.26594257 245.9018774 C-62.26785246 241.55478349 -62.26977279 237.20768959 -62.27172852 232.8605957 C-62.27221226 231.78014996 -62.272696 230.69970422 -62.2731944 229.5865177 C-62.28149377 212.0860501 -62.30682902 194.58565087 -62.33930919 177.08521312 C-62.3723861 159.11670481 -62.39039193 141.14823124 -62.39358681 123.17969233 C-62.39575137 113.09152745 -62.40449213 103.00346227 -62.43004799 92.91532707 C-62.45176362 84.3232734 -62.45980116 75.73134365 -62.45008121 67.13926565 C-62.44553896 62.75712661 -62.44741832 58.37524319 -62.46684265 53.99313927 C-62.48449266 49.97654308 -62.48346191 45.96038864 -62.46794536 41.94378764 C-62.46557206 40.49553265 -62.46987843 39.04724692 -62.48177401 37.59903883 C-62.57658764 25.28734343 -60.36488111 14.10907725 -51.9765625 4.6484375 C-37.15255727 -8.31405406 -16.68214839 -12.3459943 0 0 Z " fill="#FDFDFD" transform="translate(2028.9765625,568.3515625)"/>
<path d="M0 0 C1.03125 0.598125 2.0625 1.19625 3.125 1.8125 C11.96143112 8.5358715 17.98122076 16.86028558 20 28 C20.29945512 32.81206533 20.27457552 37.62209858 20.26069641 42.44148254 C20.26371863 43.92532709 20.26760847 45.40917008 20.27228898 46.89301032 C20.28256879 50.96248223 20.28038719 55.03186604 20.27610838 59.10134518 C20.27364111 63.49342049 20.28265538 67.88547458 20.29014587 72.27754211 C20.30289519 80.87929377 20.30468625 89.48101421 20.30234561 98.08277372 C20.30056243 105.07527866 20.3023121 112.06777413 20.30657005 119.06027794 C20.30716524 120.05557233 20.30776043 121.05086671 20.30837366 122.07632154 C20.30958541 124.09829349 20.31079955 126.12026544 20.31201603 128.14223739 C20.32289263 147.10479654 20.32072861 166.06733791 20.31463119 185.02989807 C20.30946284 202.37241031 20.32071511 219.71486636 20.33972941 237.05736748 C20.35910807 254.86889816 20.3673637 272.68040225 20.36360615 290.49194354 C20.36169404 300.49002251 20.36418265 310.48805367 20.37832069 320.48612404 C20.39023586 328.99834256 20.39163789 337.51048386 20.37953053 346.02270345 C20.3736426 350.36418742 20.37253999 354.70553014 20.38453293 359.0470047 C20.39539425 363.02513156 20.39228548 367.00299925 20.37827124 370.98111399 C20.37562498 372.41647009 20.37798865 373.85184652 20.38600711 375.28718267 C20.45508472 388.58019299 18.26720768 399.8084545 9.21875 410.0078125 C0.16268099 418.58138603 -10.27045708 421.33657557 -22.39453125 421.2109375 C-33.44208262 420.56460188 -41.80204355 415.64219786 -49.3125 407.6875 C-55.32781328 400.5937441 -58.11917356 393.09367703 -58.13422108 383.85381222 C-58.13867892 382.58467572 -58.14313676 381.31553923 -58.14772969 380.00794405 C-58.1476404 378.59668091 -58.14745055 377.18541778 -58.14717102 375.77415466 C-58.15047053 374.27711376 -58.15419629 372.78007374 -58.1583125 371.28303486 C-58.16833079 367.16313479 -58.17204902 363.04324929 -58.17470181 358.92333877 C-58.17860539 354.48211477 -58.18818373 350.04090231 -58.19691467 345.59968567 C-58.21667804 334.87076748 -58.22674535 324.14184835 -58.23564246 313.41291651 C-58.24002576 308.36013181 -58.24539248 303.30734816 -58.25063133 298.25456429 C-58.26764384 281.45714123 -58.28213778 264.65971882 -58.28938007 247.86228848 C-58.29128996 243.50316301 -58.29321029 239.14403755 -58.29516602 234.78491211 C-58.29564976 233.70147575 -58.2961335 232.6180394 -58.2966319 231.50177164 C-58.30493129 213.95280518 -58.33026659 196.4039069 -58.36274669 178.85497021 C-58.39582339 160.83674136 -58.41382941 142.81854715 -58.41702431 124.80028778 C-58.41918889 114.68417735 -58.42792991 104.56816633 -58.45348549 94.45208549 C-58.47520084 85.83624335 -58.4832388 77.22052477 -58.47351871 68.60465836 C-58.46897638 64.21036799 -58.47085628 59.81633253 -58.49028015 55.42207718 C-58.50792958 51.39437886 -58.50689987 47.36712106 -58.49138286 43.33941794 C-58.48900947 41.8871253 -58.49331639 40.43480202 -58.50521151 38.98255616 C-58.60051213 26.57269724 -56.53891631 16.84388329 -48.32421875 7.29296875 C-35.47092771 -5.38750493 -15.97256086 -9.27866606 0 0 Z " fill="#FDFDFD" transform="translate(252,566)"/>
<path d="M0 0 C27.72 0 55.44 0 84 0 C84 120.12 84 240.24 84 364 C75.00327525 366.24918119 75.00327525 366.24918119 71.34521484 366.86621094 C70.52169525 367.00685974 69.69817566 367.14750854 68.84970093 367.29241943 C67.978909 367.43826477 67.10811707 367.58411011 66.2109375 367.734375 C64.27733539 368.0650553 62.34374196 368.39578633 60.41015625 368.7265625 C57.43268944 369.23219733 54.45500356 369.73649308 51.47705078 370.23925781 C34.23529116 373.157229 17.16220716 376.56755857 0 380 C0 254.6 0 129.2 0 0 Z " fill="#FDFDFD" transform="translate(565,546)"/>
<path d="M0 0 C1.3622168 0.6202002 1.3622168 0.6202002 2.75195312 1.25292969 C14.91051124 6.79371783 26.62380471 13.01877335 38.30078125 19.5078125 C40.86918934 20.92768499 43.447435 22.327152 46.03125 23.71875 C63.60337492 33.20923183 80.74128145 43.48999984 97.21972656 54.78027344 C99.08772728 56.06010498 100.96161489 57.33101065 102.8359375 58.6015625 C123.24595961 72.48390737 143.05579555 87.16645634 162 103 C162.51369141 103.42877441 163.02738281 103.85754883 163.55664062 104.29931641 C169.97315717 109.66353946 176.30789688 115.09768692 182.48828125 120.734375 C184.59179554 122.63179069 186.71511357 124.49940164 188.8515625 126.359375 C200.0082886 136.10739078 210.57743537 146.47778843 221.0625 156.9375 C221.55509308 157.42750488 222.04768616 157.91750977 222.5552063 158.42236328 C227.68550684 163.53136205 232.7151275 168.68293656 237.4284668 174.18334961 C239.98850918 177.1426902 242.69049772 179.96653316 245.375 182.8125 C250.04683901 187.80545284 254.49800315 192.90568757 258.7734375 198.24609375 C260.76706588 200.71189727 262.81026579 203.12591321 264.87866211 205.52905273 C271.40429825 213.12351302 277.46422983 221.0387078 283.49804688 229.02636719 C284.81130546 230.75204703 286.14022261 232.46242277 287.484375 234.1640625 C299.9710718 250.04479433 311.231152 266.91811549 322 284 C322.49532227 284.77956055 322.99064453 285.55912109 323.50097656 286.36230469 C340.55632963 313.24544677 355.52518505 341.34536726 369.375 370 C369.84574951 370.96760254 370.31649902 371.93520508 370.80151367 372.93212891 C371.43730347 374.2651001 371.43730347 374.2651001 372.0859375 375.625 C372.4576709 376.40101563 372.8294043 377.17703125 373.21240234 377.9765625 C374 380 374 380 374 383 C372.35 383 370.7 383 369 383 C368.2555664 381.51113281 367.51120217 380.02223091 366.76708984 378.53320312 C366.07053297 377.14075818 365.37288796 375.74885718 364.67431641 374.35742188 C362.52058742 370.06275653 360.39114379 365.75770104 358.2890625 361.4375 C338.96732987 321.93463253 314.5228017 285.24475883 287 251 C286.25492188 250.071875 285.50984375 249.14375 284.7421875 248.1875 C276.04991102 237.47014119 267.06182842 227.02156422 257.66796875 216.9140625 C255.6910959 214.75484267 253.77110757 212.57625616 251.86425781 210.35717773 C247.92106065 205.84575001 243.74521184 201.60092316 239.50390625 197.37109375 C238.71153061 196.57776138 237.91915497 195.78442902 237.10276794 194.96705627 C235.43749717 193.30110919 233.77097971 191.63640744 232.10327148 189.97290039 C229.56965378 187.44463866 227.04141833 184.91108339 224.51367188 182.37695312 C222.88573717 180.7496793 221.25749225 179.12271575 219.62890625 177.49609375 C218.509786 176.37393715 218.509786 176.37393715 217.36805725 175.22911072 C213.28391268 171.1629071 209.11358177 167.25911467 204.74151611 163.50340271 C202.1610164 161.27572865 199.68201297 158.94856034 197.1875 156.625 C192.56219047 152.35160029 187.79918099 148.31116271 182.890625 144.36328125 C180.25301176 142.20685421 177.67756696 139.99811096 175.10986328 137.76000977 C168.09477432 131.65413793 160.83645271 125.95242569 153.4140625 120.3515625 C150.44405381 118.10858033 147.5043485 115.83314766 144.5859375 113.5234375 C135.38961903 106.25113212 125.99387536 99.44368228 116.26953125 92.89453125 C112.8733827 90.60599949 109.5436035 88.24732688 106.25 85.8125 C35.88728609 34.14156048 -46.64569141 -3.4739292 -255 -49 C-255.78795959 -49.07412109 -256.57591919 -49.14824219 -257.38775635 -49.22460938 C-301.01616678 -53.27994264 -345.33058825 -53.8358881 -389 -50 C-389.71496643 -49.9391925 -390.42993286 -49.87838501 -391.16656494 -49.81573486 C-455.45201455 -44.34197994 -518.1750355 -30.38380543 -579 -9 C-580.23459961 -8.566875 -581.46919922 -8.13375 -582.74121094 -7.6875 C-618.66480477 5.02530069 -654.23477864 20.67949797 -687.39599609 39.52587891 C-690.14544428 41.0823357 -692.90913834 42.61105518 -695.67578125 44.13671875 C-709.12036144 51.58736045 -722.14104425 59.58229001 -735 68 C-735.78713379 68.5141748 -736.57426758 69.02834961 -737.38525391 69.55810547 C-749.43345556 77.45069206 -761.25365139 85.66628457 -773 94 C-773.7950293 94.56396484 -774.59005859 95.12792969 -775.40917969 95.70898438 C-784.90126376 102.46047912 -794.20980733 109.38658519 -803.31005859 116.65722656 C-805.03798765 118.03018378 -806.77675536 119.38813664 -808.51953125 120.7421875 C-814.90180659 125.7053007 -821.17389842 130.76526946 -827.31884766 136.02001953 C-830.64642017 138.8651295 -834.0202901 141.63723534 -837.4375 144.375 C-843.12140811 148.99525279 -848.43324514 153.97706311 -853.76953125 158.98828125 C-856.2575575 161.3210305 -858.7869093 163.59050464 -861.375 165.8125 C-864.76405389 168.73285495 -867.88561896 171.86840845 -871.0234375 175.0546875 C-872.8325149 176.83516288 -874.68881949 178.48542586 -876.625 180.125 C-885.14524536 187.46422125 -893.1650476 195.63209139 -900.4296875 204.2109375 C-902.20465381 206.2331628 -904.08299023 208.11214627 -906 210 C-909.88010533 213.83567664 -913.45685217 217.85376318 -917 222 C-918.29357422 223.49466797 -918.29357422 223.49466797 -919.61328125 225.01953125 C-961.91681797 273.9641143 -996.46015801 327.47357843 -1024 386 C-1025.98 385.67 -1027.96 385.34 -1030 385 C-1029.37446785 381.01553323 -1028.1207222 377.81205333 -1026.3671875 374.1875 C-1025.81627441 373.04458496 -1025.26536133 371.90166992 -1024.69775391 370.72412109 C-1024.09077343 369.48245187 -1023.48317124 368.24108641 -1022.875 367 C-1022.56487976 366.3636261 -1022.25475952 365.7272522 -1021.9352417 365.07159424 C-1019.64385257 360.37090799 -1017.32889859 355.6822061 -1015 351 C-1014.68748291 350.37154175 -1014.37496582 349.7430835 -1014.05297852 349.09558105 C-1004.82111351 330.56978604 -994.82197695 312.64703708 -984 295 C-983.4627832 294.12166504 -982.92556641 293.24333008 -982.37207031 292.33837891 C-964.03299135 262.48584478 -943.46793614 233.88199086 -921 207 C-920.57122559 206.48630859 -920.14245117 205.97261719 -919.70068359 205.44335938 C-914.25909405 198.93429944 -908.73461698 192.52119109 -903.02734375 186.2421875 C-901.26032801 184.28791576 -899.53086471 182.30940263 -897.8125 180.3125 C-887.69800462 168.77247171 -876.96022068 157.85726125 -866.125 147 C-865.53755005 146.40996185 -864.9501001 145.81992371 -864.34484863 145.21200562 C-858.60118632 139.44841255 -852.8777466 133.71914265 -846.68164062 128.43652344 C-844.11188749 126.24133943 -841.66051242 123.92853325 -839.1875 121.625 C-834.53961458 117.3312462 -829.75583652 113.2646816 -824.82421875 109.296875 C-822.33750906 107.2744887 -819.89673716 105.20795255 -817.46728516 103.11743164 C-809.9161054 96.63258684 -802.06524798 90.5832496 -794.11572266 84.59667969 C-792.12694913 83.09580514 -790.14640543 81.58477271 -788.16796875 80.0703125 C-770.74865594 66.79191441 -752.67749935 54.43705404 -734 43 C-733.36223633 42.60796387 -732.72447266 42.21592773 -732.06738281 41.81201172 C-727.73988038 39.15926421 -723.38083187 36.56362124 -719 34 C-718.26185059 33.5678418 -717.52370117 33.13568359 -716.76318359 32.69042969 C-670.90460008 5.94979685 -623.28762278 -15.93426708 -573 -33 C-571.93249512 -33.36754395 -570.86499023 -33.73508789 -569.76513672 -34.11376953 C-490.63680952 -61.21381946 -405.79855296 -73.59591415 0 0 Z " fill="#FCFCFC" transform="translate(1433,73)"/>
<path d="M0 0 C7.92281436 7.27569708 12.33423814 17.23698804 13.14247 27.87923014 C13.2157749 30.53940262 13.22853563 33.19291717 13.21772766 35.8540802 C13.22346598 37.37199623 13.22346598 37.37199623 13.22932023 38.92057723 C13.2395914 42.29191315 13.23566925 45.6630769 13.23168945 49.03442383 C13.2360392 51.45960141 13.24122323 53.88477761 13.24717712 56.30995178 C13.25916309 62.20229037 13.26172183 68.09458665 13.25937686 73.98693279 C13.25758974 78.77971721 13.25935177 83.57248784 13.2636013 88.36527061 C13.26419649 89.04887612 13.26479168 89.73248162 13.26540491 90.43680244 C13.26661673 91.82581586 13.26783087 93.21482928 13.26904728 94.6038427 C13.27991056 107.61484917 13.27776621 120.6258297 13.27166244 133.63683762 C13.26649557 145.52013357 13.27774478 157.40334749 13.29676066 169.28662721 C13.31616842 181.50919196 13.32438983 193.73171795 13.3206374 205.9542982 C13.31872966 212.8079722 13.32117109 219.66157643 13.33535194 226.51523781 C13.34855793 232.96262914 13.34596589 239.40989767 13.33294106 245.85729027 C13.3305803 248.21787955 13.3332919 250.57848043 13.34156418 252.9390564 C13.44108449 283.55593071 13.44108449 283.55593071 2.95703125 296.4375 C-5.89624249 305.12921765 -15.90379256 308.70533743 -28.11303711 308.75878906 C-38.05786083 308.58122435 -46.20714128 304.78974472 -53.54296875 298.1875 C-63.72454851 286.98776227 -66.19730625 277.22910377 -66.18341064 262.33735657 C-66.18786733 260.83425447 -66.18786733 260.83425447 -66.19241405 259.30078667 C-66.20106926 255.95092282 -66.2026066 252.60109484 -66.20410156 249.2512207 C-66.20873197 246.84604313 -66.21375693 244.4408663 -66.21914673 242.03569031 C-66.23225088 235.50658254 -66.23874891 228.9774822 -66.24315739 222.4483645 C-66.24592587 218.36685765 -66.25016429 214.28535315 -66.25466156 210.20384789 C-66.26684905 198.88959178 -66.27714962 187.57533755 -66.28053665 176.26107502 C-66.28075622 175.53780724 -66.28097578 174.81453947 -66.281202 174.06935449 C-66.28142028 173.34441949 -66.28163856 172.6194845 -66.28186345 171.87258178 C-66.28230691 170.40374267 -66.28275347 168.93490356 -66.28320312 167.46606445 C-66.28342455 166.73747946 -66.28364598 166.00889446 -66.28387412 165.25823113 C-66.28782016 153.45887706 -66.30527056 141.65958482 -66.32856265 129.86025462 C-66.35231712 117.72815948 -66.36474035 105.59609532 -66.36590457 93.46397656 C-66.36681899 86.65945036 -66.37251246 79.85500477 -66.39072418 73.05050087 C-66.40723158 66.64745214 -66.40934729 60.24455606 -66.40058517 53.84149361 C-66.39981625 51.497028 -66.40413835 49.15255409 -66.41404343 46.80810928 C-66.54061543 14.97192683 -66.54061543 14.97192683 -55.0390625 2.21484375 C-39.10129691 -13.03865284 -17.18927973 -13.14667666 0 0 Z " fill="#FDFDFD" transform="translate(2129.04296875,624.5625)"/>
<path d="M0 0 C6.91211839 5.81851751 12.05475901 13.69525006 13.92578125 22.62109375 C14.01573138 24.10554805 14.05654873 25.59343246 14.06000233 27.08060551 C14.06446017 27.97353528 14.06891801 28.86646505 14.07351094 29.78645331 C14.07332658 30.76338139 14.07314222 31.74030947 14.07295227 32.74684143 C14.07662896 33.78788731 14.08030565 34.82893319 14.08409375 35.90152591 C14.09513526 39.40123382 14.09897525 42.90091204 14.1027832 46.40063477 C14.10904754 48.90551345 14.11569431 51.41039121 14.12269592 53.91526794 C14.14192611 61.4405991 14.15252505 68.96592505 14.16142371 76.49127451 C14.16580973 80.03780813 14.17117577 83.58434027 14.17641258 87.13087273 C14.19342417 98.92539567 14.20791701 110.7199177 14.21516132 122.51445103 C14.21707112 125.57416854 14.21899147 128.63388604 14.22094727 131.69360352 C14.22143101 132.45405348 14.22191475 133.21450344 14.22241315 133.99799734 C14.23070849 146.30909131 14.2560373 158.62008797 14.28852794 170.93113948 C14.32163587 183.57954997 14.3396135 196.22791108 14.34280556 208.87636513 C14.34496734 215.97436079 14.35366697 223.07221458 14.37926674 230.17016792 C14.4033055 236.85063277 14.40677605 243.53079872 14.39650536 250.21131325 C14.39601015 252.65940448 14.40232611 255.10750831 14.4160614 257.55556107 C14.43380434 260.90616462 14.42666141 264.25585558 14.41352844 267.60646057 C14.42449769 268.5677736 14.43546693 269.52908663 14.44676858 270.51953036 C14.33762968 282.1087231 10.06213496 291.29014108 2.078125 299.52734375 C-6.78849725 307.84751413 -16.19828683 310.13638016 -28.11328125 309.89453125 C-38.99276669 309.14348196 -47.51261438 304.71770704 -54.8203125 296.70703125 C-62.29277045 287.35248289 -64.22522268 278.21163628 -64.21466064 266.5202179 C-64.21763177 265.49394623 -64.22060289 264.46767457 -64.22366405 263.41030377 C-64.23234524 259.96664285 -64.23385881 256.52301671 -64.23535156 253.0793457 C-64.23998015 250.61210557 -64.24500487 248.14486615 -64.25039673 245.67762756 C-64.26351897 238.9708532 -64.27000224 232.26409245 -64.27440739 225.55730844 C-64.27717276 221.36694669 -64.28141067 217.17658723 -64.28591156 212.98622704 C-64.29810232 201.37695237 -64.30840184 189.76767955 -64.31178665 178.15839863 C-64.31200622 177.41575182 -64.31222578 176.67310501 -64.312452 175.90795375 C-64.31267028 175.16356195 -64.31288856 174.41917015 -64.31311345 173.65222102 C-64.31355691 172.14387977 -64.31400348 170.63553852 -64.31445312 169.12719727 C-64.31467455 168.37901296 -64.31489598 167.63082864 -64.31512412 166.85997208 C-64.31907042 154.74228069 -64.33652014 142.6246495 -64.35981265 130.50698135 C-64.38355144 118.05629575 -64.39598966 105.60564032 -64.39715457 93.15493172 C-64.39806994 86.16823464 -64.4037873 79.18161599 -64.42197418 72.19494057 C-64.43902619 65.62121703 -64.44060891 59.04761581 -64.43183517 52.47386742 C-64.43106495 50.06406124 -64.43540559 47.65424707 -64.44529343 45.24446106 C-64.45802218 41.94842688 -64.45213063 38.65291871 -64.44171143 35.35688782 C-64.44976783 34.40890786 -64.45782423 33.4609279 -64.46612477 32.48422128 C-64.37539292 20.16639073 -60.07395401 10.879649 -51.82421875 1.87109375 C-37.45306262 -11.77200822 -15.54298106 -11.39439745 0 0 Z " fill="#FDFDFD" transform="translate(161.07421875,623.37890625)"/>
<path d="M0 0 C9.86159286 6.37764327 16.32589575 14.51224645 19 26 C19.43625354 30.80366628 19.43161856 35.59779824 19.41992188 40.41723633 C19.42727391 41.85720981 19.43586342 43.29717742 19.44558716 44.73713684 C19.46769418 48.62576813 19.47073926 52.51418683 19.46883965 56.40287232 C19.46871943 59.66047701 19.47730453 62.9180375 19.48561716 66.17562979 C19.50481284 73.86784932 19.5077493 81.55996036 19.50097656 89.25219727 C19.49434058 97.16111586 19.5171909 105.06956752 19.55429029 112.97839147 C19.58508201 119.79231934 19.59633705 126.60609775 19.59245348 133.42009372 C19.5903955 137.47931583 19.59571648 141.5381745 19.62034607 145.59733009 C19.64276791 149.41844796 19.64060927 153.23881192 19.62041855 157.05993462 C19.61703538 158.45299502 19.62197992 159.84610774 19.63640213 161.2390976 C19.76333995 174.42113354 16.5773722 184.34297813 7.3203125 193.875 C-1.40078046 201.86199423 -11.08627856 204.60239788 -22.82421875 204.28515625 C-33.19469987 203.35398144 -41.23047195 198.71170499 -49 192 C-50.9140625 189.58984375 -50.9140625 189.58984375 -52.625 186.9375 C-53.19476562 186.08027344 -53.76453125 185.22304688 -54.3515625 184.33984375 C-58.87793867 175.16910531 -59.44013107 166.10023523 -59.40405273 156.01416016 C-59.40976929 154.64447986 -59.41673846 153.27480431 -59.42485046 151.90513611 C-59.44265649 148.21694587 -59.4416373 144.52899517 -59.43590808 140.84077501 C-59.43279754 137.74719769 -59.43892932 134.65366515 -59.44494683 131.56009424 C-59.45894956 124.25421694 -59.45746669 116.94845669 -59.44604492 109.64257812 C-59.43457103 102.13813246 -59.44863666 94.63404449 -59.4754414 87.12964594 C-59.4976868 80.65621307 -59.50421589 74.18289175 -59.49836498 67.70942342 C-59.49501485 63.85649437 -59.4972794 60.00379441 -59.51461601 56.15089798 C-59.53022486 52.52434261 -59.52597789 48.89831189 -59.50731087 45.2717762 C-59.50194199 43.3289467 -59.51603279 41.38609282 -59.53100586 39.4433136 C-59.42724573 26.90480751 -56.78827684 16.21834145 -48 7 C-47.47664063 6.43667969 -46.95328125 5.87335937 -46.4140625 5.29296875 C-34.60617166 -6.08292609 -14.19446478 -8.01118441 0 0 Z " fill="#FDFDFD" transform="translate(2217,676)"/>
<path d="M0 0 C8.83538231 5.55478917 15.77488758 13.43518947 18.58293343 23.66988564 C19.55594372 29.1060088 19.30454593 34.68420938 19.30639648 40.19018555 C19.31402652 41.62986171 19.32245546 43.06953383 19.33161926 44.50920105 C19.35349072 48.40617018 19.36235347 52.30306088 19.36744571 56.20008445 C19.37109867 58.64000412 19.37734364 61.07990354 19.3844471 63.51981544 C19.40891819 72.04699218 19.42198796 80.57410831 19.42553711 89.10131836 C19.4291683 97.02494594 19.45903963 104.94818524 19.50094169 112.87169427 C19.53574376 119.69406052 19.55108727 126.51629872 19.55178314 133.33875304 C19.55257273 137.40473131 19.56116324 141.47031377 19.58978081 145.53619957 C19.61613176 149.36547205 19.61807327 153.19402538 19.60212517 157.02334785 C19.60032396 158.41964168 19.60687989 159.81597851 19.62294388 161.21218109 C19.76539433 174.41011491 16.58896797 184.33103793 7.3203125 193.875 C-1.39755648 201.85904163 -11.09830641 204.62095122 -22.8359375 204.27734375 C-33.07886149 203.3795072 -42.20247412 199.03057152 -49.33203125 191.5546875 C-57.7620709 180.82554613 -59.60448965 169.09215602 -59.50170898 155.73950195 C-59.50550373 154.36465912 -59.5110132 152.98982014 -59.51808167 151.61499023 C-59.53189942 147.92289097 -59.52096617 144.23126483 -59.50437045 140.53919244 C-59.49039307 136.65350097 -59.49699401 132.76783347 -59.50050354 128.88212585 C-59.50319477 122.3636422 -59.48982095 115.84534384 -59.46655273 109.3269043 C-59.43991625 101.81331096 -59.4382106 94.30002647 -59.4499411 86.78640205 C-59.46075335 79.52430643 -59.45450701 72.26232147 -59.44038582 65.0002346 C-59.43465919 61.92432191 -59.43468221 58.84849107 -59.43945122 55.77257729 C-59.4442554 52.14687433 -59.43397865 48.52150585 -59.41249657 44.89586639 C-59.40436246 42.94653923 -59.41074111 40.99716804 -59.41769409 39.0478363 C-59.31346662 26.61631258 -56.38103283 16.22930506 -48.03125 6.76953125 C-35.51493299 -5.3159705 -15.48933085 -8.70658247 0 0 Z " fill="#FDFDFD" transform="translate(59,676)"/>
</svg>
