<?xml version="1.0" encoding="UTF-8"?>
<svg version="1.1" xmlns="http://www.w3.org/2000/svg" width="1840" height="274">
<path d="M0 0 C39.7546875 -0.0928125 39.7546875 -0.0928125 80.3125 -0.1875 C88.64927002 -0.21481201 96.98604004 -0.24212402 105.57543945 -0.27026367 C115.83630371 -0.28381348 115.83630371 -0.28381348 120.65544128 -0.28633118 C123.98716859 -0.28910129 127.31874926 -0.30024309 130.6504364 -0.31672668 C192.68961891 -0.61006145 192.68961891 -0.61006145 215.5625 21.3984375 C228.74344457 35.46656103 233.85969696 52.64483752 233.28125 71.6328125 C232.49995263 86.61418955 226.49946972 100.25431156 216 111 C200.99370079 124 200.99370079 124 193 124 C193 124.66 193 125.32 193 126 C194.01449219 126.11085938 195.02898437 126.22171875 196.07421875 126.3359375 C210.52890247 128.78100838 223.70329437 137.92344181 233 149 C244.69927594 165.48534337 247.43186568 185.92374756 244.38671875 205.62890625 C241.08745144 222.88601042 231.56343052 238.80562587 217.5 249.4375 C203.82999256 258.65902736 189.07219701 262.14657036 172.88452148 264.22558594 C172.23366038 264.30962535 171.58279928 264.39366477 170.91221511 264.48025084 C154.38473512 266.56063173 137.88059163 266.52234638 121.24898529 266.40512085 C117.38241051 266.38177991 113.51593793 266.38123885 109.64929199 266.37841797 C98.453632 266.35769901 87.25805907 266.30185626 76.0625 266.25 C50.961875 266.1675 25.86125 266.085 0 266 C0 178.22 0 90.44 0 0 Z M83 55 C83 71.5 83 88 83 105 C89.331875 105.04125 95.66375 105.0825 102.1875 105.125 C105.1423938 105.15231201 105.1423938 105.15231201 108.15698242 105.18017578 C127.01877933 105.8350778 127.01877933 105.8350778 144 99 C149.90273106 93.0576533 151.66583873 87.21043201 152.3125 79.0625 C152.08755231 72.68898211 150.32012127 67.05925373 146.125 62.1875 C134.9092383 52.56395187 118.93871456 54.53067155 105.1875 54.75 C94.2046875 54.87375 94.2046875 54.87375 83 55 Z M83 156 C83 173.49 83 190.98 83 209 C93.395 209.061875 93.395 209.061875 104 209.125 C106.15144531 209.14320801 108.30289063 209.16141602 110.51953125 209.18017578 C134.38571987 210.01827163 134.38571987 210.01827163 155.08984375 200.0703125 C161.39821739 193.23301592 162.47818604 187.67929037 162.3046875 178.4453125 C161.70712986 171.68831453 159.13138074 167.82362878 154.3125 163.1875 C145.30274901 155.82198662 134.15505111 155.85026959 123.0390625 155.90234375 C122.02287842 155.90335083 121.00669434 155.90435791 119.9597168 155.90539551 C116.18146631 155.91060825 112.40323196 155.92456947 108.625 155.9375 C95.940625 155.9684375 95.940625 155.9684375 83 156 Z " fill="#4E4E4E" transform="translate(873,3)"/>
<path d="M0 0 C2.97879812 0.01606195 5.95728482 0.0058934 8.93609238 -0.00372505 C39.06187914 -0.08156913 70.08201651 2.21737731 93.47991943 23.44952393 C94.7270874 24.55747314 94.7270874 24.55747314 95.99945068 25.68780518 C108.49975366 37.42004038 118.47242112 54.7146943 122.47991943 71.44952393 C122.47991943 72.76952393 122.47991943 74.08952393 122.47991943 75.44952393 C106.58656957 78.77876248 90.629876 81.77335158 74.65734863 84.69564819 C72.37261749 85.11485801 70.08847386 85.53728255 67.80493164 85.96292114 C64.5471461 86.56912714 61.28735793 87.16315411 58.02679443 87.75421143 C57.03809357 87.94039536 56.0493927 88.12657928 55.0307312 88.31840515 C53.64964676 88.56482506 53.64964676 88.56482506 52.24066162 88.81622314 C51.03805695 89.03675858 51.03805695 89.03675858 49.81115723 89.26174927 C47.12586344 89.47804214 45.05831385 89.22732214 42.47991943 88.44952393 C40.89007568 85.97296143 40.89007568 85.97296143 39.54241943 82.82452393 C34.41120441 71.86061132 27.53071511 66.11837394 16.22991943 61.63702393 C1.72900168 57.04506664 -14.99628544 58.33731501 -28.70758057 64.69952393 C-42.05745597 71.9093124 -50.70971092 82.79513623 -55.1026001 97.38409424 C-58.62762548 110.036045 -59.75852177 122.15690107 -59.77008057 135.26202393 C-59.77108765 136.04820099 -59.77209473 136.83437805 -59.77313232 137.64437866 C-59.75441361 159.19705149 -57.89959058 182.77799044 -42.27008057 199.26202393 C-29.46084377 211.2173116 -13.78873832 214.82950579 3.38616943 214.66046143 C20.15966076 214.01224921 35.59116883 208.03091695 50.00335693 199.76983643 C52.47991943 198.44952393 52.47991943 198.44952393 54.47991943 198.44952393 C54.47991943 190.52952393 54.47991943 182.60952393 54.47991943 174.44952393 C36.32991943 174.44952393 18.17991943 174.44952393 -0.52008057 174.44952393 C-0.52008057 155.96952393 -0.52008057 137.48952393 -0.52008057 118.44952393 C41.38991943 118.44952393 83.29991943 118.44952393 126.47991943 118.44952393 C126.87179443 137.01202393 127.26366943 155.57452393 127.66741943 174.69952393 C127.84039551 180.54187744 128.01337158 186.38423096 128.19158936 192.40362549 C128.27740479 199.58575439 128.27740479 199.58575439 128.29335022 202.95727539 C128.32236873 205.29244949 128.38888336 207.62735313 128.4858551 209.96069336 C129.24109864 229.10483343 129.24109864 229.10483343 124.67139053 234.64024353 C120.22716622 238.44556564 115.30117108 240.98750821 109.96676064 243.32152557 C106.65568608 244.8233853 103.56607728 246.6303055 100.43860149 248.47815323 C54.09690505 275.64179358 -3.4253362 281.78143197 -55.37945557 268.86358643 C-84.22154682 261.22266395 -108.52107439 243.1064841 -123.67584229 217.49639893 C-135.49955217 197.05722703 -142.58245726 174.22111525 -142.75836182 150.53155518 C-142.76643356 149.47909103 -142.77450531 148.42662689 -142.78282166 147.3422699 C-142.79661725 145.11412172 -142.80735951 142.88595281 -142.81524658 140.65777588 C-142.82668409 138.41715132 -142.84700253 136.1765522 -142.87677002 133.93609619 C-143.38020792 95.9532532 -132.25352869 61.1954125 -105.52008057 33.44952393 C-76.22619659 4.90823079 -38.89437386 -0.29784894 0 0 Z " fill="#285326" transform="translate(142.52008056640625,-0.44952392578125)"/>
<path d="M0 0 C1.49680383 1.29235002 2.97742035 2.60379925 4.4375 3.9375 C5.10652344 4.515 5.77554688 5.0925 6.46484375 5.6875 C25.43090689 23.11374415 32.26804372 49.16954082 34.4375 73.9375 C34.4375 82.1875 34.4375 90.4375 34.4375 98.9375 C-14.0725 98.9375 -62.5825 98.9375 -112.5625 98.9375 C-107.37294029 118.84487867 -107.37294029 118.84487867 -93 132.25 C-83.82820669 136.35597724 -73.08460728 137.03423116 -63.5625 133.9375 C-55.76099282 130.84244362 -47.48980743 126.79211487 -43.5625 118.9375 C-27.61637695 119.58929608 -11.76228353 121.01589245 4.125 122.5 C6.68811968 122.73666803 9.25127055 122.97299847 11.81445312 123.20898438 C18.02249976 123.78127206 24.23015092 124.35769771 30.4375 124.9375 C28.93420687 129.74384473 26.96351656 133.51594038 24 137.5625 C23.5575293 138.16932617 23.11505859 138.77615234 22.65917969 139.40136719 C4.73229386 163.55164135 -17.7208153 175.29791313 -47.33203125 179.6875 C-81.34146041 184.06170311 -122.96685682 183.68811159 -151.375 162 C-171.82174506 145.81931524 -183.86965058 123.27036225 -187.875 97.625 C-190.91168823 70.03201561 -187.37034744 40.9615877 -170.1875 18.25 C-168.99102815 16.80261242 -167.78228754 15.36529342 -166.5625 13.9375 C-165.91925781 13.13828125 -165.27601563 12.3390625 -164.61328125 11.515625 C-147.86503496 -8.42128925 -122.03587247 -18.31224335 -96.63916016 -20.83544922 C-63.53459225 -23.27849383 -27.18019343 -21.08021109 0 0 Z M-104.5625 36.9375 C-109.39342651 43.99897391 -112.5625 53.35402684 -112.5625 61.9375 C-89.1325 61.9375 -65.7025 61.9375 -41.5625 61.9375 C-42.74799023 50.08259774 -45.16960453 38.22415929 -54.703125 30.1171875 C-71.23070695 18.48042061 -91.62950119 22.32459209 -104.5625 36.9375 Z " fill="#285326" transform="translate(800.5625,93.0625)"/>
<path d="M0 0 C2.49646315 2.19054255 4.90063432 4.43814236 7.26953125 6.765625 C7.883125 7.36632812 8.49671875 7.96703125 9.12890625 8.5859375 C32.06918656 32.89421618 33.26953125 66.23347791 33.26953125 97.765625 C-15.24046875 97.765625 -63.75046875 97.765625 -113.73046875 97.765625 C-108.8237166 116.7728588 -108.8237166 116.7728588 -95.73046875 129.765625 C-86.82210688 134.6737352 -77.47987433 135.7326584 -67.58984375 133.609375 C-59.76923378 131.30165402 -53.71562354 128.23578003 -48.60546875 121.828125 C-45.79645482 118.88410014 -44.43701621 117.82121321 -40.32324219 117.49755859 C-38.95198531 117.5925134 -37.58233585 117.7125402 -36.21484375 117.8515625 C-35.44604889 117.91202255 -34.67725403 117.9724826 -33.88516235 118.03477478 C-31.16454751 118.25576359 -28.44813985 118.51105755 -25.73046875 118.765625 C-23.5230703 118.95607979 -21.31554315 119.14504704 -19.10791016 119.33276367 C-11.77076209 119.96621043 -4.43817635 120.64549344 2.89453125 121.328125 C5.46221224 121.56474997 8.02992042 121.80108022 10.59765625 122.03710938 C16.82193158 122.60988837 23.04586314 123.18628726 29.26953125 123.765625 C27.76623812 128.57196973 25.79554781 132.34406538 22.83203125 136.390625 C22.38956055 136.99745117 21.94708984 137.60427734 21.49121094 138.22949219 C4.99555832 160.45167494 -16.14266395 173.46557761 -43.6484375 177.7421875 C-79.3754241 182.69287958 -121.05149805 183.23019149 -151.7578125 161.63671875 C-172.37597074 145.47185135 -184.99512335 122.34449003 -188.98046875 96.578125 C-192.16593342 68.79857726 -188.50121893 39.00169776 -170.73046875 16.453125 C-169.40434076 14.88450504 -168.07143668 13.32157777 -166.73046875 11.765625 C-166.20066406 11.09144531 -165.67085937 10.41726562 -165.125 9.72265625 C-149.638467 -9.43475865 -124.39469764 -18.80711569 -100.59375 -21.73046875 C-66.41570076 -25.12611513 -27.51672987 -22.51726679 0 0 Z M-104.73046875 34.765625 C-110.41375368 42.75907313 -112.52809997 51.14667473 -113.73046875 60.765625 C-90.30046875 60.765625 -66.87046875 60.765625 -42.73046875 60.765625 C-43.91595898 48.91072274 -46.33757328 37.05228429 -55.87109375 28.9453125 C-71.6504441 17.83536174 -92.0908876 20.64934031 -104.73046875 34.765625 Z " fill="#4E4E4E" transform="translate(1592.73046875,94.234375)"/>
<path d="M0 0 C2.54882658 0.01072062 5.09694645 0.00002792 7.64575195 -0.01269531 C32.98995161 -0.03494739 60.21841973 2.48844893 79.51586914 20.77075195 C86.67540842 28.04285482 97.61645508 41.85405114 97.61645508 52.26074219 C94.96806404 53.58493771 92.65514683 53.64394069 89.70141602 53.92504883 C88.45962585 54.04509781 87.21783569 54.16514679 85.93841553 54.28883362 C84.57590278 54.4163568 83.21337388 54.54370745 81.85083008 54.67089844 C80.45556113 54.80372185 79.06031812 54.93681791 77.6651001 55.07017517 C74.73652115 55.34920664 71.80769664 55.62545137 68.87866211 55.8996582 C65.13470556 56.2503025 61.39135359 56.60696878 57.64815903 56.96564579 C54.76407929 57.24146368 51.87973823 57.51446362 48.99530792 57.78658867 C47.61581426 57.91699247 46.23639294 58.04816397 44.85704803 58.18013191 C42.9213201 58.36481944 40.98520197 58.54540308 39.04907227 58.72583008 C37.39932404 58.8811898 37.39932404 58.8811898 35.71624756 59.03968811 C32.67092923 59.2568575 29.66831994 59.30001528 26.61645508 59.26074219 C26.35993164 58.60847656 26.1034082 57.95621094 25.83911133 57.28417969 C22.78777647 50.31850618 19.47301185 46.59007196 12.61645508 43.26074219 C3.56276506 39.8265839 -8.55062704 39.54470199 -17.57495117 43.22949219 C-20.99046038 45.17699636 -22.38733823 46.78347892 -24.38354492 50.26074219 C-25.05744963 53.41862624 -25.30311961 56.15041605 -24.38354492 59.26074219 C-14.47929469 70.68821007 6.68729922 70.19896929 20.79614258 72.11254883 C47.41578866 75.75435934 75.32821394 79.92448151 93.67895508 101.58105469 C104.22274537 116.1637969 105.72824227 132.78807453 102.99926758 150.19824219 C98.28942269 167.20369982 86.20141121 180.80857586 71.10473633 189.48339844 C34.5902181 208.08822015 -17.45962342 207.12260978 -56.00073242 195.13574219 C-73.4792985 188.88458444 -86.32874805 177.71919387 -94.75854492 161.26074219 C-95.259104 160.30107544 -95.259104 160.30107544 -95.76977539 159.32202148 C-97.59629648 155.59807837 -98.71624318 152.08517518 -99.48754883 148.00292969 C-99.74346298 146.66657471 -99.74346298 146.66657471 -100.00454712 145.30322266 C-100.19215103 144.29219482 -100.19215103 144.29219482 -100.38354492 143.26074219 C-91.32599546 142.34571933 -82.26823371 141.43283555 -73.21019363 140.52268219 C-69.00419862 140.09999523 -64.79828047 139.67657171 -60.5925293 139.25146484 C-56.53379103 138.84124504 -52.47486236 138.43296013 -48.41579437 138.02601624 C-46.86718558 137.87041626 -45.31864667 137.71411913 -43.77017975 137.55711365 C-41.60144327 137.33733672 -39.43247162 137.12003929 -37.26342773 136.90332031 C-35.41143768 136.71678894 -35.41143768 136.71678894 -33.52203369 136.52648926 C-30.38354492 136.26074219 -30.38354492 136.26074219 -26.38354492 136.26074219 C-25.85567383 137.43830078 -25.85567383 137.43830078 -25.31713867 138.63964844 C-21.28385179 147.22223019 -17.56013507 153.69555148 -8.69604492 157.69824219 C1.67260183 161.01563471 15.9110926 161.33891317 25.76879883 156.40136719 C31.4695374 152.91030436 31.4695374 152.91030436 34.61645508 147.26074219 C34.94311653 143.14480788 35.02045569 140.37174387 33.61645508 136.51074219 C28.7359798 131.0202075 21.30723069 129.41347282 14.36645508 127.94824219 C12.98586914 127.64358032 12.98586914 127.64358032 11.57739258 127.33276367 C3.85165718 125.66013699 -3.91200562 124.19350754 -11.67724609 122.71899414 C-68.08332811 111.99806177 -68.08332811 111.99806177 -83.25854492 91.26074219 C-91.66355865 78.46534482 -94.12292586 65.27562563 -91.91870117 50.04980469 C-88.24394573 33.48078904 -79.44535467 22.29108997 -65.38354492 13.26074219 C-58.66810902 9.14232912 -51.75589212 6.57202979 -44.19604492 4.51074219 C-43.47932617 4.31198486 -42.76260742 4.11322754 -42.02416992 3.90844727 C-28.25499084 0.41676305 -14.12896671 -0.07035395 0 0 Z " fill="#4E4E4E" transform="translate(1736.383544921875,71.7392578125)"/>
<path d="M0 0 C0 24.09 0 48.18 0 73 C13.2 73 26.4 73 40 73 C40 91.15 40 109.3 40 128 C26.8 128 13.6 128 0 128 C0.09084952 141.69254034 0.09084952 141.69254034 0.20898438 155.38476562 C0.26324267 160.97206053 0.31435531 166.55925652 0.34643555 172.14672852 C0.37251026 176.65322007 0.41294205 181.15937816 0.46318626 185.66566277 C0.47982683 187.38193541 0.49135858 189.0982657 0.49761391 190.81460762 C0.50728577 193.22514647 0.53538069 195.6348376 0.56762695 198.04516602 C0.56619186 198.74935669 0.56475677 199.45354736 0.5632782 200.17907715 C0.6578784 205.20348745 1.74577728 208.5986853 4 213 C6.99810032 215.81071905 9.57692084 217.00808568 13.75 216.984375 C20.36394941 216.50740749 26.41795215 215.58701484 32.7578125 213.62109375 C35 213 35 213 38 213 C38.71755169 219.27990398 39.42897837 225.56048052 40.13623047 231.84155273 C40.37734596 233.97647666 40.61984279 236.11124506 40.86376953 238.24584961 C41.21493423 241.32104905 41.56106308 244.39678079 41.90625 247.47265625 C42.07030334 248.89494286 42.07030334 248.89494286 42.2376709 250.34596252 C42.7848088 255.2673138 43.11909929 260.04844717 43 265 C14.97737052 271.53016026 -24.32717343 278.38621704 -50.71484375 263.46484375 C-62.3169226 255.80572703 -69.41811242 245.37809591 -72.32568359 231.76123047 C-76.07081087 210.87150173 -75.24402512 189.46312293 -75.1373291 168.33154297 C-75.11655826 163.77182904 -75.10766987 159.21209174 -75.09765625 154.65234375 C-75.07645747 145.76815935 -75.04139848 136.88411324 -75 128 C-83.91 128 -92.82 128 -102 128 C-102 109.85 -102 91.7 -102 73 C-93.09 73 -84.18 73 -75 73 C-75 61.45 -75 49.9 -75 38 C-60.02419284 30.07633094 -44.96248006 22.33601647 -29.86132812 14.65454102 C-26.9250805 13.16038833 -23.98984643 11.66425869 -21.0546875 10.16796875 C-20.17642303 9.7220488 -19.29815857 9.27612885 -18.39328003 8.81669617 C-13.45846801 6.30012153 -8.60566257 3.68675449 -3.81057739 0.9120636 C-2 0 -2 0 0 0 Z " fill="#4E4E4E" transform="translate(1348,3)"/>
<path d="M0 0 C25.74 0 51.48 0 78 0 C99.32574321 68.71628366 99.32574321 68.71628366 104.54296875 85.921875 C104.87369385 87.0124118 105.20441895 88.10294861 105.54516602 89.22653198 C107.05218646 94.20093519 108.55384301 99.17689885 110.04931641 104.15478516 C110.57062467 105.88183997 111.09194541 107.60889101 111.61328125 109.3359375 C111.96014229 110.49944733 111.96014229 110.49944733 112.31401062 111.6864624 C113.14336301 115.11883234 113.14336301 115.11883234 115 118 C118.1037228 108.29274752 121.20482441 98.58466003 124.30401993 88.8759613 C124.80791206 87.29750427 125.31185609 85.7190638 125.81585312 84.14064026 C133.20189709 61.00850849 140.53064334 37.86060758 147.69360352 14.65820312 C147.98285706 13.725224 148.2721106 12.79224487 148.57012939 11.83099365 C149.10327688 10.11131967 149.63392525 8.39086802 150.16156006 6.66949463 C151.88716645 1.11283355 151.88716645 1.11283355 153 0 C155.34253782 -0.09492722 157.65546104 -0.12559791 159.99829102 -0.11352539 C161.09578674 -0.11374443 161.09578674 -0.11374443 162.2154541 -0.1139679 C164.64496784 -0.11326867 167.07440583 -0.10547585 169.50390625 -0.09765625 C171.18399514 -0.0957921 172.86408457 -0.09436819 174.54417419 -0.09336853 C178.97473643 -0.08954307 183.4052661 -0.07971256 187.83581543 -0.06866455 C192.35342976 -0.05845103 196.87104934 -0.05387104 201.38867188 -0.04882812 C210.25912893 -0.03809031 219.12956176 -0.02101356 228 0 C226.06488746 6.07548201 223.86159639 11.96121215 221.359375 17.82421875 C221.0047821 18.66265823 220.65018921 19.50109772 220.28485107 20.36494446 C219.10990685 23.14055819 217.9299941 25.91402978 216.75 28.6875 C215.90794594 30.67371911 215.0661554 32.66004996 214.22460938 34.64648438 C206.69709198 52.40323235 199.12921294 70.1429185 191.56494141 87.8840332 C185.00096347 103.28211193 178.47155008 118.69441814 171.96835327 134.11825562 C163.68559998 153.76262211 155.34633832 173.38253814 147 193 C124.89 193 102.78 193 80 193 C73.12150271 178.09658921 73.12150271 178.09658921 70.6171875 171.88671875 C70.1793116 170.81284157 70.1793116 170.81284157 69.73258972 169.7172699 C69.10528344 168.17847838 68.47920313 166.63918657 67.85427856 165.09942627 C66.11457704 160.81460684 64.36375989 156.53433181 62.61328125 152.25390625 C62.24252975 151.34695007 61.87177826 150.4399939 61.48979187 149.5055542 C57.06368997 138.69137784 52.56340971 127.90820206 48.0625 117.125 C46.35924508 113.04302295 44.65615963 108.96097521 42.953125 104.87890625 C42.53538315 103.87770752 42.1176413 102.87650879 41.6872406 101.8449707 C36.85734395 90.26607789 32.05160932 78.67719062 27.25146484 67.0859375 C26.5660909 65.43098537 25.88070679 63.77603745 25.1953125 62.12109375 C24.85676239 61.30357635 24.51821228 60.48605896 24.16940308 59.64376831 C21.94947526 54.28539178 19.72311647 48.92972412 17.49293518 43.5756073 C15.93209814 39.82807912 14.37303161 36.07981546 12.8140564 32.33151245 C12.07455366 30.55488292 11.33420438 28.77860547 10.59292603 27.00271606 C9.56362128 24.53658906 8.53737904 22.06920703 7.51171875 19.6015625 C7.06594986 18.53694542 7.06594986 18.53694542 6.61117554 17.45082092 C4.21900022 11.68232192 2.14120091 5.8883025 0 0 Z " fill="#285326" transform="translate(393,76)"/>
<path d="M0 0 C24.42 0 48.84 0 74 0 C74 63.69 74 127.38 74 193 C49.58 193 25.16 193 0 193 C0 129.31 0 65.62 0 0 Z " fill="#285326" transform="translate(305,76)"/>
<path d="M0 0 C24.42 0 48.84 0 74 0 C74 63.69 74 127.38 74 193 C49.58 193 25.16 193 0 193 C0 129.31 0 65.62 0 0 Z " fill="#4E4E4E" transform="translate(1148,76)"/>
<path d="M0 0 C24.42 0 48.84 0 74 0 C74 16.83 74 33.66 74 51 C49.58 51 25.16 51 0 51 C0 34.17 0 17.34 0 0 Z " fill="#4E4E4E" transform="translate(1148,3)"/>
<path d="M0 0 C24.42 0 48.84 0 74 0 C74 16.83 74 33.66 74 51 C49.58 51 25.16 51 0 51 C0 34.17 0 17.34 0 0 Z " fill="#285326" transform="translate(305,3)"/>
</svg>
