<?xml version="1.0" encoding="UTF-8"?>
<svg version="1.1" xmlns="http://www.w3.org/2000/svg" width="401" height="401">
<path d="M0 0 C1.90446267 -0.0040778 3.80892297 -0.00942638 5.71337891 -0.01593018 C10.82912128 -0.02946604 15.94467971 -0.02436261 21.0604248 -0.01479292 C26.4491419 -0.00712436 31.83784469 -0.01426169 37.2265625 -0.01895142 C46.27086169 -0.02438822 55.31508705 -0.01727214 64.359375 -0.00292969 C74.77157509 0.01339276 85.18359885 0.00810278 95.59579468 -0.0084089 C104.58321629 -0.02208323 113.57058525 -0.02391453 122.55801392 -0.0160929 C127.90491622 -0.0114489 133.25173602 -0.01070027 138.59863281 -0.02070236 C143.62872448 -0.02945692 148.65859188 -0.02319748 153.68865967 -0.00601959 C155.51942576 -0.00209959 157.3502112 -0.00311026 159.18096924 -0.00980759 C192.304837 -0.11968143 222.54922974 9.59671715 246.5 33.13818359 C260.96065014 47.88992086 271.55386814 66.14371878 276.25 86.38818359 C276.41530024 87.05535621 276.58060047 87.72252882 276.75090981 88.40991879 C278.82861242 97.98519641 278.54633698 107.60846959 278.54052734 117.35327148 C278.54652001 119.36507413 278.55332724 121.37687449 278.56088257 123.38867188 C278.57847748 128.82915063 278.58323528 134.26956638 278.58451414 139.71007085 C278.58594033 143.11759223 278.59021882 146.52509783 278.59550858 149.93261528 C278.6139894 161.84481693 278.62218189 173.75697395 278.62060547 185.66918945 C278.61940555 196.73280364 278.64048357 207.79622229 278.6720928 218.85978705 C278.69834199 228.39058148 278.70896911 237.9213124 278.70769465 247.45214266 C278.70718743 253.13006664 278.71273663 258.80781679 278.73405075 264.48570442 C278.75357857 269.83336897 278.75345923 275.18069648 278.73901749 280.52837372 C278.736946 282.4768594 278.74152953 284.425367 278.7537384 286.37381554 C278.94056568 318.29016336 267.95128751 346.66151455 245.5 369.57568359 C221.61177496 393.20425401 191.05019493 401.89355396 158.23046875 401.77636719 C156.28512276 401.7804437 154.33977908 401.78579157 152.3944397 401.79229736 C147.16300789 401.8058485 141.93175571 401.8007233 136.7003212 401.79116011 C131.19368296 401.78349965 125.68705885 401.79062668 120.18041992 401.7953186 C110.93763503 401.80075772 101.69492234 401.79363319 92.45214844 401.77929688 C81.80648734 401.76297398 71.16099869 401.76826379 60.51534176 401.78477609 C51.33177954 401.79844375 42.14826886 401.80028493 32.96469975 401.79246008 C27.49876649 401.78781247 22.03291397 401.7870777 16.56698608 401.79706955 C11.42528696 401.80581425 6.28380751 401.79958207 1.14213181 401.78238678 C-0.73098005 401.77846164 -2.60411079 401.77948663 -4.47721481 401.78617477 C-19.0465936 401.83335116 -33.5983486 400.90309362 -47.375 395.70068359 C-48.06682373 395.44649658 -48.75864746 395.19230957 -49.47143555 394.93041992 C-61.80513432 390.23340777 -72.5182567 383.69769109 -82.75 375.38818359 C-83.47703125 374.81455078 -84.2040625 374.24091797 -84.953125 373.64990234 C-90.69795729 368.91154657 -95.22473435 363.27430812 -99.75 357.38818359 C-100.3584375 356.60701172 -100.966875 355.82583984 -101.59375 355.02099609 C-109.10262456 344.88401544 -114.35877481 333.57617688 -118.125 321.57568359 C-118.36355713 320.84365723 -118.60211426 320.11163086 -118.84790039 319.35742188 C-123.14535432 304.71781192 -123.04855418 288.84835639 -123.00878906 273.71801758 C-123.01150908 271.94148619 -123.0150756 270.16495592 -123.01940918 268.38842773 C-123.02841484 263.62607058 -123.02503872 258.86380147 -123.01865101 254.10144305 C-123.01352974 249.07975731 -123.01829919 244.0580783 -123.02142334 239.03639221 C-123.02504501 230.61010405 -123.02031109 222.18385115 -123.01074219 213.75756836 C-122.9998576 204.06167383 -123.00339057 194.36586343 -123.014395 184.66997093 C-123.02351523 176.29399702 -123.02473024 167.91804821 -123.01951766 159.54207093 C-123.01642431 154.56184613 -123.01591518 149.58166068 -123.02259064 144.60143852 C-123.02843307 139.91692352 -123.02424324 135.23251542 -123.01280212 130.54801178 C-123.01019212 128.84463489 -123.01085657 127.14124877 -123.01532745 125.43787575 C-123.09901861 90.26850508 -114.99539824 58.90133605 -89.75 33.38818359 C-89.08484375 32.66244141 -88.4196875 31.93669922 -87.734375 31.18896484 C-65.13329242 7.02100049 -31.70541337 -0.11598551 0 0 Z " fill="#F7F7F9" transform="translate(122.75,-0.38818359375)"/>
<path d="M0 0 C6.63983432 4.62868207 12.40460079 10.24605485 18.1875 15.875 C19.10934082 16.75816895 19.10934082 16.75816895 20.04980469 17.65917969 C28.92459991 26.17118307 36.90999304 34.96378165 44.1875 44.875 C44.83477051 45.74705078 44.83477051 45.74705078 45.49511719 46.63671875 C61.73509795 68.58067486 73.79982113 92.69019877 84.1875 117.875 C84.63875244 118.96385498 84.63875244 118.96385498 85.09912109 120.07470703 C89.1875 130.01895125 89.1875 130.01895125 89.1875 134.875 C89.8475 134.875 90.5075 134.875 91.1875 134.875 C91.43242187 134.31296875 91.67734375 133.7509375 91.9296875 133.171875 C94.50130045 128.47588613 98.54872805 124.76146793 102.1875 120.875 C102.80753906 120.20082031 103.42757812 119.52664062 104.06640625 118.83203125 C112.36702022 110.13700366 122.23171691 103.04523834 132.1875 96.375 C132.79795166 95.96588379 133.40840332 95.55676758 134.03735352 95.13525391 C142.29197321 89.71088684 149.28324137 86.91257204 159.1875 87.875 C164.54505096 89.79563148 167.64587216 92.79174432 170.1875 97.875 C170.49609375 99.9765625 170.49609375 99.9765625 170.625 102.5 C170.68558594 103.31726563 170.74617188 104.13453125 170.80859375 104.9765625 C169.07332209 113.07449689 161.10378792 119.06969823 155.375 124.5625 C148.26074785 131.53708849 142.36504329 138.32420881 137.1875 146.875 C136.59195313 147.78636719 135.99640625 148.69773438 135.3828125 149.63671875 C121.11022303 172.37771131 114.91935772 200.35435521 110.1640625 226.4296875 C106.03574384 248.87780514 106.03574384 248.87780514 97.19921875 255.625 C89.51866077 260.39738554 82.5465131 261.98609121 73.68359375 260.4375 C66.73889707 258.74108554 60.99847477 255.39674293 57.15454102 249.21337891 C54.26479495 243.88042887 53.04066351 238.53751897 51.875 232.625 C45.18088746 201.52532298 31.01968684 172.01456495 10.1875 147.875 C9.55199219 147.12992188 8.91648437 146.38484375 8.26171875 145.6171875 C-9.38849893 125.47400122 -28.96359268 109.75743211 -51.76171875 95.8359375 C-69.59331142 84.92380484 -82.03237463 74.21537611 -88.8125 53.875 C-89.69559741 36.15144036 -87.41782045 20.58502566 -75.6875 6.5 C-55.58338369 -14.25373911 -23.85953198 -13.97241657 0 0 Z " fill="#5561D8" transform="translate(139.8125,75.125)"/>
<path d="M0 0 C3.47844912 3.85449767 5.17359879 6.45893383 5.4375 11.625 C5.49808594 12.44226563 5.55867188 13.25953125 5.62109375 14.1015625 C3.88582209 22.19949689 -4.08371208 28.19469823 -9.8125 33.6875 C-16.92675215 40.66208849 -22.82245671 47.44920881 -28 56 C-28.59554687 56.91136719 -29.19109375 57.82273438 -29.8046875 58.76171875 C-43.12962743 79.99278971 -49.11313906 105.7251828 -54 130 C-54.19899902 130.9796875 -54.39799805 131.959375 -54.60302734 132.96875 C-55.7544922 138.64214278 -56.88621881 144.31909369 -58 150 C-58.33 150 -58.66 150 -59 150 C-59.03963867 149.11143311 -59.07927734 148.22286621 -59.12011719 147.30737305 C-60.76578678 111.96866424 -65.95419713 78.0045982 -76 44 C-75.34 44 -74.68 44 -74 44 C-73.75507813 43.43796875 -73.51015625 42.8759375 -73.2578125 42.296875 C-70.68619955 37.60088613 -66.63877195 33.88646793 -63 30 C-62.37996094 29.32582031 -61.75992188 28.65164062 -61.12109375 27.95703125 C-52.82047978 19.26200366 -42.95578309 12.17023834 -33 5.5 C-32.38954834 5.09088379 -31.77909668 4.68176758 -31.15014648 4.26025391 C-21.80945102 -1.87780729 -10.32760538 -6.96512921 0 0 Z " fill="#429CE7" transform="translate(305,166)"/>
<path d="M0 0 C4.85697184 3.46787789 8.07603436 7.52520994 9.2265625 13.45703125 C9.59849728 19.82886121 7.85433565 24.17071375 3.75 29 C-1.64550264 33.89359542 -5.10932147 34.35433525 -12.26953125 34.27734375 C-17.73207122 33.769034 -20.59958613 30.86017927 -24.0625 26.9375 C-27.98329066 21.67243826 -27.89758034 16.35723234 -27.25 10 C-24.89796526 5.11500477 -21.56309314 2.14496375 -17.25 -1 C-11.37883484 -2.87352222 -5.44915391 -3.07546944 0 0 Z " fill="#48ADEC" transform="translate(342.25,140)"/>
</svg>
